<svg xmlns="http://www.w3.org/2000/svg" viewBox="0 0 21.4 21.4"><defs><style>.cls-1{fill:#fefbdb;fill-rule:evenodd;}</style></defs><title>star-active</title><g id="Layer_2" data-name="Layer 2"><path class="cls-1" d="M21.06 8.94l-4.66 4.77 1.11 6.74a1.9 1.9 0 0 1 0 .27c0 .35-.15.67-.53.67a1 1 0 0 1-.51-.16l-5.77-3.18-5.77 3.19a1.05 1.05 0 0 1-.51.16c-.37 0-.54-.32-.54-.67a1.91 1.91 0 0 1 0-.27L5 13.71.32 8.94A1.07 1.07 0 0 1 0 8.29c0-.4.4-.57.72-.62l6.46-1L10.07.55c.11-.25.33-.55.63-.55s.51.3.63.55l2.89 6.14 6.46 1c.31.05.72.22.72.62a1 1 0 0 1-.33.65" id="Layer_1-2" data-name="Layer 1"/></g></svg>