<?xml version="1.0" encoding="utf-8"?>
<!-- Generator: Adobe Illustrator 20.1.0, SVG Export Plug-In . SVG Version: 6.00 Build 0)  -->
<svg version="1.1" id="Layer_1" xmlns="http://www.w3.org/2000/svg" xmlns:xlink="http://www.w3.org/1999/xlink" x="0px" y="0px"
	 viewBox="0 0 25 25" enable-background="new 0 0 25 25" xml:space="preserve">
<g>
	<g>
		<path fill-rule="evenodd" clip-rule="evenodd" fill="#84808E" d="M24.2,10.5l-5.3,5.4l1.2,7.6c0,0.1,0,0.2,0,0.3
			c0,0.4-0.2,0.8-0.6,0.8c-0.2,0-0.4-0.1-0.6-0.2l-6.5-3.6L6,24.4c-0.2,0.1-0.4,0.2-0.6,0.2c-0.4,0-0.6-0.4-0.6-0.8
			c0-0.1,0-0.2,0-0.3l1.2-7.6l-5.3-5.4c-0.2-0.2-0.4-0.5-0.4-0.7c0-0.5,0.4-0.6,0.8-0.7L8.5,8l3.3-6.9c0.1-0.3,0.4-0.6,0.7-0.6
			c0.3,0,0.6,0.3,0.7,0.6L16.5,8l7.3,1.1c0.3,0.1,0.8,0.2,0.8,0.7C24.6,10.1,24.4,10.3,24.2,10.5"/>
	</g>
	<text transform="matrix(1 0 0 1 9.5209 17.5687)" fill="#191622" font-family="'OpenSans-Bold'" font-size="11.2662px">3</text>
</g>
</svg>
