<svg xmlns="http://www.w3.org/2000/svg" viewBox="0 0 22.51 22.46"><defs><style>.cls-1,.cls-3{opacity:0.3;}.cls-2,.cls-3{fill:#fefbdb;}.cls-3{font-size:12px;font-family:OpenSans-Bold, Open Sans;font-weight:700;}</style></defs><title>star</title><g id="Layer_2" data-name="Layer 2"><g id="Layer_1-2" data-name="Layer 1"><path class="cls-1 cls-2" d="M17.54 22.46a1.55 1.55 0 0 1-.8-.24l-5.49-3-5.51 3a1.59 1.59 0 0 1-.78.23 1.12 1.12 0 0 1-1.09-1.23 2.19 2.19 0 0 1 0-.32L5 14.41.48 9.84A1.6 1.6 0 0 1 0 8.8a1.23 1.23 0 0 1 1.18-1.16l6.17-.94L10.12.83a1.19 1.19 0 0 1 2.26 0l2.77 5.87 6.16.94c.74.13 1.19.58 1.19 1.17a1.5 1.5 0 0 1-.49 1l-4.47 4.57 1.06 6.47a2.46 2.46 0 0 1 0 .36 1.11 1.11 0 0 1-1.06 1.25zM1.1 8.82a2.54 2.54 0 0 0 .19.26l4.86 5L5 21.05a1.31 1.31 0 0 0 0 .18.32.32 0 0 0 0 .15s.09-.06.2-.12l6-3.33 6 3.33a.61.61 0 0 0 .22.09.85.85 0 0 1 0-.12 1.36 1.36 0 0 0 0-.19l-1.15-7 4.86-5c.19-.2.19-.26.18-.26a1.7 1.7 0 0 0-.26-.08l-6.73-1-3-6.4a.7.7 0 0 0-.15-.23s0 .1-.1.22L8.1 7.7l-6.75 1a.55.55 0 0 0-.26.1z"/><text class="cls-3" transform="translate(7.85 16.73)">2</text></g></g></svg>