<svg xmlns="http://www.w3.org/2000/svg" viewBox="0 0 720 720"><title>Group 2</title><path fill="#E2E2E2" d="M711.2 304.7L554.4 456.4l36 216v7.7c0 10.3-5.1 20.6-18 20.6-5.1 0-12.9-2.6-18-5.1L361.5 592.7 168.6 695.6c-5.1 2.6-10.3 5.1-18 5.1-12.9 0-18-10.3-18-20.6v-7.7l36-216L11.8 304.7c-5.1-5.1-10.3-12.9-10.3-20.6 0-12.9 12.9-18 23.1-20.6l216-30.9 97.7-195.4c5.1-7.7 10.3-18 20.6-18s18 10.3 20.6 18l97.7 195.4 216 30.9c10.3 2.6 23.1 7.7 23.1 20.6 5.2 7.8.1 15.5-5.1 20.6z"/><path fill="#FFF" d="M454.1 513h-180v-38.6l64.3-64.3c18-20.6 30.9-33.4 38.6-41.1 5.1-7.7 10.3-15.4 12.9-20.6 2.6-5.1 5.1-12.9 5.1-20.6 0-10.3-2.6-18-7.7-23.1-5.1-5.1-12.9-7.7-23.1-7.7s-20.6 2.6-28.3 7.7c-7.7 5.1-18 10.3-28.3 20.6l-28.3-36c12.9-10.3 23.1-18 30.9-23.1s18-7.7 28.3-10.3 20.6-2.6 33.4-2.6c15.4 0 30.9 2.6 43.7 7.7 12.9 5.1 23.1 12.9 28.3 25.7 7.7 10.3 10.3 23.1 10.3 36s-2.6 23.1-5.1 33.4c-5.1 10.3-10.3 20.6-20.6 30.9-7.7 10.3-23.1 25.7-46.3 46.3l-33.4 30.9v2.6h113.1V513h-7.8z"/></svg>