<?xml version="1.0" encoding="utf-8"?>
<!-- Generator: Adobe Illustrator 18.1.1, SVG Export Plug-In . SVG Version: 6.00 Build 0)  -->
<svg version="1.1" id="Layer_1" xmlns="http://www.w3.org/2000/svg" xmlns:xlink="http://www.w3.org/1999/xlink" x="0px" y="0px"
	 viewBox="0 0 720 720" enable-background="new 0 0 720 720" xml:space="preserve">
<title>Group 5</title>
<desc>Created with Sketch.</desc>
<g id="Page-1">
	<g id="Free-to-Choose-v2" transform="translate(-210.000000, -596.000000)">
		<g id="Group-5" transform="translate(205.000000, 596.000000)">
			<g enable-background="new    ">
				<path fill="#E2E2E2" d="M716.2,304.7L559.4,456.4l36,216c0,2.6,0,5.1,0,7.7c0,10.3-5.1,20.6-18,20.6c-5.1,0-12.9-2.6-18-5.1
					L366.5,592.7L173.6,695.6c-5.1,2.6-10.3,5.1-18,5.1c-12.9,0-18-10.3-18-20.6c0-2.6,0-5.1,0-7.7l36-216L16.8,304.7
					c-5.1-5.1-10.3-12.9-10.3-20.6c0-12.9,12.9-18,23.1-20.6l216-30.9l97.7-195.4c5.1-7.7,10.3-18,20.6-18s18,10.3,20.6,18
					l97.7,195.4l216,30.9c10.3,2.6,23.1,7.7,23.1,20.6C726.5,291.9,721.4,299.6,716.2,304.7z"/>
			</g>
			<g enable-background="new    ">
				<path fill="#FFFFFF" d="M374.2,348.4c25.7,0,43.7,7.7,59.1,20.6s23.1,33.4,23.1,56.6c0,28.3-7.7,51.4-25.7,66.9
					c-18,15.4-43.7,23.1-77.1,23.1c-28.3,0-51.4-5.1-69.4-12.9v-46.3c10.3,5.1,20.6,7.7,33.4,12.9c12.9,2.6,23.1,5.1,36,5.1
					c33.4,0,48.9-12.9,48.9-41.1c0-25.7-18-38.6-51.4-38.6c-5.1,0-12.9,0-20.6,2.6c-7.7,0-12.9,2.6-18,5.1l-20.6-12.9l10.3-131.1
					h138.9v46.3h-92.6l-5.1,51.4h5.1C353.7,348.4,363.9,348.4,374.2,348.4z"/>
			</g>
		</g>
	</g>
</g>
</svg>
