<svg width="37" height="36" viewBox="0 0 37 36" xmlns="http://www.w3.org/2000/svg"><title>sidebar-progress_star-num2</title><path d="M36.77 13.59c0 .398-.286.774-.573 1.06l-8.022 7.824 1.9 11.05c.023.154.023.286.023.44 0 .576-.265 1.106-.906 1.106-.31 0-.62-.11-.884-.265l-9.922-5.215-9.922 5.215c-.288.154-.575.265-.884.265-.64 0-.928-.53-.928-1.105 0-.155.022-.287.044-.442l1.9-11.05-8.044-7.822C.287 14.365 0 13.99 0 13.59c0-.663.685-.928 1.238-1.016L12.33 10.96 17.304.907c.2-.42.574-.906 1.083-.906.508 0 .884.486 1.083.906l4.97 10.055 11.094 1.614c.53.088 1.237.353 1.237 1.016zM22.293 24.236V22.28h-4.79v-.105l1.414-1.33c.942-.863 1.6-1.527 1.974-1.993.373-.466.65-.92.827-1.365.178-.444.267-.92.267-1.425 0-.58-.146-1.098-.436-1.55-.29-.45-.7-.8-1.226-1.052-.526-.25-1.133-.376-1.82-.376-.52 0-.992.052-1.413.154-.423.103-.81.25-1.167.44-.356.19-.805.517-1.346.978l1.263 1.496c.436-.36.855-.64 1.256-.834.4-.196.815-.294 1.24-.294.407 0 .73.108.975.324.244.215.365.544.365.985 0 .295-.055.58-.165.857-.11.276-.29.575-.542.9-.25.322-.784.902-1.6 1.74l-2.76 2.79v1.616h7.684z" fill="#FFF" fill-rule="evenodd" opacity=".5"/></svg>