<svg width="37" height="36" viewBox="0 0 37 36" xmlns="http://www.w3.org/2000/svg"><title>sidebar-progress_star-num1</title><path d="M36.77 13.59c0 .398-.286.774-.573 1.06l-8.022 7.824 1.9 11.05c.023.154.023.286.023.44 0 .576-.265 1.106-.906 1.106-.31 0-.62-.11-.884-.265l-9.922-5.215-9.922 5.215c-.288.154-.575.265-.884.265-.64 0-.928-.53-.928-1.105 0-.155.022-.287.044-.442l1.9-11.05-8.044-7.822C.287 14.365 0 13.99 0 13.59c0-.663.685-.928 1.238-1.016L12.33 10.96 17.304.907c.2-.42.574-.906 1.083-.906.508 0 .884.486 1.083.906l4.97 10.055 11.094 1.614c.53.088 1.237.353 1.237 1.016zM20.238 24.065V13h-1.922l-3.565 2.838 1.128 1.408 1.27-1.022c.153-.12.422-.376.81-.764l-.037 1.15-.022 1.052v6.403h2.34z" fill="#FFF" fill-rule="evenodd" fill-opacity=".5"/></svg>