<svg xmlns="http://www.w3.org/2000/svg" viewBox="-345 347 28 28"><title>Group 4</title><path fill="#E2E2E2" d="M-317.5 358.9l-6.1 5.9 1.4 8.4v.3c0 .4-.2.8-.7.8-.2 0-.5-.1-.7-.2l-7.5-4-7.5 4c-.2.1-.4.2-.7.2-.5 0-.7-.4-.7-.8v-.3l1.4-8.4-6.1-5.9c-.2-.2-.4-.5-.4-.8 0-.5.5-.7.9-.8l8.4-1.2 3.8-7.6c.2-.3.4-.7.8-.7s.7.4.8.7l3.8 7.6 8.4 1.2c.4.1.9.3.9.8.2.3 0 .6-.2.8z"/><path fill="#FFF" d="M-328.2 364.9h-1.2v2.1h-2.1v-2.1h-4.3v-1.5l4.4-6.5h1.9v6.3h1.2v1.7zm-3.3-1.6v-1.7-1.2s0-.8.1-.9h-.1c-.2.4-.4.7-.6 1.1l-1.8 2.8h2.4z"/></svg>