<svg width="37" height="36" viewBox="0 0 37 36" xmlns="http://www.w3.org/2000/svg"><title>sidebar-progress_star-num4</title><path d="M36.886 14.355c0 .397-.288.773-.575 1.06l-8.02 7.823 1.9 11.05c.022.154.022.287.022.44 0 .576-.265 1.106-.906 1.106-.31 0-.62-.11-.884-.265L18.5 30.353 8.578 35.57c-.287.154-.575.264-.884.264-.64 0-.928-.53-.928-1.105 0-.155.022-.288.044-.443l1.9-11.05-8.043-7.822c-.265-.287-.553-.663-.553-1.06 0-.663.685-.928 1.238-1.017l11.093-1.613L17.417 1.67c.2-.42.575-.906 1.083-.906s.884.486 1.083.906l4.972 10.055 11.093 1.613c.53.09 1.238.354 1.238 1.017zm-15.218 8.36v-1.81H20.34V13.97h-2.15l-4.835 7.122v1.622h4.707V25h2.278v-2.286h1.328zm-3.606-1.81v-1.872c0-.312.013-.765.038-1.358.025-.594.045-.938.06-1.034h-.06c-.186.414-.41.816-.672 1.208l-2.02 3.056h2.654z" fill="#FFF" fill-rule="evenodd" fill-opacity=".5"/></svg>