<?xml version="1.0" encoding="utf-8"?>
<!-- Generator: Adobe Illustrator 18.1.1, SVG Export Plug-In . SVG Version: 6.00 Build 0)  -->
<svg version="1.1" id="Layer_1" xmlns="http://www.w3.org/2000/svg" xmlns:xlink="http://www.w3.org/1999/xlink" x="0px" y="0px"
	 viewBox="0 0 720 720" enable-background="new 0 0 720 720" xml:space="preserve">
<title>Group 6</title>
<desc>Created with Sketch.</desc>
<g id="Page-1">
	<g id="Free-to-Choose-v2" transform="translate(-58.000000, -596.000000)">
		<g id="Group-6" transform="translate(53.000000, 596.000000)">
			<g enable-background="new    ">
				<path fill="#E2E2E2" d="M716.2,304.7L559.4,456.4l36,216c0,2.6,0,5.1,0,7.7c0,10.3-5.1,20.6-18,20.6c-5.1,0-12.9-2.6-18-5.1
					L366.5,592.7L173.6,695.6c-5.1,2.6-10.3,5.1-18,5.1c-12.9,0-18-10.3-18-20.6c0-2.6,0-5.1,0-7.7l36-216L16.8,304.7
					c-5.1-5.1-10.3-12.9-10.3-20.6c0-12.9,12.9-18,23.1-20.6l216-30.9l97.7-195.4c5.1-7.7,10.3-18,20.6-18s18,10.3,20.6,18
					l97.7,195.4l216,30.9c10.3,2.6,23.1,7.7,23.1,20.6C726.5,291.9,721.4,299.6,716.2,304.7z"/>
			</g>
			<g enable-background="new    ">
				<path fill="#FFFFFF" d="M415.4,513h-54V363.9v-25.7v-25.7c-10.3,10.3-15.4,15.4-18,18l-28.3,23.1l-25.7-33.4l82.3-66.9h43.7V513
					z"/>
			</g>
		</g>
	</g>
</g>
</svg>
