<?xml version="1.0" encoding="utf-8"?>
<!-- Generator: Adobe Illustrator 18.1.1, SVG Export Plug-In . SVG Version: 6.00 Build 0)  -->
<svg version="1.1" id="Layer_1" xmlns="http://www.w3.org/2000/svg" xmlns:xlink="http://www.w3.org/1999/xlink" x="0px" y="0px"
	 viewBox="0 0 720 720" enable-background="new 0 0 720 720" xml:space="preserve">
<title>star</title>
<desc>Created with Sketch.</desc>
<g id="Free-to-Choose-v2" transform="translate(-57.000000, -557.000000)">
	<g id="star" transform="translate(57.000000, 557.000000)">
		<path id="Fill-1" opacity="0.5" fill="#C9C8C8" enable-background="new    " d="M685.2,344.9c0-30.2-23.2-53.4-55.7-58.1
			l-155.6-20.9l-69.7-134.7c-11.6-23.2-32.5-37.2-55.7-37.2c-23.2,0-44.1,13.9-55.7,37.2L223,265.9L67.4,286.8
			c-34.8,4.6-55.7,27.9-55.7,58.1c0,23.2,16.3,39.5,20.9,46.5l113.8,106.8l-25.5,148.6v2.3c0,2.3,0,7,0,11.6
			c0,34.8,25.5,60.4,58.1,60.4c11.6,0,23.2-2.3,34.8-9.3l137-69.7l137,69.7c11.6,7,23.2,9.3,34.8,9.3c32.5,0,58.1-25.5,58.1-60.4
			c0-2.3,0-7,0-13.9l-25.5-148.6l111.5-104.5C678.2,377.4,685.2,361.2,685.2,344.9"/>
		<path id="Fill-3" fill="#FEFEFE" d="M708.4,268.3c0-25.5-18.6-46.5-48.8-51.1l-174.2-25.5L408.8,33.7
			C399.5,12.8,380.9-1.2,360-1.2s-37.2,13.9-48.8,34.8l-76.6,157.9L60.4,217.2c-30.2,4.6-48.8,25.5-48.8,51.1
			c0,20.9,13.9,37.2,18.6,41.8l125.4,123.1l-30.2,174.2v2.3c0,2.3,0,7,0,11.6c0,30.2,20.9,53.4,48.8,53.4c13.9,0,23.2-4.6,30.2-9.3
			L360,584.1l153.3,81.3c9.3,4.6,20.9,9.3,30.2,9.3c27.9,0,48.8-23.2,48.8-53.4c0-2.3,0-7,0-11.6l-30.2-174.2l125.4-123.1
			C701.4,296.1,708.4,282.2,708.4,268.3"/>
		<path id="Fill-5" fill="#ECB63A" d="M652.6,275.2L520.3,409.9l30.2,190.5c0,2.3,0,4.6,0,7c0,9.3-4.6,18.6-13.9,18.6
			c-4.6,0-9.3-2.3-13.9-4.6L360,530.7l-162.6,90.6c-4.6,2.3-9.3,4.6-13.9,4.6c-11.6,0-16.3-9.3-16.3-18.6c0-2.3,0-4.6,0-7
			l30.2-190.5L65,275.2c-4.6-4.6-9.3-11.6-9.3-18.6c0-11.6,11.6-16.3,20.9-18.6l181.2-27.9L339.1,36c2.3-7,9.3-16.3,18.6-16.3
			c9.3,0,13.9,9.3,18.6,16.3l81.3,174.2l181.2,27.9c9.3,2.3,20.9,7,20.9,18.6C661.9,263.6,657.3,268.3,652.6,275.2"/>
		<path id="Fill-7" opacity="0.25" fill="#FEFEFE" enable-background="new    " d="M652.6,279.9c4.6-4.6,9.3-11.6,9.3-18.6
			c0-11.6-11.6-16.3-20.9-18.6l-181.2-27.9L378.6,38.3c-2.3-7-9.3-16.3-18.6-16.3c-9.3,0-13.9,9.3-18.6,16.3l-81.3,176.5L79,242.7
			c-9.3,2.3-20.9,7-20.9,18.6c0,7,4.6,13.9,9.3,18.6l132.4,137l394.8-76.6L652.6,279.9z"/>
	</g>
</g>
</svg>
