<svg width="37" height="36" viewBox="0 0 37 36" xmlns="http://www.w3.org/2000/svg"><title>sidebar-progress_star-num3</title><path d="M36.886 14.355c0 .397-.288.773-.575 1.06l-8.02 7.823 1.9 11.05c.022.154.022.287.022.44 0 .576-.265 1.106-.906 1.106-.31 0-.62-.11-.884-.265L18.5 30.353 8.578 35.57c-.287.154-.575.264-.884.264-.64 0-.928-.53-.928-1.105 0-.155.022-.288.044-.443l1.9-11.05-8.043-7.822c-.265-.287-.553-.663-.553-1.06 0-.663.685-.928 1.238-1.017l11.093-1.613L17.417 1.67c.2-.42.575-.906 1.083-.906s.884.486 1.083.906l4.972 10.055 11.093 1.613c.53.09 1.238.354 1.238 1.017zm-14.85 2.11c0-.822-.33-1.463-.988-1.925-.66-.46-1.558-.69-2.696-.69-1.39 0-2.584.36-3.587 1.08l1.075 1.603c.457-.296.87-.504 1.245-.624.373-.12.74-.182 1.1-.182 1.044 0 1.565.416 1.565 1.25 0 .54-.196.922-.59 1.145-.393.223-1.016.335-1.868.335h-.85v1.782h.835c.922 0 1.594.108 2.015.323.42.216.63.582.63 1.098 0 .578-.182.996-.547 1.257-.366.26-.933.39-1.7.39-.5 0-1.008-.067-1.52-.202-.51-.135-.98-.31-1.405-.526v1.976c.922.396 1.98.594 3.173.594 1.424 0 2.52-.294 3.286-.883.766-.59 1.15-1.413 1.15-2.47 0-.727-.228-1.305-.685-1.734-.456-.428-1.127-.698-2.015-.808v-.045c.752-.18 1.336-.51 1.752-.993.416-.48.624-1.065.624-1.752z" fill="#FFF" fill-rule="evenodd" opacity=".5"/></svg>
