<?xml version="1.0" encoding="utf-8"?>
<!-- Generator: Adobe Illustrator 18.1.1, SVG Export Plug-In . SVG Version: 6.00 Build 0)  -->
<svg version="1.1" id="Layer_1" xmlns="http://www.w3.org/2000/svg" xmlns:xlink="http://www.w3.org/1999/xlink" x="0px" y="0px"
	 viewBox="0 0 720 720" enable-background="new 0 0 720 720" xml:space="preserve">
<title>Group 3</title>
<desc>Created with Sketch.</desc>
<g id="Page-1">
	<g id="Free-to-Choose-v2" transform="translate(-134.000000, -596.000000)">
		<g id="Group-3" transform="translate(129.000000, 596.000000)">
			<g enable-background="new    ">
				<path fill="#E2E2E2" d="M714.7,304.7L557.9,456.4l36,216c0,2.6,0,5.1,0,7.7c0,10.3-5.1,20.6-18,20.6c-5.1,0-12.9-2.6-18-5.1
					L365,592.7L172.1,695.6c-5.1,2.6-10.3,5.1-18,5.1c-12.9,0-18-10.3-18-20.6c0-2.6,0-5.1,0-7.7l36-216L15.3,304.7
					C10.1,299.6,5,291.9,5,284.1c0-12.9,12.9-18,23.1-20.6l216-30.9l97.7-195.4c5.1-7.7,10.3-18,20.6-18s18,10.3,20.6,18l97.7,195.4
					l216,30.9c10.3,2.6,23.1,7.7,23.1,20.6C725,291.9,719.9,299.6,714.7,304.7z"/>
			</g>
			<g enable-background="new    ">
				<path fill="#FFFFFF" d="M449.9,312.4c0,15.4-5.1,30.9-15.4,41.1s-23.1,18-41.1,23.1l0,0c20.6,2.6,36,7.7,46.3,18
					c10.3,10.3,15.4,23.1,15.4,41.1c0,25.7-7.7,43.7-25.7,56.6c-18,12.9-43.7,20.6-77.1,20.6c-28.3,0-51.4-5.1-74.6-12.9v-46.3
					c10.3,5.1,20.6,10.3,33.4,12.9c12.9,2.6,23.1,5.1,36,5.1c18,0,30.9-2.6,38.6-10.3c7.7-7.7,12.9-15.4,12.9-28.3
					c0-12.9-5.1-20.6-15.4-25.7c-10.3-5.1-25.7-7.7-46.3-7.7h-20.6v-41.1h20.6c20.6,0,33.4-2.6,43.7-7.7
					c10.3-5.1,12.9-12.9,12.9-25.7c0-20.6-12.9-28.3-36-28.3c-7.7,0-18,2.6-25.7,5.1s-18,7.7-28.3,15.4L277.6,279
					c23.1-18,51.4-25.7,84.9-25.7c25.7,0,48.9,5.1,64.3,15.4C442.1,279,449.9,294.4,449.9,312.4z"/>
			</g>
		</g>
	</g>
</g>
</svg>
