<svg xmlns="http://www.w3.org/2000/svg" viewBox="0 0 720 720"><title>star</title><path opacity=".5" fill="#C9C8C8" d="M685.2 344.9c0-30.2-23.2-53.4-55.7-58.1l-155.6-20.9-69.7-134.7C392.6 108 371.7 94 348.5 94c-23.2 0-44.1 13.9-55.7 37.2L223 265.9 67.4 286.8c-34.8 4.6-55.7 27.9-55.7 58.1 0 23.2 16.3 39.5 20.9 46.5l113.8 106.8-25.5 148.6V660.7c0 34.8 25.5 60.4 58.1 60.4 11.6 0 23.2-2.3 34.8-9.3l137-69.7 137 69.7c11.6 7 23.2 9.3 34.8 9.3 32.5 0 58.1-25.5 58.1-60.4v-13.9l-25.5-148.6 111.5-104.5c11.5-16.3 18.5-32.5 18.5-48.8"/><path fill="#FEFEFE" d="M708.4 268.3c0-25.5-18.6-46.5-48.8-51.1l-174.2-25.5-76.6-158C399.5 12.8 380.9-1.2 360-1.2s-37.2 13.9-48.8 34.8l-76.6 157.9-174.2 25.7c-30.2 4.6-48.8 25.5-48.8 51.1 0 20.9 13.9 37.2 18.6 41.8l125.4 123.1-30.2 174.2V621.3c0 30.2 20.9 53.4 48.8 53.4 13.9 0 23.2-4.6 30.2-9.3L360 584.1l153.3 81.3c9.3 4.6 20.9 9.3 30.2 9.3 27.9 0 48.8-23.2 48.8-53.4v-11.6l-30.2-174.2 125.4-123.1c13.9-16.3 20.9-30.2 20.9-44.1"/><path fill="#ECB63A" d="M652.6 275.2L520.3 409.9l30.2 190.5v7c0 9.3-4.6 18.6-13.9 18.6-4.6 0-9.3-2.3-13.9-4.6L360 530.7l-162.6 90.6c-4.6 2.3-9.3 4.6-13.9 4.6-11.6 0-16.3-9.3-16.3-18.6v-7l30.2-190.5L65 275.2c-4.6-4.6-9.3-11.6-9.3-18.6 0-11.6 11.6-16.3 20.9-18.6l181.2-27.9L339.1 36c2.3-7 9.3-16.3 18.6-16.3S371.6 29 376.3 36l81.3 174.2 181.2 27.9c9.3 2.3 20.9 7 20.9 18.6 2.2 6.9-2.4 11.6-7.1 18.5"/><path opacity=".25" fill="#FEFEFE" d="M652.6 279.9c4.6-4.6 9.3-11.6 9.3-18.6 0-11.6-11.6-16.3-20.9-18.6l-181.2-27.9-81.2-176.5c-2.3-7-9.3-16.3-18.6-16.3s-13.9 9.3-18.6 16.3l-81.3 176.5L79 242.7c-9.3 2.3-20.9 7-20.9 18.6 0 7 4.6 13.9 9.3 18.6l132.4 137 394.8-76.6 58-60.4z"/></svg>