<?xml version="1.0" encoding="utf-8"?>
<!-- Generator: Adobe Illustrator 18.1.1, SVG Export Plug-In . SVG Version: 6.00 Build 0)  -->
<svg version="1.1" id="Layer_1" xmlns="http://www.w3.org/2000/svg" xmlns:xlink="http://www.w3.org/1999/xlink" x="0px" y="0px"
	 viewBox="-345 347 28 28" enable-background="new -345 347 28 28" xml:space="preserve">
<title>Group 4</title>
<desc>Created with Sketch.</desc>
<g id="Page-1">
	<g id="Free-to-Choose-v2" transform="translate(-172.000000, -596.000000)">
		<g id="Group-4" transform="translate(167.000000, 596.000000)">
			<g enable-background="new    ">
				<path fill="#E2E2E2" d="M-312.5,358.9l-6.1,5.9l1.4,8.4c0,0.1,0,0.2,0,0.3c0,0.4-0.2,0.8-0.7,0.8c-0.2,0-0.5-0.1-0.7-0.2l-7.5-4
					l-7.5,4c-0.2,0.1-0.4,0.2-0.7,0.2c-0.5,0-0.7-0.4-0.7-0.8c0-0.1,0-0.2,0-0.3l1.4-8.4l-6.1-5.9c-0.2-0.2-0.4-0.5-0.4-0.8
					c0-0.5,0.5-0.7,0.9-0.8l8.4-1.2l3.8-7.6c0.2-0.3,0.4-0.7,0.8-0.7s0.7,0.4,0.8,0.7l3.8,7.6l8.4,1.2c0.4,0.1,0.9,0.3,0.9,0.8
					C-312.1,358.4-312.3,358.7-312.5,358.9z"/>
			</g>
			<g enable-background="new    ">
				<path fill="#FFFFFF" d="M-323.2,364.9h-1.2v2.1h-2.1v-2.1h-4.3v-1.5l4.4-6.5h1.9v6.3h1.2V364.9z M-326.5,363.3v-1.7
					c0-0.3,0-0.7,0-1.2s0-0.8,0.1-0.9h-0.1c-0.2,0.4-0.4,0.7-0.6,1.1l-1.8,2.8H-326.5z"/>
			</g>
		</g>
	</g>
</g>
</svg>
