<svg width="37" height="36" viewBox="0 0 37 36" xmlns="http://www.w3.org/2000/svg"><title>sidebar-progress_star-highlight</title><path d="M36.77 13.59c0-.663-.706-.928-1.236-1.016L24.44 10.96 19.47.907C19.27.486 18.893 0 18.385 0c-.51 0-.884.486-1.083.906L12.33 10.96 1.24 12.575C.685 12.662 0 12.927 0 13.59c0 .398.287.774.552 1.06l8.044 7.824-1.9 11.05c-.022.154-.044.286-.044.44 0 .576.287 1.106.928 1.106.31 0 .596-.11.884-.265l9.922-5.215 9.922 5.215c.265.154.574.265.884.265.64 0 .906-.53.906-1.105 0-.155 0-.287-.022-.442l-1.9-11.05 8.02-7.822c.288-.286.575-.662.575-1.06z" fill="#FDFC74" fill-rule="evenodd"/></svg>