<svg xmlns="http://www.w3.org/2000/svg" viewBox="0 0 720 720"><title>Group 3</title><path fill="#E2E2E2" d="M709.7 304.7L552.9 456.4l36 216v7.7c0 10.3-5.1 20.6-18 20.6-5.1 0-12.9-2.6-18-5.1L360 592.7 167.1 695.6c-5.1 2.6-10.3 5.1-18 5.1-12.9 0-18-10.3-18-20.6v-7.7l36-216L10.3 304.7C5.1 299.6 0 291.9 0 284.1c0-12.9 12.9-18 23.1-20.6l216-30.9 97.7-195.4c5.1-7.7 10.3-18 20.6-18s18 10.3 20.6 18l97.7 195.4 216 30.9c10.3 2.6 23.1 7.7 23.1 20.6 5.2 7.8.1 15.5-5.1 20.6z"/><path fill="#FFF" d="M444.9 312.4c0 15.4-5.1 30.9-15.4 41.1s-23.1 18-41.1 23.1c20.6 2.6 36 7.7 46.3 18 10.3 10.3 15.4 23.1 15.4 41.1 0 25.7-7.7 43.7-25.7 56.6-18 12.9-43.7 20.6-77.1 20.6-28.3 0-51.4-5.1-74.6-12.9v-46.3c10.3 5.1 20.6 10.3 33.4 12.9 12.9 2.6 23.1 5.1 36 5.1 18 0 30.9-2.6 38.6-10.3 7.7-7.7 12.9-15.4 12.9-28.3s-5.1-20.6-15.4-25.7c-10.3-5.1-25.7-7.7-46.3-7.7h-20.6v-41.1h20.6c20.6 0 33.4-2.6 43.7-7.7 10.3-5.1 12.9-12.9 12.9-25.7 0-20.6-12.9-28.3-36-28.3-7.7 0-18 2.6-25.7 5.1s-18 7.7-28.3 15.4L272.6 279c23.1-18 51.4-25.7 84.9-25.7 25.7 0 48.9 5.1 64.3 15.4 15.3 10.3 23.1 25.7 23.1 43.7z"/></svg>