<svg xmlns="http://www.w3.org/2000/svg" viewBox="0 0 720 720"><title>Group 5</title><path fill="#E2E2E2" d="M711.2 304.7L554.4 456.4l36 216v7.7c0 10.3-5.1 20.6-18 20.6-5.1 0-12.9-2.6-18-5.1L361.5 592.7 168.6 695.6c-5.1 2.6-10.3 5.1-18 5.1-12.9 0-18-10.3-18-20.6v-7.7l36-216L11.8 304.7c-5.1-5.1-10.3-12.9-10.3-20.6 0-12.9 12.9-18 23.1-20.6l216-30.9 97.7-195.4c5.1-7.7 10.3-18 20.6-18s18 10.3 20.6 18l97.7 195.4 216 30.9c10.3 2.6 23.1 7.7 23.1 20.6 5.2 7.8.1 15.5-5.1 20.6z"/><path fill="#FFF" d="M369.2 348.4c25.7 0 43.7 7.7 59.1 20.6s23.1 33.4 23.1 56.6c0 28.3-7.7 51.4-25.7 66.9-18 15.4-43.7 23.1-77.1 23.1-28.3 0-51.4-5.1-69.4-12.9v-46.3c10.3 5.1 20.6 7.7 33.4 12.9 12.9 2.6 23.1 5.1 36 5.1 33.4 0 48.9-12.9 48.9-41.1 0-25.7-18-38.6-51.4-38.6-5.1 0-12.9 0-20.6 2.6-7.7 0-12.9 2.6-18 5.1l-20.6-12.9 10.3-131.1h138.9v46.3h-92.6l-5.1 51.4h5.1c5.2-7.7 15.4-7.7 25.7-7.7z"/></svg>