<svg id="Layer_1" xmlns="http://www.w3.org/2000/svg" xmlns:xlink="http://www.w3.org/1999/xlink" viewBox="0 0 440 440"><style>.st0{fill:#007EC9;} .st1{clip-path:url(#SVGID_2_);fill:#7BB7DE;} .st2{fill:#FFFFFF;}</style><circle class="st0" cx="220" cy="220" r="192.5"/><defs><circle id="SVGID_1_" cx="220" cy="220" r="192.5"/></defs><clipPath id="SVGID_2_"><use xlink:href="#SVGID_1_" overflow="visible"/></clipPath><path class="st1" d="M251.5 191.3c-.1 0-.1.1-.4.1-.2.1-.4.2-.8.3-.2.1-.3.1-.4.1s-.2.1-.4.1c-1.1.4-2.5 1.1-4.4 1.9-3.5 1.6-8.5 4-14.4 7-9 4.7-20.5 11.2-33.4 19.6l-14.2-52h-.1s-.1 0-.3.1c-.2.1-.4.1-.8.2-.1.1-.2.1-.3.1-.1 0-.2.1-.3.1-1 .4-2.2 1-3.7 1.8-3.1 1.4-7.1 3.5-12.1 6.3-9.9 5.5-23.2 13.6-38.2 24.6-7.5 5.5-15.4 11.7-23.4 18.7-8 6.9-16.2 14.6-24.1 23.1-8 8.4-15.7 17.6-23 27.4S42.9 291 37.1 301.9s-10.7 22.2-14.5 33.5-6.5 22.8-8.1 33.8-2.2 21.6-2.1 31.5c.2 9.9 1 19 2.3 27.3s2.9 15.6 4.6 22.1c.4 1.6.9 3.2 1.2 4.6.4 1.4.9 2.9 1.3 4.3l1.2 3.9c.4 1.2.9 2.4 1.2 3.5.8 2.2 1.4 4.2 2.1 5.9.7 1.7 1.2 3.1 1.6 4.3.9 2.3 1.4 3.5 1.4 3.5l1.1-.2s0-1.3.1-3.9c0-1.2 0-2.8.1-4.5 0-1.8.2-3.9.3-6.2.1-1.1.1-2.3.2-3.6.1-1.2.2-2.5.3-4 .1-1.3.2-2.8.4-4.3.2-1.4.4-3 .6-4.5.8-6.2 2.1-13.1 3.9-20.5 1.8-7.4 4.2-15.1 7.3-22.8 3.1-7.7 6.9-15.5 11.4-23 1-1.7 2-3.2 3.1-4.7-.9 2.2-1.8 4.5-2.6 6.7-5 13.4-8.5 27-10.8 40-2.3 13.1-3.4 25.8-3.6 37.7-.1 11.9.4 23 1.8 33 1.3 10 2.9 19 4.7 26.9.4 2 .9 3.9 1.3 5.7.4 1.8 1 3.5 1.4 5.3.4 1.7.9 3.3 1.3 4.8s.9 3 1.3 4.3c.9 2.8 1.5 5.2 2.3 7.3s1.3 3.8 1.9 5.3c1 2.9 1.5 4.4 1.5 4.4l1.1-.2s0-1.7-.1-4.6c0-1.5-.1-3.4-.1-5.5 0-2.2.1-4.7.1-7.5 0-1.4.1-2.9.1-4.4.1-1.5.2-3.2.2-4.8.1-1.7.2-3.4.3-5.2.2-1.8.3-3.6.6-5.6.7-7.7 2-16.2 3.7-25.3 1.8-9.1 4.4-18.7 7.8-28.5 3.4-9.8 7.7-19.7 13-29.3 5.3-9.6 11.4-18.9 18.5-27.7 7-8.7 14.8-16.9 23.2-24.3 8.5-7.5 17.3-14.2 26.5-20.2s18.6-11.3 28-15.9c4.6-2.3 9.4-4.4 14-6.5 4.6-2 9.2-3.8 13.8-5.5 9-3.4 17.7-6.2 25.7-8.5 16.1-4.6 29.7-7.3 38.8-8.6 4.6-.7 8-1.1 10.2-1.2 1-.1 1.9-.1 2.2-.1h.1s.1 0 0 0l-.1.1h.2l-34.9-128.7z"/><g><path class="st2" d="M339.9 191.5l-54 52.7 12.8 74.4c.1 1 .1 2 .1 3 0 3.9-1.8 7.5-6 7.5-2.1 0-4.2-.8-5.9-1.8L220 292.2l-66.8 35.1c-2 1-3.9 1.8-5.9 1.8-4.3 0-6.3-3.5-6.3-7.5 0-1 .1-2 .3-3l12.8-74.4-54.1-52.7c-1.8-2-3.7-4.5-3.7-7.1 0-4.5 4.6-6.3 8.4-6.8l74.7-10.9L212.7 99c1.3-2.9 3.9-6 7.3-6s5.9 3.3 7.3 6l33.4 67.8 74.7 10.9c3.5.5 8.4 2.4 8.4 6.8.1 2.6-1.9 5.1-3.9 7z"/></g></svg>