<svg id="Layer_1" xmlns="http://www.w3.org/2000/svg" viewBox="0 0 440 440"><style>.st0{fill:#652562;} .st1{fill:#FFFFFF;}</style><circle class="st0" cx="220" cy="220" r="192.5"/><path class="st1" d="M351.6 200.3c-1.1 19.4 1.4 38.2-23.9 71.5-27.1 35.5-48.7 35.2-53.8 35.8-30.4 3.2-36.1-23.9-53.8-23.9-15.5 0-25 26.8-47.9 23.9-5.1-.7-32.8-.2-59.7-35.8-25.3-33.3-22.8-52.1-23.9-71.5-1.1-19.4-5.9-41.7-5.9-41.7s14.2 10.9 29.9 11.9c15.7 1.1 14.6-8.4 47.9-17.9 36-10.3 59.7 35.8 59.7 35.8s26.6-45.4 59.7-35.8c33.2 9.7 32.1 18.9 47.9 17.9 15.7-1.1 29.9-11.9 29.9-11.9s-5 22.3-6.1 41.7zm-185.1 4c-17.6-3.6-24.3-1.5-36.2 2-12.3 3.6-7.3 2.2-17.9 5.9 0 0 4.2 14.2 23.9 23.9S196 242 196 242s5.5-30.5-29.5-37.7zm143.1 1.9c-13.3-3.2-15.8-4.5-35.9 0-34.8 7.9-29.9 35.8-29.9 35.8s40 3.7 59.7-5.9c19.7-9.7 23.9-23.9 23.9-23.9s-9.2-3.9-17.8-6z"/></svg>