<svg id="Layer_1" xmlns="http://www.w3.org/2000/svg" viewBox="0 0 440 440"><style>.st0{fill:#25B685;} .st1{fill:#FFFFFF;}</style><circle class="st0" cx="220" cy="220" r="192.5"/><path class="st1" d="M314.3 334.3c-4.2 0-8.2-1.8-11-4.6l-42.1-42c-14.4 9.9-31.6 15.2-49 15.2-47.7 0-86.5-38.7-86.5-86.5s38.7-86.5 86.5-86.5 86.5 38.7 86.5 86.5c0 17.4-5.3 34.7-15.2 48.9l42.1 42.1c2.9 2.9 4.5 6.8 4.5 11-.1 8.7-7.2 15.9-15.8 15.9zM212.2 161.4c-30.4 0-55 24.6-55 55s24.6 55 55 55 55-24.6 55-55-24.8-55-55-55z"/></svg>