<svg xmlns="http://www.w3.org/2000/svg" viewBox="0 0 319.8 269.58"><defs><style>.cls-1{fill:none;}.cls-2{fill:#2e263b;}.cls-3{clip-path:url(#clip-path);}.cls-4{fill:#1b1724;}.cls-5{opacity:0.1;}.cls-6{fill:url(#linear-gradient);}</style><clipPath id="clip-path" transform="translate(0 -18.28)"><path class="cls-1" d="M0 36.63h319.8v250.24H0z"/></clipPath><linearGradient id="linear-gradient" x1="159.9" y1="245.91" x2="159.9" y2="18.28" gradientUnits="userSpaceOnUse"><stop offset="0" stop-color="#1b1724" stop-opacity="0"/><stop offset=".32" stop-color="#1b1724" stop-opacity=".16"/><stop offset=".74" stop-color="#1b1724" stop-opacity=".61"/><stop offset="1" stop-color="#1b1724"/></linearGradient></defs><title>backdrop-content3</title><g id="Layer_2" data-name="Layer 2"><g id="trees"><path class="cls-2" d="M40.88 137.13l2.34-39.41q7 17.61 13 35.41l-13.93 4.3a2.4 2.4 0 0 1-1.41.13c-.44-.15-.48-.73 0-.76M26 142.52l3.3-29.36a170.2 170.2 0 0 0 10.47 23.78c.23.44.44 1 0 1.32a2.18 2.18 0 0 1-.85.28l-13.77 2.62"/></g></g><g id="Layer_1" data-name="Layer 1"><path class="cls-3 cls-4" d="M159.8 116.35A394.12 394.12 0 0 0 0 149.96v119.62h319.8V150.06a394.08 394.08 0 0 0-160-33.71z" id="earth"/><path class="cls-5 cls-6" d="M319.07 51.72c-5.16-6.08-9.76-12.47-18.41-17.37s-22.7-8-34.58-5.47c-11.44 2.44-18.56 9.47-30.85 10.24-21.92 1.36-30.39-17.3-52.28-18.81-13-.89-23.79 4.69-32.8 9.59s-21.39 10-33.81 7.86a36.79 36.79 0 0 1-11.54-4.2C88 24.36 80.57 11.24 62.48 2.72A26.06 26.06 0 0 0 52.87 0C45.71-.42 39.98 2.88 35.8 5.9 26.19 12.88 12.78 24.72 0 36.72v190.91c57.69-1.18 114.61-4.54 156.19-3.71 43.52.87 103.66 2.81 163.61 1V52.51c-.24-.28-.5-.55-.73-.79z"/></g></svg>