<svg id="Layer_1" data-name="Layer 1" xmlns="http://www.w3.org/2000/svg" xmlns:xlink="http://www.w3.org/1999/xlink" viewBox="0 0 319.8 283.21"><defs><style>.cls-1{fill:none;}.cls-2{opacity:0.2;}.cls-3{fill:url(#linear-gradient);}.cls-4{opacity:0.3;}.cls-5{fill:url(#linear-gradient-2);}.cls-6{clip-path:url(#clip-path);}.cls-7{fill:#1b1724;}</style><linearGradient id="linear-gradient" x1="58.18" y1="45.17" x2="58.18" y2="201.15" gradientUnits="userSpaceOnUse"><stop offset="0" stop-color="#243872"/><stop offset="0.58" stop-color="#243973" stop-opacity="0.44"/><stop offset="1" stop-color="#243974" stop-opacity="0"/></linearGradient><linearGradient id="linear-gradient-2" x1="254.43" y1="4.65" x2="254.43" y2="212.93" gradientUnits="userSpaceOnUse"><stop offset="0" stop-color="#243872"/><stop offset="0.58" stop-color="#243871" stop-opacity="0.44"/><stop offset="1" stop-color="#243871" stop-opacity="0"/></linearGradient><clipPath id="clip-path" transform="translate(0 -4.65)"><rect class="cls-1" y="36.63" width="319.8" height="250.24"/></clipPath></defs><title>backdrop-content1</title><g id="trees"><g class="cls-2"><path class="cls-3" d="M114.61,153.3c-2-5-4.36-10.44-9.11-13-2.66-1.45-5.79-1.83-8.55-3.09-2-.92-5.22-5.86-6.56-9.6a1.56,1.56,0,0,0-2.9-.07c-1.35,3.08-2.31,7.17-4.37,8.48-3-5.15-7.24-22.28-10.26-27.43-3.47,2.77-5.23,18.15-7.48,22C60.73,123.68,51.46,92,49.77,83.85c-3.8,5.79-6.41,20-10.22,25.77-3.29-26.67-4.18-37.77-7.47-64.44C22.64,65.68,21.87,73.42,13.89,91.5,12.86,80.86,7,66.62,6,56A103.48,103.48,0,0,0,1,69.3V201.15c37.28-12.1,73.88-26.38,110.32-40.86,1.59-.63,3.35-1.45,3.88-3.07A5.9,5.9,0,0,0,114.61,153.3Z" transform="translate(0 -4.65)"/></g><g class="cls-4"><path class="cls-5" d="M306.42,84.15c-2.27-5.62-4.82-15.5-7.83-21.46-1,10.64-6.86,24.88-7.89,35.52-8-18.08-8.75-25.82-18.19-46.33-3.29,26.67-4.18,37.77-7.47,64.44-3.8-5.79-6.41-20-10.22-25.77-1.69,8.1-11,39.83-15.61,46.69-2.26-3.82-4-19.2-7.48-22-3,5.15-7.24,22.28-10.26,27.43-2.06-1.31-3-5.4-4.37-8.48a1.56,1.56,0,0,0-2.9.07c-1.34,3.74-4.53,8.68-6.56,9.6-2.76,1.26-5.89,1.63-8.55,3.09-4.75,2.59-7.1,8-9.11,13a5.9,5.9,0,0,0-.59,3.92c.53,1.62,2.29,2.44,3.88,3.07,41.66,16.55,83.51,32.86,126.36,45.92V4.65C313.87,28.72,309.61,59.78,306.42,84.15Z" transform="translate(0 -4.65)"/></g></g><g id="earth"><g class="cls-6"><path class="cls-7" d="M159.8,134.63A394.12,394.12,0,0,0,0,168.24V287.86H319.8V168.34A394.08,394.08,0,0,0,159.8,134.63Z" transform="translate(0 -4.65)"/></g></g></svg>