<svg id="Layer_1" data-name="Layer 1" xmlns="http://www.w3.org/2000/svg" xmlns:xlink="http://www.w3.org/1999/xlink" viewBox="0 0 319.99 330.87"><defs><style>.cls-1,.cls-2{fill:none;}.cls-2{clip-rule:evenodd;}.cls-3{opacity:0.3;}.cls-4{fill:#2d2339;}.cls-5{fill:#353042;}.cls-6{fill:#1b1724;}.cls-7{opacity:0.5;}.cls-8{opacity:0.25;fill:url(#linear-gradient);}.cls-9{opacity:0.07;fill:url(#linear-gradient-2);}.cls-10{clip-path:url(#clip-path);}.cls-11{clip-path:url(#clip-path-2);}.cls-12{clip-path:url(#clip-path-3);}.cls-13,.cls-15,.cls-17,.cls-19,.cls-21{fill:#fee6d7;}.cls-13{opacity:0.08;}.cls-14{clip-path:url(#clip-path-4);}.cls-15{opacity:0.22;}.cls-16{clip-path:url(#clip-path-6);}.cls-17{opacity:0.4;}.cls-18{clip-path:url(#clip-path-8);}.cls-19{opacity:0.85;}.cls-20{clip-path:url(#clip-path-10);}.cls-22{clip-path:url(#clip-path-12);}.cls-23{fill:#fff;}</style><linearGradient id="linear-gradient" x1="159.99" y1="393.52" x2="159.99" y2="85.74" gradientUnits="userSpaceOnUse"><stop offset="0" stop-color="#1b1724" stop-opacity="0"/><stop offset=".32" stop-color="#1b1724" stop-opacity=".16"/><stop offset=".74" stop-color="#1b1724" stop-opacity=".61"/><stop offset="1" stop-color="#1b1724"/></linearGradient><linearGradient id="linear-gradient-2" x1="219.79" y1="347.38" x2="219.79" y2="48.67" xlink:href="#linear-gradient"/><clipPath id="clip-path" transform="translate(0 -6.89)"><path class="cls-1" d="M40.86 91.51L16.58-73.57l234.21 2.17-6.41 120.54c-4.92 4-79.9 46.63-79.9 46.63-6.76 4-44.55 19.24-44.55 19.24L97 96.44s-25-21.31-56.14-4.93z"/></clipPath><clipPath id="clip-path-2" transform="translate(0 -6.89)"><path class="cls-2" d="M210.61 130.9c-7.07 12.21-17.12 22.94-29.33 30-11.84 6.85-26 9.52-40.65 9.52s-28.42-3.34-40.26-10.19a80.56 80.56 0 0 1-29.14-29.67c-6.85-11.83-12.63-25.4-12.63-40.06a82.8 82.8 0 0 1 11.25-40.86c7.07-12.21 18.86-20.86 31.07-27.92C112.76 14.86 126 8.85 140.63 8.85a81.86 81.86 0 0 1 40.59 11.34c12.21 7.07 22.2 17.77 29.26 30 6.85 11.84 12 25.67 12 40.33s-5.02 28.55-11.87 40.38z"/></clipPath><clipPath id="clip-path-3" transform="translate(0 -6.89)"><path class="cls-1" d="M-235.36-167.29h751.55v422.74h-751.55z"/></clipPath><clipPath id="clip-path-4" transform="translate(0 -6.89)"><path class="cls-2" d="M200.81 125.24c-6.16 10.65-14 20.6-24.67 26.76-10.32 6-22.73 8.34-35.51 8.34s-25.25-2.26-35.57-8.23a72.83 72.83 0 0 1-26.38-25.85c-6-10.32-8.69-23-8.69-35.77S74.32 66 80.29 55.67c6.16-10.65 14.49-20 25.14-26.14a68.73 68.73 0 0 1 70.24.3c10.64 6.17 20.38 14.47 26.54 25.12 6 10.32 8.8 22.77 8.8 35.55s-4.23 24.42-10.2 34.74z"/></clipPath><clipPath id="clip-path-6" transform="translate(0 -6.89)"><path class="cls-2" d="M194.76 121.75c-5.57 9.63-12.61 18.42-22.23 24-9.33 5.4-20.34 7.25-31.89 7.25s-23-1.08-32.34-6.48C98.67 140.94 91.56 131.67 86 122c-5.4-9.33-7.77-20-7.77-31.55a60.88 60.88 0 0 1 8.56-31.09C92.35 49.79 99.37 41.27 109 35.7c9.33-5.4 20.08-9.77 31.64-9.77s22.12 4.68 31.45 10.07c9.63 5.57 18.45 12.84 24 22.47 5.4 9.33 8.07 20.47 8.07 32s-4 21.95-9.4 31.28z"/></clipPath><clipPath id="clip-path-8" transform="translate(0 -6.89)"><path class="cls-2" d="M184.82 122c-8.18 11.48-20 20.61-35 23.13s-29.17-2.24-40.65-10.42S87.78 114.8 85.26 99.8 87.85 70.2 96 58.72s20.64-19.14 35.63-21.66a53 53 0 0 1 40.29 9.47c11.48 8.18 20.57 19.83 23.09 34.82S193 110.5 184.82 122z"/></clipPath><clipPath id="clip-path-10" transform="translate(0 -6.89)"><path class="cls-2" d="M177.6 127.47a52.85 52.85 0 0 1-37 15.23c-14.2 0-27.29-6.29-36.6-15.59S89.95 104.7 89.95 90.5s4.57-27.5 13.87-36.81 22.61-14.33 36.81-14.33 27.67 4.86 37 14.16 14.11 22.78 14.11 37-4.84 27.64-14.14 36.95z"/></clipPath><clipPath id="clip-path-12" transform="translate(0 -6.89)"><path class="cls-2" d="M176.5 126.39a51.27 51.27 0 0 1-35.87 14.77A50.74 50.74 0 0 1 105.12 126c-9-9-13.67-21.73-13.67-35.51s4.44-26.68 13.46-35.71 21.95-13.88 35.73-13.88 26.85 4.71 35.88 13.74 13.69 22.1 13.69 35.88-4.68 26.84-13.71 35.87z"/></clipPath></defs><title>backdrop-reward</title><g id="landscape"><path class="cls-3 cls-4" d="M108.51 255.92c-2-4.21-4.36-8.74-9.11-10.91-2.66-1.22-5.79-1.53-8.55-2.59-2-.77-5.22-4.91-6.56-8a1.69 1.69 0 0 0-2.9-.06c-1.35 2.58-2.31 6-4.37 7.1-3-4.31-7.24-18.66-10.26-23-3.47 2.32-5.23 15.2-7.48 18.4-4.64-5.74-13.92-32.32-15.61-39.11-3.8 4.85-6.41 16.73-10.22 21.58-3.29-22.34-4.18-31.64-7.47-54-9.44 17.2-10.22 23.68-18.19 38.78-1-8.68-6.55-20.21-7.79-29V294.6c35.52-9.83 70.44-21.26 105.22-32.83 1.59-.53 3.35-1.21 3.88-2.57a4.25 4.25 0 0 0-.59-3.28z"/><path class="cls-5" d="M224.42 178.97a5.75 5.75 0 0 0-3-1.39c-23.66-5.69-48.25-8.87-72.36-5.59-37.24 5.06-70.51 24.93-105 39.87-14.42 6.25-29.17 11.68-44.06 16.71v102.3h114.55l34.23-40.16c5.4-6.34 11.12-13.54 10.76-21.86-.2-4.69-2.38-9.16-2.33-13.86.08-8 6.42-14.42 12.31-19.87l52.41-48.48c2.21-2.03 4.53-5.46 2.49-7.67z"/><path class="cls-6" d="M205.18 322.11c-.22-5.83.61-11.39.7-17.23.21-12.94 9.74-25.07 10.52-38 .66-10.89-2.72-22.41 1.61-32.43 1.36-3.15 3.44-6 4.4-9.27s.74-6.64.53-10L221 184.71a8.88 8.88 0 0 0-4.67.57c-10.93 3.54-21.91 7.09-32.15 12.3-24.16 12.28-42.9 33.08-58.76 55S96 298.21 78.82 319.17c-3.25 4-6.61 7.82-10 11.7h136.75c-.14-2.58-.27-5.65-.39-8.76z"/><path class="cls-3 cls-5" d="M206.9 223.79c-2.58.91-2.74 4.9-2.93 7.63-.26 3.75-1 7.6-3.07 10.71-3 4.48-8.41 6.65-12.82 9.79a1.91 1.91 0 0 0-.82.93 2 2 0 0 0 .4 1.49c2.4 4 4.32 5.61 7.65 8.83.63-14.54 7.71-11.06 11.07-17.58a11.05 11.05 0 0 0 1.43-7.67c-.28-4.11-.91-14.13-.91-14.13z"/><path class="cls-6" d="M220.93 182.83l.12 1.88a3.56 3.56 0 0 1 1.17.51z"/><path class="cls-7 cls-4" d="M193.43 316.54c-1.84 2.59-4.13 8.86-6.32 14.33h12.18c-1.61-5.01-3.29-12.61-5.86-14.33zM311.4 267.33c-2.94-2.87-4.78-22.05-7.72-24.93-1.93 6-8.19 25.16-10.13 31.18-5.65-12.78-6.35-36.4-12-49.18-5.88 20-10.21 50.06-13.44 70.45-2-5.87-4.82-19.8-7.83-24.72-1 8.79-5.71 22.32-7.89 32.32-8-14.93-7.75-23.32-17.19-40.25-3.29 22-5.18 33.18-8.47 55.2-3.8-4.78-6.41-16.49-10.22-21.27-1.44 5.69-8.35 25.45-13.24 34.73H320v-91.75c-3 10.26-6.7 21.82-8.6 28.22z"/><path class="cls-8" d="M248.73 156.58c-11.84 3.11-24 5.65-36.1 4.23-14-1.64-27.14-8.51-39.63-15.92a463.11 463.11 0 0 1-60.41-42.78C101.42 92.83 90 82.65 76.38 79.74c-13.89-3-28 2-41.46 7L0 99.59v231.28h320V130.01a384.9 384.9 0 0 1-71.27 26.57z"/><path class="cls-9" d="M256.47 62.11c-6.88-2.74-13.89-5.49-21.19-5.88-15.21-.8-29.15 8.6-42.48 16.87-22.79 14.14-48.29 25.9-73 35 2.19 1.67 4.42 3.48 6.53 5.14 4.51 3.52 9.84 7.39 14.22 10.55 5 3.61 10 6.69 15.54 10.59 9.93 6.23 18.48 11.33 28.94 17.49 9.29 4.4 16.91 7.4 27.49 8.9 10.87 1.06 19-.55 29.89-2.68a301.81 301.81 0 0 0 41.43-12.76c9.89-3 25.83-10.48 36-15.42v-41.8q-31.6-13.31-63.37-26z"/></g><g class="cls-10 cls-7" id="sun"><path class="cls-11 cls-12 cls-13" d="M56.64 0h167.77v165.49H56.64z"/><path class="cls-14 cls-12 cls-15" d="M68.03 11.18h144.94v144.24H68.03z"/><path class="cls-16 cls-12 cls-17" d="M76.26 17.08h129.87v130.97H76.26z"/><path class="cls-18 cls-12 cls-19" d="M82.66 27.45h115.03v113.4H82.66z"/><path class="cls-20 cls-12 cls-21" d="M87.99 30.51h105.69v107.25H87.99z"/><path class="cls-22 cls-12 cls-23" d="M89.5 32.05h102.66v104.18H89.5z"/></g></svg>