<svg xmlns="http://www.w3.org/2000/svg" viewBox="0 0 319.8 171.9"><defs><style>.cls-1{fill:none;}.cls-2{fill:#2e263b;}.cls-3{clip-path:url(#clip-path);}.cls-4{fill:#1b1724;}</style><clipPath id="clip-path" transform="translate(0 -3.22)"><path class="cls-1" d="M0-76.12h319.8v250.24H0z"/></clipPath></defs><title>backdrop-content2</title><g id="Layer_2" data-name="Layer 2"><g id="trees"><path class="cls-2" d="M40.88 39.45L43.22 0q7 17.61 13 35.41l-13.93 4.3a2.4 2.4 0 0 1-1.41.13c-.44-.15-.48-.73 0-.76M26 44.84l3.3-29.36a170.2 170.2 0 0 0 10.42 23.78c.23.44.44 1 0 1.32a2.18 2.18 0 0 1-.85.28l-13.79 2.62"/></g></g><g id="Layer_1" data-name="Layer 1"><path class="cls-3 cls-4" d="M159.8 18.66A394.12 394.12 0 0 0 0 52.28V171.9h319.8V52.38a394.08 394.08 0 0 0-160-33.72z" id="earth"/></g></svg>