<svg xmlns="http://www.w3.org/2000/svg" viewBox="0 0 319.8 231.83"><defs><style>.cls-1,.cls-2{fill:none;}.cls-1{clip-rule:evenodd;}.cls-3{fill:#2e263b;}.cls-4{clip-path:url(#clip-path);}.cls-5{clip-path:url(#clip-path-2);}.cls-10,.cls-12,.cls-14,.cls-6,.cls-8{fill:#fee6d7;}.cls-6{opacity:0.08;}.cls-7{clip-path:url(#clip-path-3);}.cls-8{opacity:0.22;}.cls-9{clip-path:url(#clip-path-5);}.cls-10{opacity:0.4;}.cls-11{clip-path:url(#clip-path-7);}.cls-12{opacity:0.85;}.cls-13{clip-path:url(#clip-path-9);}.cls-15{clip-path:url(#clip-path-11);}.cls-16{fill:#fff;}.cls-17{fill:#482c48;}.cls-18{fill:#f8a382;}.cls-19{fill:#101e30;}.cls-20{fill:#172d54;}.cls-21{clip-path:url(#clip-path-13);}.cls-22{fill:#1b1724;}</style><clipPath id="clip-path" transform="translate(0 -19.4)"><path class="cls-1" d="M245.81 192.25c-9.14 15.8-22.15 29.68-37.95 38.82-15.32 8.86-33.62 12.31-52.59 12.31s-36.77-4.32-52.09-13.18a104.23 104.23 0 0 1-37.7-38.39c-8.86-15.32-16.34-32.87-16.34-51.81A107.13 107.13 0 0 1 63.7 87.11c9.14-15.8 24.39-27 40.2-36.13 15.32-8.86 32.41-16.64 51.38-16.64s37.2 5.81 52.52 14.67c15.8 9.14 28.72 23 37.86 38.79 8.84 15.32 15.47 33.2 15.47 52.2s-6.46 36.93-15.32 52.25z"/></clipPath><clipPath id="clip-path-2" transform="translate(0 -19.4)"><path class="cls-2" d="M-331.17-193.55h972.3v546.92h-972.3z"/></clipPath><clipPath id="clip-path-3" transform="translate(0 -19.4)"><path class="cls-1" d="M233.13 184.92c-8 13.78-18.14 26.65-31.92 34.62-13.35 7.73-29.4 10.79-45.94 10.79s-32.67-2.92-46-10.65c-13.78-8-26.15-19.67-34.12-33.44-7.75-13.35-11.28-29.73-11.28-46.24s5.6-31.71 13.33-45.07c8-13.78 18.74-25.85 32.52-33.82a91 91 0 0 1 45.55-12.31c16.54 0 32 5 45.32 12.68 13.78 8 26.38 18.73 34.35 32.5 7.73 13.35 11.39 29.46 11.39 46s-5.48 31.59-13.2 44.94z"/></clipPath><clipPath id="clip-path-5" transform="translate(0 -19.4)"><path class="cls-1" d="M225.29 180.4c-7.21 12.45-16.31 23.83-28.77 31-12.07 7-26.31 9.38-41.26 9.38s-29.77-1.4-41.84-8.38c-12.45-7.21-21.65-19.2-28.86-31.65-7-12.07-10.05-25.86-10.05-40.81A78.76 78.76 0 0 1 85.6 99.75c7.21-12.45 16.29-23.47 28.74-30.68 12.07-7 26-12.64 40.93-12.64s28.63 6 40.7 13c12.45 7.21 23.86 16.61 31.07 29.07 7 12.07 10.44 26.49 10.44 41.44s-5.2 28.39-12.19 40.46z"/></clipPath><clipPath id="clip-path-7" transform="translate(0 -19.4)"><path class="cls-1" d="M212.43 180.7c-10.58 14.85-25.9 26.66-45.3 29.92s-37.74-2.9-52.59-13.48S86.9 171.41 83.64 152 87 113.71 97.56 98.86s26.7-24.76 46.1-28 37.28 1.68 52.13 12.26 26.61 25.65 29.87 45.05-2.66 37.68-13.23 52.53z"/></clipPath><clipPath id="clip-path-9" transform="translate(0 -19.4)"><path class="cls-1" d="M203.1 187.8a68.37 68.37 0 0 1-47.83 19.7c-18.37 0-35.31-8.13-47.35-20.17S89.7 158.35 89.7 140s5.92-35.58 18-47.62 29.25-18.54 47.62-18.54 35.8 6.28 47.84 18.32 18.2 29.44 18.2 47.84-6.23 35.76-18.26 47.8z"/></clipPath><clipPath id="clip-path-11" transform="translate(0 -19.4)"><path class="cls-1" d="M201.68 186.4a66.34 66.34 0 0 1-46.4 19.11c-17.82 0-34.26-7.89-45.94-19.57S91.65 157.82 91.65 140s5.74-34.52 17.42-46.2 28.38-18 46.2-18 34.73 6.1 46.42 17.78S219.4 122.17 219.4 140s-6.04 34.72-17.72 46.4z"/></clipPath><clipPath id="clip-path-13" transform="translate(0 -19.4)"><path class="cls-2" d="M0 0h319.8v250.24H0z"/></clipPath></defs><title>backdrop-content4</title><g id="Layer_2" data-name="Layer 2"><g id="trees"><path class="cls-3" d="M275 104.94l15.67-36.29q.58 18.95.11 37.72l-14.56-.71a2.4 2.4 0 0 1-1.37-.36c-.36-.29-.2-.85.27-.71M259.18 104.91l13.13-26.46a170.2 170.2 0 0 0 1.69 25.92c.07.49.08 1.07-.47 1.23a2.18 2.18 0 0 1-.9 0l-13.84-2.24"/></g><g id="sun"><path class="cls-4 cls-5 cls-6" d="M46.61 12.4h217.05v214.11H46.61z"/><path class="cls-7 cls-5 cls-8" d="M61.34 26.86h187.52v186.61H61.34z"/><path class="cls-9 cls-5 cls-10" d="M71.99 34.51h168.02v169.44H71.99z"/><path class="cls-11 cls-5 cls-12" d="M80.27 47.92h148.82v146.71H80.27z"/><path class="cls-13 cls-5 cls-14" d="M87.16 51.88h136.73v138.75H87.16z"/><path class="cls-15 cls-5 cls-16" d="M89.12 53.87h132.81v134.78H89.12z"/></g><g id="tree"><path class="cls-17" d="M38 36.74c-.16-2.37-1.64-4.22-2.52-6.3a.88.88 0 0 0 .24-1c0-.29 0-.58-.06-.87-.06-1.44.46-2.83.45-4.24 0-3.94-.62-7.84-.84-11.77-.11-1.93-.34-3.85-.49-5.78-.09-1.05.57-1.62 1.48-1.31.1.57.19 1.15.31 1.72.49 2.39.46 4.85 1.15 7.21.53 1.81 1.08 3.61 1.66 5.4.41 1.25.91 2.47 1.37 3.7.11.66.26 1.32.33 2 .1.93.46.84 1 .29.72.86.56 2 .93 3l.52.25-.39.48a1.37 1.37 0 0 1-1.6-.09 57.79 57.79 0 0 0 1 6.92l-.07.21-.27.04c-.82-2.49-1.43-5-2-7.59-.16 1.41.11 2.81 0 4.22-.05.55-.1 1-1 1.05 1 .25 1.25.9.71 1.45-.2.21-.39.33-.19.63h-.27a2.48 2.48 0 0 0 .6 3.79c.63.27.47.77.6 1.19a.38.38 0 0 1-.3.51 1 1 0 0 1-1.14-.31c-.31-.32-.7-.58-.7-1.09a5.62 5.62 0 0 0-.22-2.56 6.13 6.13 0 0 0 .16-1c-.05-.53-.27-.29-.45-.15zm.6-1.5c0 .21-.41.41.05.68.1-.24.16-.45-.04-.67z"/><path class="cls-3" d="M43 28.73c-.37-1-.21-2.11-.93-3a11 11 0 0 0 2-6.71c.11-2.58.64-5.13.36-7.73-.09-.8.39-1.28 1.26-1.22a5 5 0 0 1 .19.95c0 2.91.17 5.81 0 8.72a41.71 41.71 0 0 1-.34 5.51c-.22 1.63-.72 3.05-2.54 3.48z"/><path class="cls-18" d="M36.26 5.46a24.4 24.4 0 0 0-.46-4.25 1 1 0 0 0 .19-.73 2.53 2.53 0 0 1 .92 1.58c.87 4.26 2.12 8.45 2.67 12.77.37 2.89.86 5.76 1.18 8.66-.46-1.23-1-2.45-1.37-3.7-.59-1.79-1.14-3.59-1.66-5.4-.69-2.35-.66-4.82-1.15-7.21-.13-.58-.22-1.15-.32-1.72zM44.68 102.73l.15.81h-.13c-1.53-3.24-3.08-6.46-4.57-9.72a23.25 23.25 0 0 1-1.29-4.39 44.35 44.35 0 0 0-1.79-5c.32-.35-.13-.73.05-1.13a8.53 8.53 0 0 1 1.5 3c1 2.52 2.27 4.95 3.37 7.43a22.63 22.63 0 0 1 1.3 3.87c.29 1.2.66 2.37 1 3.56a5.32 5.32 0 0 0 .41 1.57zM43 28.73c1.83-.43 2.34-1.85 2.62-3.46a41.71 41.71 0 0 0 .34-5.51c.13-2.91 0-5.81 0-8.72a5 5 0 0 0-.19-.95l-.1-.68a2.48 2.48 0 0 1 1 2c.19 3.47.77 6.9.81 10.38a3.25 3.25 0 0 1-.16 1.22 6.68 6.68 0 0 0-.64 2.59 5 5 0 0 1-3.18 3.43z"/><path class="cls-3" d="M50.33 80.41a2.79 2.79 0 0 1-.67-1.67c-.84-3.34-1.61-6.7-2.41-10.06a.46.46 0 0 0-.18-.78 4.44 4.44 0 0 1-.44-1.68c.8-.36.16-.92.16-1.38s-.2-.66-.67-.53l-.34-1.52a1.13 1.13 0 0 0-.4-1.72l-.15-.76c.51-.09.52-.45.34-.79-.41-.77-.18-1.61-.34-2.4a.56.56 0 0 1 .38-.7c1.47 8.02 3.33 15.96 4.72 23.99z"/><path class="cls-18" d="M30 42.94c1.34 1.19 2.93 2.06 4.34 3.16a15.78 15.78 0 0 1-9.22-6.84c-.17-1-1-1.81-1.17-2.88.54.13.72.59.9 1a29.4 29.4 0 0 0 2 3.17 7 7 0 0 0 2.37 1.78c.34.14.67.27.78.61z"/><path class="cls-3" d="M53.54 95.12l-.25-.78c-.45-2-.9-4-1.33-6.06-.07-.33-.29-.67-.08-1l1.82 7.32z"/><path class="cls-18" d="M44.68 102.73a5.32 5.32 0 0 1-.41-1.55c.42 0 .22.76.75.66.55.65.46 1.49.75 2.36a1 1 0 0 1-.48-1c.05-.42-.18-.6-.61-.47z"/><path class="cls-3" d="M46.68 25.6a6.68 6.68 0 0 1 .58-2.56 2.51 2.51 0 0 1-.58 2.56zM42.83 39.66c0-.16-.06-.35.13-.46.36.55.72 1.09.25 1.76l.22 1.33c.6.49.52 1.23.63 1.86.26 1.42.4 2.86.59 4.29a.39.39 0 0 1-.25.46l.14.76a3.47 3.47 0 0 0 .21 1.56L45 52.6a2.07 2.07 0 0 0 .18 1.18l.42 2.7a.56.56 0 0 0-.38.7c.16.79-.07 1.64.34 2.4.19.35.18.7-.34.79a87.25 87.25 0 0 1-1.76-11.32c-.23-3-.48-6-.71-9a1.45 1.45 0 0 1 .08-.39z"/><path class="cls-3" d="M44.75 51.22a3.47 3.47 0 0 1-.21-1.56c.36.48.7.94.21 1.56zM45.18 53.73A2.07 2.07 0 0 1 45 52.6c.35.3.55.67.18 1.13zM42.2 36.6l.24-.06.19.55c.39.35.63.72.16 1.18v.33a4.9 4.9 0 0 1-.59-2z"/><path class="cls-19" d="M33.62.95c.31-.18.23-.57.27-1a3.78 3.78 0 0 1 1.9 1.2 24.4 24.4 0 0 1 .46 4.25c-.91-.31-1.56.26-1.48 1.31.16 1.93.39 3.85.49 5.78.22 3.93.81 7.83.84 11.77 0 1.42-.51 2.8-.45 4.24 0 .29 0 .58.06.87a.88.88 0 0 1-.24 1 .88.88 0 0 1-.22-.93c-.3-3.81-1.05-7.56-1.47-11.35a80 80 0 0 1-.5-13.25 13.26 13.26 0 0 0-.22-2.22c-.06-.57-.16-1.25.56-1.67z"/><path class="cls-18" d="M54.63 98.95a17.56 17.56 0 0 0-.93-4.35l-.16.49-.25-.78c-.45-2-.9-4-1.33-6.06-.07-.33-.29-.67-.08-1l-.16-.76-1.15-5a.17.17 0 0 0 0-.17c.16-.17.14-.31-.09-.4l-.14-.55a2.79 2.79 0 0 1-.67-1.67c-.84-3.34-1.61-6.7-2.41-10.06a.73.73 0 0 1-.18-.78 4.43 4.43 0 0 1-.44-1.68 6.25 6.25 0 0 1-.51-1.91l-.34-1.52-.4-1.72-.15-.76a87.25 87.25 0 0 1-1.76-11.32c-.23-3-.48-6-.71-9a1.45 1.45 0 0 1 .07-.36c0-.16-.06-.35.13-.46l-.16-.53a4.9 4.9 0 0 1-.61-2c-.82-2.49-1.43-5-2-7.59-.16 1.41.11 2.81 0 4.22-.05.55-.1 1-1 1.05 1 .25 1.25.9.71 1.45-.19.2-.37.33-.2.6h-.24a2.48 2.48 0 0 0 .6 3.79c.63.27.47.77.6 1.19a.38.38 0 0 1-.3.51 1 1 0 0 1-1.14-.31c-.31-.32-.7-.58-.7-1.09a2.56 2.56 0 0 1-.22-2.56 6.12 6.12 0 0 0 .16-1c0-.46-.22-.22-.39-.08a5.41 5.41 0 0 0 .79 5.15 2 2 0 0 0 1.51.52c.54-.1.47.35.51.63q.28 2 .5 3.95c.39 3.46 1.42 6.79 2.09 10.19.4 2 .79 4.08 1.28 6.09.19.79.1 1.18-.76 1.2l.22.11a1.81 1.81 0 0 1 1.18 1.93c0 .08-.34.05-.52.07v.19a1.31 1.31 0 0 1 .82 1.11c.24 1.11.48 2.23.77 3.33A1.08 1.08 0 0 1 46 72.5c-.46.27-.82-.14-1.17-.44-1.36-1.2-1.41-2.74-1.18-4.37h-.22a4.53 4.53 0 0 0 1.34 4.91 1.24 1.24 0 0 0 1.59.29c.17-.1.31-.25.44 0a3.54 3.54 0 0 1-.49 2 1.19 1.19 0 0 1-1.41-.34c-.37-.4-.69-.85-1-1.28l-.4.1a5.38 5.38 0 0 0 .84 1.37c.22.14.43.29.65.42.78.44 1.51.58 2-.38a2.37 2.37 0 0 1 .51 1.29c1.31 5.94 2.6 11.89 3.92 17.83a14.89 14.89 0 0 0 .86 3.09m0 0l.43 1.91c.11.37.19.76.32 1.12.33.9.81 1.65 1.95 1.54.34-.39.77-.8.31-1.34a7 7 0 0 1-.69-1.27M40.34 39.36c0 .48-.37.35-.63.17a1.6 1.6 0 0 1-.56-1.49 3.19 3.19 0 0 1 .49-1.74c.14-.2.38-.56.46 0a21.85 21.85 0 0 1 .24 3.06z"/><path class="cls-17" d="M52.31 96.98l.43 1.91c-.49.75-.06 1.52-.06 2.28 0 .39.36.79 0 1.2-.9-1.9-2.47-3.23-3.84-4.71s-3-3-3.18-5.3c-.3-3.69-1.52-7.27-1.13-11a20 20 0 0 0-.42-5.38c-.07-.43-.15-.84.2-1.18.22.14.43.29.65.42.78.44 1.51.58 2-.38a2.37 2.37 0 0 1 .51 1.29c1.31 5.94 2.6 11.89 3.92 17.83a14.89 14.89 0 0 0 .92 3.02zM38.8 41.89a2 2 0 0 0 1.51.52c.54-.1.47.35.51.63q.28 2 .5 3.95c.39 3.46 1.42 6.79 2.09 10.19.4 2 .79 4.08 1.28 6.09.19.79.1 1.18-.76 1.2-.31.22-.68.37-.85.75l-.26.27-.59 1.11c-.91-2.07-1.1-4.33-1.7-6.48a41.38 41.38 0 0 1-1.37-13.64 23.87 23.87 0 0 0-.36-4.59z"/><path class="cls-20" d="M55.38 103.48a54.57 54.57 0 0 1 1.09 6.57c-2.08.06-3.26-.93-3.4-2.86a5.38 5.38 0 0 1 2.31-3.71z"/><path class="cls-18" d="M42.23 66.6l.6-1.16c.23.9-.55 1.67-.31 2.57a7 7 0 0 0 .82 4.3l.54.9-.4.1a8 8 0 0 1-1.4-5.66c.03-.31.1-.65.15-1.05zM35.21 46.6a.77.77 0 0 1-.73-.4c.36-.17.59.07.83.23zM35.31 46.44l.62.28c-.3.29-.51.06-.72-.11z"/><path class="cls-3" d="M39.65 36.31c.14-.2.39-.58.47-.06a21.85 21.85 0 0 1 .22 3.1c0 .48-.37.35-.63.17a1.6 1.6 0 0 1-.56-1.49 3.18 3.18 0 0 1 .5-1.75zM38.46 40.41a2.56 2.56 0 0 1-.22-2.56 5.62 5.62 0 0 1 .22 2.56zM38.61 35.25c.2.22.14.43.05.68-.46-.28-.05-.47-.05-.68zM44.84 66.77a1.31 1.31 0 0 1 .82 1.11c.24 1.11.48 2.23.77 3.33A1.08 1.08 0 0 1 46 72.5c-.46.27-.82-.14-1.17-.44-1.36-1.2-1.41-2.74-1.18-4.37a1.57 1.57 0 0 1 1.19-.92zM46.12 64.32c.47-.13.67.13.67.53s.64 1-.16 1.38a6.25 6.25 0 0 1-.51-1.91z"/><path class="cls-18" d="M44.84 66.77a1.57 1.57 0 0 0-1.18.92h-.22c.16-.74.48-1.28 1.37-1.15z"/><path class="cls-3" d="M45.38 61.08a1.13 1.13 0 0 1 .4 1.72zM47.07 67.9a.46.46 0 0 1 .18.78.73.73 0 0 1-.18-.78z"/><path class="cls-18" d="M44.15 64.6c-.32.28-.58.66-1.07.64.17-.38.54-.53.85-.75z"/><path class="cls-18" d="M43.09 65.21c0 .22 0 .33-.26.27z"/><path class="cls-19" d="M45 101.84c-1.38-6.69-2.42-13.45-3.46-20.2S39.7 68.3 38.32 61.7a69.77 69.77 0 0 1-1.12-9.66 1.39 1.39 0 0 0-1-1.45c-1.55-.59-3.08-1.23-4.63-1.81a15.31 15.31 0 0 1-6.79-5.48c-2.25-3-4.53-5.93-6.63-9a12.55 12.55 0 0 1-.93-1.59 1 1 0 0 1 .26-1.24.9.9 0 0 1 1.17 0c1.26.87 1.95 2.22 3.2 3.21a7.19 7.19 0 0 1 3.22 4.58 15.78 15.78 0 0 0 9.22 6.84c-1.41-1.1-3-2-4.34-3.16.43-.19.75.08 1.08.26a60.83 60.83 0 0 0 5.5 2.62c0-2.29-.38-4.45-.44-6.63-.08-2.93-.66-5.82-.66-8.76.88 2.09 2.36 3.93 2.52 6.3a5.41 5.41 0 0 0 .79 5.15 23.87 23.87 0 0 1 .36 4.63 41.38 41.38 0 0 0 1.37 13.64c.6 2.15.79 4.41 1.7 6.48 0 .35-.12.7-.14 1a8 8 0 0 0 1.4 5.66 5.38 5.38 0 0 0 .84 1.37c-.35.35-.27.76-.2 1.18a20 20 0 0 1 .42 5.38c-.38 3.78.83 7.36 1.13 11 .18 2.26 1.74 3.75 3.18 5.3s2.94 2.82 3.84 4.71c.35-.41 0-.81 0-1.2 0-.76-.44-1.53.06-2.28.11.37.19.76.32 1.12.33.9.81 1.65 1.95 1.54l.36 1.54v.4a5.38 5.38 0 0 0-2.32 3.71c.14 1.93 1.32 2.92 3.4 2.86l.11.17a15.53 15.53 0 0 1 0 1.94 1.47 1.47 0 0 1-2.39 1.17c-.2-.11-.33-.26-.6-.14-.77.34-1.3-.06-1.77-.64 0 0-.1.08-.11.12-.13.71-.2 1.51-1.16 1.54s-1.05-.78-1.27-1.46c-.54-1.74-.72-3.56-1.22-5.32a32.25 32.25 0 0 0 .26 5.73c-.56-.53-.39-1.12-.64-1.49-.82.29-1.32 1.23-2.33 1.08-.48-.07-.33.24-.31.48 0 .65.09 1.29.12 1.94a1.1 1.1 0 0 1-.88 1.24 1.14 1.14 0 0 1-1.37-.81 27.7 27.7 0 0 1-1.45-5.86 107.47 107.47 0 0 0-2.93-11.62c-1.67-5.38-3.85-10.57-5.41-16-.13-.44-.2-.89-.29-1.33a1.08 1.08 0 0 1 .69-1.34 1 1 0 0 1 1.37.63c.66 1.3 1.29 2.62 1.94 3.93a4.7 4.7 0 0 0 .26.41 44.35 44.35 0 0 1 1.79 5 23.25 23.25 0 0 0 1.29 4.39c1.48 3.26 3 6.48 4.57 9.72h.13l-.15-.81c.43-.14.66 0 .61.46a1 1 0 0 0 .48 1c-.27-.72-.18-1.56-.75-2.21zM35.21 46.6c.21.17.42.4.72.11l-.62-.28c-.25-.17-.47-.4-.83-.23a.77.77 0 0 0 .73.4z"/><path class="cls-3" d="M43.09 65.21zM42.51 68.05c-.24-.9.54-1.67.31-2.57.24.06.3 0 .26-.26.48 0 .74-.37 1.06-.64a1.81 1.81 0 0 1 1.18 1.93c0 .08-.34.05-.52.07-.89-.13-1.21.42-1.37 1.15a4.53 4.53 0 0 0 1.34 4.87 1.24 1.24 0 0 0 1.59.29c.17-.1.31-.25.44 0a3.54 3.54 0 0 1-.49 2 1.19 1.19 0 0 1-1.41-.34c-.37-.4-.69-.85-1-1.28l-.54-.9a7 7 0 0 1-.85-4.32z"/></g></g><g id="Layer_1" data-name="Layer 1"><path class="cls-21 cls-22" d="M159.8 78.6A394.12 394.12 0 0 0 0 112.22v119.62h319.8V112.31a394.08 394.08 0 0 0-160-33.71z" id="earth"/></g></svg>