<svg xmlns="http://www.w3.org/2000/svg" viewBox="0 0 22.43 17.2"><defs><style>.cls-1{fill:#fff;}</style></defs><title>get-started-arrow</title><g id="Layer_2" data-name="Layer 2"><path class="cls-1" d="M22 9.5l-7.3 7.3a1.28 1.28 0 0 1-1 .4 1.78 1.78 0 0 1-1-.4l-.8-.8a1.28 1.28 0 0 1-.4-1 1.78 1.78 0 0 1 .4-1l3.3-3.3H1.3A1.34 1.34 0 0 1 0 9.3V7.9a1.29 1.29 0 0 1 1.3-1.4h13.9l-3.3-3.3a1.28 1.28 0 0 1-.4-1 1.78 1.78 0 0 1 .4-1l.8-.8a1.28 1.28 0 0 1 1-.4 1.78 1.78 0 0 1 1 .4L22 7.7a1.28 1.28 0 0 1 .4 1c.1.2-.1.6-.4.8z" id="Layer_1-2" data-name="Layer 1"/></g></svg>