<svg xmlns="http://www.w3.org/2000/svg" viewBox="0 0 139.1 35.19"><defs><style>.cls-1{fill:#fffcd9;fill-rule:evenodd;}.cls-2{fill:#fffedb;}</style></defs><title>reward-header</title><g id="Layer_2" data-name="Layer 2"><g id="_5a" data-name="5a"><g id="cup_and_stars" data-name="cup and stars"><path class="cls-1" d="M13.5 19.89l-3 3.06.71 4.32a1.21 1.21 0 0 1 0 .17c0 .22-.1.43-.34.43a.65.65 0 0 1-.33-.1l-3.7-2-3.7 2a.67.67 0 0 1-.33.1c-.24 0-.35-.21-.35-.43a1.23 1.23 0 0 1 0-.17l.71-4.32-3-3.06a.68.68 0 0 1-.17-.42c0-.26.26-.36.46-.4l4.14-.63 1.85-3.93c.07-.16.21-.35.4-.35s.33.19.4.35l1.85 3.93 4.14.63c.2 0 .46.14.46.4a.65.65 0 0 1-.21.41M33.86 19.89l-3 3.06.71 4.32a1.21 1.21 0 0 1 0 .17c0 .22-.1.43-.34.43a.65.65 0 0 1-.33-.1l-3.7-2-3.7 2a.67.67 0 0 1-.33.1c-.24 0-.35-.21-.35-.43a1.23 1.23 0 0 1 0-.17l.71-4.32-3-3.06a.68.68 0 0 1-.21-.41c0-.26.26-.36.46-.4l4.22-.64 1.85-3.93c.07-.16.21-.35.4-.35s.33.19.4.35l1.85 3.93 4.14.63c.2 0 .46.14.46.4a.65.65 0 0 1-.21.41M118.52 19.89l-3 3.06.71 4.32a1.21 1.21 0 0 1 0 .17c0 .22-.1.43-.34.43a.65.65 0 0 1-.33-.1l-3.7-2-3.7 2a.67.67 0 0 1-.33.1c-.24 0-.35-.21-.35-.43a1.23 1.23 0 0 1 0-.17l.71-4.32-3-3.06a.68.68 0 0 1-.21-.41c0-.26.26-.36.46-.4l4.14-.63 1.85-3.93c.07-.16.21-.35.4-.35s.33.19.4.35l1.85 3.93 4.14.63c.2 0 .46.14.46.4a.65.65 0 0 1-.21.41M138.89 19.89l-3 3.06.71 4.32a1.21 1.21 0 0 1 0 .17c0 .22-.1.43-.34.43a.65.65 0 0 1-.33-.1l-3.7-2-3.7 2a.67.67 0 0 1-.33.1c-.24 0-.35-.21-.35-.43a1.23 1.23 0 0 1 0-.17l.71-4.32-3-3.06a.68.68 0 0 1-.21-.41c0-.26.26-.36.46-.4l4.14-.63 1.85-3.93c.07-.16.21-.35.4-.35s.33.19.4.35l1.85 3.93 4.14.63c.2 0 .46.14.46.4a.65.65 0 0 1-.21.41"/><path class="cls-2" d="M89.75 11c0 4.35-5.27 9.16-12.42 9.51a12.34 12.34 0 0 1-2.18 2.18 4.49 4.49 0 0 0-1.53 3.71 2.69 2.69 0 0 0 2.93 2.93c2.2 0 4.4 1.47 4.4 3.67v1.47a.72.72 0 0 1-.73.73H61.16a.72.72 0 0 1-.73-.73V33c0-2.2 2.2-3.67 4.4-3.67a2.69 2.69 0 0 0 2.93-2.93 4.49 4.49 0 0 0-1.53-3.71A12.34 12.34 0 0 1 64 20.5c-7.15-.34-12.42-5.15-12.42-9.51V8.06a2.2 2.2 0 0 1 2.2-2.2h6.6V3.67A3.68 3.68 0 0 1 64.09 0h13.2a3.68 3.68 0 0 1 3.67 3.67v2.2h6.6a2.2 2.2 0 0 1 2.2 2.2zM60.42 8.8h-5.86V11c0 2.25 3 5.36 7.56 6.3a20.27 20.27 0 0 1-1.7-8.5zm26.39 0h-5.86a20.27 20.27 0 0 1-1.7 8.5c4.51-.94 7.56-4.05 7.56-6.3z"/></g></g></g></svg>