<svg xmlns="http://www.w3.org/2000/svg" viewBox="0 0 291.58 91.12"><defs><style>.cls-1,.cls-3{fill:#9a98fe;}.cls-2{opacity:0.5;}.cls-3{opacity:0.2;}</style></defs><title>stars</title><g id="Layer_2" data-name="Layer 2"><g id="_1" data-name="1"><path class="cls-1" d="M63.42,19.2l.07-.09-.45.45a1.63,1.63,0,0,1-.64,0L62,19.09a1.7,1.7,0,0,1,0-.64l.45-.45-.09.07,1-.13a2.48,2.48,0,0,1,.35.3,1.25,1.25,0,0,0-2.41.66,2,2,0,0,0,1.39,1.45,1.52,1.52,0,0,0,1.78-1.41,1.64,1.64,0,0,0-1.15-1.77,1.77,1.77,0,0,0-2,.77,1.26,1.26,0,0,0,.45,1.71,1.28,1.28,0,0,0,1.71-.45Z"/><path class="cls-1" d="M244.37,54.83h.33a1.25,1.25,0,0,0,0-2.5h-.33a1.25,1.25,0,0,0,0,2.5Z"/><g class="cls-2"><path class="cls-1" d="M186.37,2.5h.33a1.25,1.25,0,0,0,0-2.5h-.33a1.25,1.25,0,0,0,0,2.5Z"/></g><g class="cls-2"><path class="cls-1" d="M63,39.5h.33a1.25,1.25,0,0,0,0-2.5H63a1.25,1.25,0,0,0,0,2.5Z"/></g><g class="cls-2"><path class="cls-1" d="M11.71,29.33H12a1.25,1.25,0,0,0,0-2.5h-.33a1.25,1.25,0,0,0,0,2.5Z"/></g><g class="cls-2"><path class="cls-1" d="M1.21,91.12h.33a1.25,1.25,0,0,0,0-2.5H1.21a1.25,1.25,0,0,0,0,2.5Z"/></g><g class="cls-2"><path class="cls-1" d="M290,86.5h.33a1.25,1.25,0,0,0,0-2.5H290a1.25,1.25,0,0,0,0,2.5Z"/></g><g class="cls-2"><path class="cls-1" d="M165.71,48.83H166a1.25,1.25,0,0,0,0-2.5h-.33a1.25,1.25,0,0,0,0,2.5Z"/></g><path class="cls-1" d="M227.71,36.08H228a2.5,2.5,0,0,0,0-5h-.33a2.5,2.5,0,1,0,0,5Z"/><path class="cls-1" d="M31.37,53.42c3.22,0,3.22-5,0-5s-3.22,5,0,5Z"/><path class="cls-1" d="M273.37,23.5a1.25,1.25,0,0,0,0-2.5,1.25,1.25,0,0,0,0,2.5Z"/><circle class="cls-3" cx="228.25" cy="34.08" r="6"/><circle class="cls-3" cx="31.37" cy="52.08" r="6"/></g></g></svg>