<svg xmlns="http://www.w3.org/2000/svg" viewBox="0 0 220 215"><path fill="#1A1623" d="M172.5 110.8c-8.6 4.8-16.9 10-24.8 15.7-3.4 2.4-6.8 5-9.4 8.2-1.5 1.8-2.7 3.7-4.5 5.2-1.7 1.5-3.8 2.4-5.9 3.4-12.6 6.2-23.7 14.6-35.4 22.2S68.4 179.9 56 186.6c-5.3 2.9-10.7 5.7-16.7 6.9-1 .2-2.4.2-2.9-.6-.4-.8.1-1.7.7-2.4 4.5-5.5 11.4-9.2 15.4-15 1.6-2.2 2.7-4.8 4.6-6.7 3.1-3.1 6.7-5.3 10.7-7.4 8.5-4.5 11.5-11.8 18.2-18.4 7-7 15.8-12.2 24.5-17.3 10.2-6 23.4-12 33.6-17.9 1.3-.8 2.8-1.6 4.4-1.5-3.5 4.2-7.4 8.1-11.7 11.7 2 .5 4.4 1.6 4.1 3.4-3.6.7-6.8 2.7-8.8 5.5 3.5.3 6.7-1.7 9.6-3.5 8.6-5.3 17.8-9.9 27.4-13.7 1.4-.5 3.8-.4 3.5.9" opacity=".5"/><path fill="#100D17" d="M183.7 26.8c-.1-.5-.1-1-.4-1.4-.4-.2-.7-.1-.9.2-.6.6-1.2 1.1-1.9 1.5-.7.4-1.4.7-2 1.1-2.1 1.2-4.3 2.3-6.6 3-.1 0-.2.1-.3.1 0 .3-.1.6-.5.6s-.8-.1-1.1-.3c0 0-.1 0-.1-.1-.4-.2-.7-.4-1.2-.4-.4 0-.5-.3-.5-.6h-.1c-.1-.4-.2-.9-.4-1.3-.6-1.5-1.3-2.9-2.3-4.1-.5-.5-.8-.6-1.4-.2-.1 0-.1 0-.2.1-.3.3-.6.7-.9 1v.2c-.2.6-.8 1.7-1.3 2.1-.7.5-1.2 0-1.7-.5-1.1-.8-2.2-1.7-3.3-2.5-.5-.4-1.9-1-2.1-1.8-.4-.3-.6-.7-.9-1.1-.3-.4-.6-.7-1-.9-.4-.2-.7-.1-1 .2-.3.3-.6.6-.5 1.1v.1c.2.1.3.3.3.6-.5 6.6 1.2 12.6 2.5 19 .1.3 0 .5-.2.7.7 2.2 1.1 4.4 1.1 6.7.1.2.2.5.1.8l-.3 1.2c-.1.7-.9.8-1.4.6-.2.8-.5 1.6-.8 2.4 0 .1 0 .2.1.2-.7 1.6-1.9 2.5-3.6 2.9-2.3.6-4.7.6-7.1.8-1.2 0-2.5 0-3.7.1-2.1.1-4.1.6-6 1.3-2.1.8-3.8 2.1-5.2 3.9-1.2 1.6-2.6 3.1-2.9 5.2 0 .2-.2.3-.4.3l-1.5.3c-2.1.4-4.1 1-6 2.1-1.9 1.2-3.3 2.8-4.8 4.4l-.1.1c-.1 0-.1 0-.1.1-.1 0-.1 0-.1.1-.1 0-.1 0-.1.1-.1.1-.3.1-.2.3-.2-.1-.3.2-.4.3-.7.8-1.4 1.5-1.9 2.4-.1.2-.3.3-.3.6-.1 0-.2.1-.2.2-.1.1-.2.2-.2.3-.3.3-.5.6-.6.9-.1.1-.2.2-.2.3-.1.1-.2.2-.2.4-.3.2-.4.4-.5.7-.1.1-.3.3-.3.5-.2.3-.4.5-.5.9-.1 0-.1 0-.1.1-.2.2-.3.4-.3.6-.1 0-.1 0-.1.1-.1 0-.1.1-.1.2-.4.6-.7 1.2-1.1 1.8-.2.3-.5.6-.5 1-.1 0-.1 0-.1.1-.1 0-.1.1-.1.1 0 .1-.1.1-.1.2-.1.2-.2.3-.3.5-1.1 1.7-1.8 3.6-2.8 5.4l-.3.6c-.1.1-.1.1-.1.2-.1 0-.1.1-.1.2-.1 0-.1.1-.1.2-.1 0-.1.1-.1.2-.2.2-.4.4-.4.7-.2.1-.3.3-.3.5-.1 0-.1 0-.1.1-.1.1-.2.2-.2.4-.1 0-.1 0-.1.1-.1.1-.2.2-.2.4-.1 0-.1.1-.1.2-.1 0-.1 0-.1.1-.1.1-.2.2-.2.4-.1 0-.1.1-.1.1 0 .1-.1.1-.1.2-.1 0-.1.1-.1.2-.1 0-.1.1-.1.2-.1 0-.1 0-.1.1-.1.1-.2.2-.2.4-.1 0-.1 0-.1.1-.1 0-.1.1-.1.2-.1 0-.1.1-.1.2-.1 0-.1 0-.1.1-.1 0-.1.1-.1.2-.1 0-.1 0-.1.1-.1.1-.1.1-.1.2-.1 0-.1.1-.1.2-.1 0-.1 0-.1.1-.1 0-.1.1-.1.2-.1 0-.1 0-.1.1s-.1.1-.1.2c-.1 0-.1.1-.1.2-.1.1-.2.1-.2.3-.2 0-.2.1-.2.3-.3.8-.8 1.5-1.4 2-.1 0-.1 0-.1.1-.1 0-.2.1-.2.2-.1 0-.1.1-.1.2-.1 0-.1 0-.1.1l-.1.1c-.1.1-.2.2-.2.3-2.2 3-5.4 4.6-8.8 5.8-2.1.7-4.3.6-6.5 1-.1 0-.2-.1-.3-.1-.1.3-.3.6-.7.6-3.8-.1-8.1-2-11-4.3-1.4-1.1-2.4-2.8-3.8-3.9-.8-.7-1.2-1.1-1.8-.4v.2c.1 1.6-.8 3.2-1.2 4.9.2.1.5.3.5.6v.5c.3 0 .7.1.8.5.7 2.6 1.3 5.3 1.9 7.9.2.1.3.2.4.4.5 1.4 1 2.7 1.4 4.1.1.3.2.6.3.8.3-.2.7-.2.9.1.2 0 .3.1.4.3.4.9.8 1.8 1.1 2.8.2.4.5.7.8 1.1.3-.1.7 0 .9.3.8 1.3 2 2.2 3 3.4.1.1.1.3.2.4.1 0 .2.1.3.1 2.4 1.5 5 2.7 7.8 3.1 1.6.2 3.1.8 4.7 1 2.6.4 5-.2 7.5-.6 1.9-.4 3.7-1.2 5.6-1.8 1.2-.4 2.3-.8 3.3-1.4 2.7-1.6 5.1-3.4 7.4-5.6 1-1 2-2.1 2.9-3.1.7-.8 1.4-1.5 2-2.3 1.9-2.3 3.5-4.7 5.2-7.1.1-.1.1-.3.3-.3.1 1.6.2 3.3.6 4.9.2.9.9 1.4 1.8 1.2.4-.1.7-.1 1.1-.1 1.1 0 2-.5 2.6-1.3.5-.6.4-1.1-.2-1.6-.5-.4-1-.6-1.6-.7 0-.1-.1-.2-.1-.3v-2c0-.6.1-1.1.2-1.6.4-1.8.4-3.6.6-5.4.2-1.9.7-3.8 1.1-5.7.3-1.3.8-2.5 1.3-3.8 1.4-3.4 2.8-6.8 5.1-9.8.4-.6.8-1.2 1.4-1.6.6-.5 1.4-.8 2.3-.8.4 0 .9-.1 1.2-.5.3 0 .5.2.8.3.3.6.6 1.3.5 1.9-.2 1.7 0 3.4-.4 5-.2.4-.3 1-.5 1.8-.3 1.3-.6 2.5-.7 3.8 0 0-.2-.2-.1.3-.3 1.3-.6 2.7-.7 4.1-.3 2.4 0 4.7.4 7.1.2.9.7 1.7 1.2 2.5.2.3.4.4.6.3.2.1.3.3.4.5.4.6.7 1.1 1.2 1.6 1.7 1.9 3.5 3.7 5.2 5.6 1.1 1.2 2.5 1.7 4.1 1.4.2 0 .4-.1.7-.1.9.1 1.6-.3 2.3-.8.8-.6.7-1.9-.2-2.5-.9-.5-1.8-.4-2.7-.2-.4.1-.7 0-1-.4-.9-1.4-1.7-2.8-2.4-4.3-.8-1.5-1.2-3.2-2.1-4.6-.6-.9-.5-2-.9-3 0-.1 0-.2.1-.3.4-2.3 1.6-4.1 3.1-5.8 2-2.3 4.1-4.3 5.8-6.9.1-.2.3-.3.4-.5.8-1 1.8-2 2.5-3.2.3-.5.7-1.1 1.4-1.3.5.1 1-.2 1.5.1-.1.3.1.6 0 .9-.3 1.3-.1 2.7-.1 4.1 0 .1 0 .3.1.4.2.3.1.5 0 .7-.6 1.1-1.3 2.1-2 3.1-.1.2-.3.3-.3.6.3-.1.6-.2.8-.4-.2.2-.5.4-.8.4l-.1.1c-.7-.1-1.4 0-2.1.3-1.5.6-2.7 2.6-2.5 4.2.2 1.3.8 1.8 2 1.4l.6-.3c2.4-1.2 4.6-2.9 6.6-4.6 1.1-.9 2.1-2 2.6-3.5.6-1.9.8-3.7.6-5.7-.1-1.1-.3-2.1-.1-3.2-.2 0-.4 0-.6.1.2 0 .4-.1.6-.1 1.1-.2 2.1-.9 3.1-1.4.1.2.1.5.1.7-.1 1.3-.2 2.7 0 4 .4 1.9.7 3.7.8 5.6.1 2.7.5 5.3.8 8 .3 2.5 1.2 4.8 1.6 7.1.2 1 .8 1.5 1.9 1.4 1.3-.1 2.4-.7 3.4-1.4.5-.4.9-1 1-1.7.1-.5-.1-.9-.5-1.1-.4-.2-.9-.4-1.4-.4-.2 0-.3 0-.4-.3-.4-1.6-.6-3.1-.6-4.7 0-2.7.1-5.5.4-8.2.2-2.4.6-4.7.9-7 .3-1.8.5-3.7.9-5.5.6-2.9 1.2-5.8 2-8.6 1.5-5.1 3.3-10.2 4-15.5.2-1.4.6-2.8.6-4.2.1-2.6 0-5.2-.7-7.7-.1-.2-.1-.4.1-.6.9-1.2 1.5-2.6 2.1-4 1.1-2.6 1.7-5.5 2.3-8.2-.1-2.2.1-4.2-.2-6.2zM95.4 101.8zM95.3 101.9z"/><path fill="#100D17" d="M95.3 102l-.1.1c.1 0 .1-.1.1-.1zM135.4 96.4zM134.9 98.5c0-.1.1-.2.1-.3-.1.2-.1.2-.1.3 0 .1 0 .1 0 0 0 .1 0 .1 0 0zM136.3 112.5v-.2.2c.1 0 .1.1.1.1 0-.1-.1-.1-.1-.1z"/><path fill="#100D17" d="M135.9 86.1c-.3-.1-.5-.3-.8-.3 0-.2-.1-.1-.3-.1-1.1.2-2.2.4-3.2 1-.2.1-.3.2-.5 0-.3-.3-.6-.2-.9 0-1 .9-2 1.9-2.5 3.2-.2.6-.5 1.1-.8 1.6 0-.2 0-.4.1-.5.6-1.9 1.3-3.8 2.3-5.5.9-1.6 2-3 3.5-4.1l1.8-1.5c.2-.1.3-.3.2-.5-.1-.3-.3-.2-.5-.2-.5.1-1 .3-1.5.5-1.4.8-2.7 1.7-3.7 2.9-1.8 2.2-3.1 4.7-4.2 7.4-1.2 3-2 6.1-2.9 9.2-.6 2.3-1.2 4.7-2.1 6.9-.8 2.1-1.7 4.1-2.6 6.2-.8 1.7-1.7 3.3-2.8 4.9-1 1.3-1.9 2.6-2.9 3.9-1 1.4-1.9 2.9-2.9 4.2-.2.2-.5.4-.5.8.4-.3.7-.7 1-1 .2-.2.4-.5.8-.5-.9 1.1-1.9 2.1-2.9 3.1-2.2 2.1-4.7 4-7.4 5.6-1.1.6-2.2 1.1-3.3 1.4-1.9.6-3.6 1.4-5.6 1.8-2.5.5-4.9 1-7.5.6-1.6-.2-3.1-.8-4.7-1-2.9-.4-5.4-1.7-7.8-3.1.8-.3.7-.7.4-1.3-.1-.2-.3-.5-.5-.7-.4-.5-.7-1-1.1-1.5-1-1.5-1.6-3.3-2.2-5-.1-.4-.3-.8-.4-1.2.3 0 .4.1.6.2.7.2 1.3.5 2 .6.8 0 1.1-.4.9-1.2-.1-.6-.4-1.2-.8-1.8-.4-.6-.8-1.3-1-2-.1-.1-.2-.3-.1-.5s.3-.1.5-.1c.8.1 1.6.3 2.4.2.7 0 1-.4.9-1.1-.1-.4-.3-.9-.5-1.3l-.6-1.2c-.1-.3-.2-.6 0-.8.5-.4 1-.8 1.7-.6 1.1.3 2.2.2 3.4.3.7.1 1.2-.3 1.7-.7 1.2.3 2.4.3 3.6 0 .9-.2 1.9-.4 2.8-.6-.3.4-.7.8-1.2 1-.3.1-.4.5-.3.8.1.3.4.2.6.2.2 0 .3-.1.5-.2 1.7-.9 3.5-1.9 5.1-3.1 1.6-1.2 2.8-2.7 4-4.2.4-.5.8-.9 1.4-1.1l.1.1c0 .1-.1.2-.1.2-.5 1.2-1.5 2.2-1.7 3.6 0 .2-.2.3 0 .5.2.1.3 0 .5-.1.4-.3.7-.7 1.1-1.1.3-.3.5-.7.8-.9.9-.6 1.5-1.4 2.2-2.1 1.4-1.5 2.3-3.5 3.5-5.2 1-1.4 1.7-3 2.4-4.6v1.4c0 .2 0 .4.2.4.2.1.3-.1.4-.2.4-.9 1.1-1.5 1.5-2.3 1-1.9 1.8-3.9 2.5-5.9.5-1.3.8-2.7 1.5-3.9 1.2-2 2.5-4 4-5.8 1.3-1.5 2.5-3.2 4-4.5 2.4-2 5.3-3.1 8.2-4.2.6-.2 1.2-.3 1.8 0 .1.1.3 0 .4 0 .5-.1.9-.1 1.4-.2.7-.1 1.3-.2 2-.2.1 0 .3 0 .3-.2s-.2-.1-.3-.1c-.8-.2-1.6-.1-2.3-.7.6-.4 1.4-.4 2.1-.4.2 0 .5.1.5-.2 0-.3-.2-.3-.5-.4h-.9c-1.6-.4-3.1-.5-4.7-.2-.1 0-.3.1-.4 0 .8-.8 1.6-1.6 2.4-2.3 1.5-1.3 3.1-2.5 5-3.3.6-.2 1.1-.6 1.7-.5.9.1 1.9 0 2.8.1.9.1 1.8 0 2.7 0-.4-.4-.8-.5-1.3-.5-.5-.1-.9 0-1.4 0h-1.4v-.2c3.5-.4 6.9-.1 10.5.6-.2-.6-.7-.7-1.1-.9.8 0 1.6.5 2.4.6.8.2 1.6.2 2.4.5.8.2 1.5.5 2.3.5-.9-.6-1.9-.7-2.8-1.3 1 0 1.9 0 2.8.4 1.3.5 2.7.7 4.2.5-.2-.3-.5-.5-.7-.6-.2-.1-.5-.1-.8-.3 1.5-.2 6.4-1.7 7.9-2.4 1.7-.8 2.9-2.2 3.5-4 .1-.3.2-.6.2-.9-.4 0-.5.3-.7.5-.4.6-.8 1.3-1.4 1.7-1.1.8-2.1 1.7-3.5 2-1.3.3-2.5 1-3.9.9-.4 0-.7.2-1.1.2-2.2 0-4.3-.3-6.4-.6-2-.2-3.9-.6-5.9-.8-.8-.1-1.7-.1-2.5-.3 2.4-.2 4.8-.2 7.1-.8 1.7-.4 2.9-1.3 3.6-2.9.2-.4.7-.4.9-.8.3-.6.7-1.1 1-1.8.1.4.1.8.2 1.2 0 .2.1.4.3.4.2 0 .3-.2.4-.4.1-.2.1-.5.2-.7.6-1.3 1.1-2.6 1.1-4.2.1.3.2.4.3.6.1.2.2.5.5.4.3-.1.4-.3.4-.6 0-.8 0-1.5-.1-2.3-.2-1.2-.8-2.4-.6-3.6 0-.1-.1-.3-.1-.4-.3-.6-.5-1.2-.8-1.9-.6-1.5-1.5-2.9-2.1-4.5-.6-1.6-1.2-3.3-1.5-5-.3-2.1-.7-4.2-.7-6.3 0-.8-.1-1.6-.1-2.4 0-.2.1-.3-.1-.4-.2-.1-.2.2-.4.2-.2-.5.2-.8.5-1.1.3-.3.6-.3 1-.2.4.2.7.5 1 .9.3.4.5.8.9 1.1-.2.3.1.4.2.5 1.3 1.5 2.8 2.6 4.4 3.7.8.5 1.2 1.2 1.6 2 .1.1.1.3 0 .4-.3.9-.5 1.9-.8 2.8-.6 1.8-1 3.7-2.1 5.2-.1.1-.2.2-.1.4.1.1.3 0 .4-.1l.2-.2c.7-.8 1.1-1.9 1.5-2.8.4-.9.7-1.8 1.1-2.6.3-.7.7-1.4 1-2 .8-1.7 1.3-3.6 2.3-5.3.2-.3 0-.3-.2-.3.6-.3.9-.3 1.4.2 1.1 1.2 1.8 2.6 2.3 4.1.2.4.2.8.4 1.3-.1 0-.2 0-.1.1.2.4.4.8.9.9 1.1.4 2 1 2.8 1.8.1.1.2.2.4.2-.1-.3-.3-.5-.5-.7-.2-.2-.1-.3.1-.4 1.1-.4 2.2-.8 3.3-1.3.7-.3 1.4-.7 2.1-.9 1.8-.5 3.3-1.5 4.6-2.7.5-.4.8-1 1.3-1.3.4-.2.5-.5.4-.9.3.4.3.9.4 1.4.3 2 .1 4-.4 5.9-.7 2.8-1.2 5.6-2.3 8.2-.6 1.4-1.2 2.8-2.1 4-.1.2-.1.4-.1.6.8 2.5.8 5.1.7 7.7 0 1.4-.4 2.8-.6 4.2-.8 5.3-2.6 10.4-4 15.5-.8 2.9-1.4 5.7-2 8.6-.4 1.8-.6 3.6-.9 5.5-.3 2.3-.7 4.7-.9 7-.2 2.7-.4 5.5-.4 8.2 0 1.6.2 3.2.6 4.7.1.3.2.3.4.3.5 0 1 .2 1.4.4.4.2.6.6.5 1.1-.1.7-.5 1.3-1 1.7-1 .8-2.1 1.4-3.4 1.4-1 0-1.6-.4-1.9-1.4.2.1.2.3.3.4.1.1.3.3.5.2.2-.1.1-.3 0-.5-.3-.6-.5-1.3-.6-1.9-.3-1.1-.6-2.1-.8-3.2 0-.6-.1-1.2-.1-1.8-.1-.7-.2-1.3-.3-2-.1-1.9-.4-3.8-.3-5.7.1-1.4.1-2.9-.1-4.3-.1-.9-.2-1.7-.5-2.6-.5-1.4-1-2.8-1.2-4.3.2-.9.3-1.9.2-3-.7.8-1.7 1.1-2.1 2-.1.1-.2.2-.4.3-1 .5-2.1.7-3.1 1.4-.5.3-1.2.4-1.9.5-1.2.3-2.3.7-3.2 1.7.1.1.3-.1.4.1-.7.2-1.1.8-1.4 1.3-.7 1.2-1.6 2.1-2.5 3.2-.1.2-.3.3-.4.5-1.7 2.5-3.8 4.6-5.8 6.9-1.5 1.7-2.7 3.6-3.1 5.8 0 .1-.1.2-.1.3.4 1 .3 2 .9 3 .9 1.4 1.4 3.1 2.1 4.6.7 1.5 1.5 2.9 2.4 4.3.2.4.5.5 1 .4.9-.1 1.8-.3 2.7.2.9.5 1.1 1.8.2 2.5-.7.5-1.4 1-2.3.8-.2 0-.4 0-.7.1-1.6.3-3-.1-4.1-1.4-1.7-1.9-3.5-3.7-5.2-5.6-.4-.5-.8-1.1-1.2-1.6-.1-.2-.2-.4-.4-.5 0-.1 0-.2-.1-.2v-.2c-1.1-1.7-1.3-3.6-1.5-5.6-.2-1.9.2-3.8.6-5.7.6-2.7 1.4-5.4 2.2-8.1.4-1.4.7-2.9.4-4.4-.1-.7-.2-1.5-.7-2.2.2-.1-.1-.1-.7.3z"/><path fill="#FFF" d="M77.1 112.7c.3.1.7.2 1 .3.3.1.4.2.4.5-.5.3-1 .7-1.7.7-1.1-.1-2.3-.1-3.4-.3-.7-.2-1.2.2-1.7.6-.3.2-.1.5 0 .8l.6 1.2c.2.4.4.8.5 1.3.2.7-.1 1.1-.9 1.1s-1.6-.1-2.4-.2c-.2 0-.4-.1-.5.1-.1.2 0 .3.1.5.3.7.7 1.3 1 2 .3.6.6 1.1.8 1.8.2.7-.2 1.2-.9 1.2s-1.4-.3-2-.6c-.2-.1-.3-.2-.6-.2.1.4.3.8.4 1.2.6 1.7 1.2 3.5 2.2 5 .3.5.6 1.1 1.1 1.5.2.2.3.4.5.7.3.5.4 1-.4 1.3-.3 0-.6-.2-.8-.4-.7-.6-1.6-1-2.2-1.7-1.7-1.7-3.1-3.7-4.2-5.9-.2-.4-.5-.8-.7-1.2-.5-.7-.8-1.4-1.1-2.2-.4-1-.9-1.9-1.5-2.8-.7-1.1-1-2.3-1.2-3.6-.1-1-.3-2-.6-3-.4-1.3-.8-2.6-.3-4 .4-1 .6-2 .9-3 .1-.4.2-2.1.6-2.2.2 0 .7.7 1 1 1.1 1.3 2.4 2.3 3.8 3.2.8.5 1.6 1.2 2.3 1.8.9.7 1.9 1.5 3 1.9.4.2.9.1 1.4.2 1.5.4 2.9 1 4.4 1.4.2-.3.6-.1 1.1 0z"/><path fill="#2C2339" d="M110.3 124.6c-.4 0-.6.3-.8.5-.3.3-.6.7-1 1 0-.4.3-.5.5-.8 1.1-1.3 1.9-2.8 2.9-4.2 1-1.3 1.9-2.6 2.9-3.9 1.1-1.5 2-3.2 2.8-4.9.9-2 1.8-4.1 2.6-6.2.9-2.3 1.5-4.6 2.1-6.9.8-3.1 1.6-6.2 2.9-9.2 1.1-2.6 2.4-5.2 4.2-7.4 1-1.2 2.3-2.1 3.7-2.9.5-.3.9-.5 1.5-.5.2 0 .4-.1.5.2.1.2-.1.4-.2.5l-1.8 1.5c-1.5 1.1-2.6 2.5-3.5 4.1-1 1.7-1.7 3.6-2.3 5.5-.1.2-.1.4-.1.5-.1.1-.1.1 0 .2-.2.6-.5 1.2-.7 1.8-.9 3.2-1.8 6.4-3 9.5-.3.7-.5 1.3-.6 2-.2.1-.2.3-.2.4-.9 2.3-1.8 4.6-3 6.7-.5.9-1.2 1.8-1.6 2.8-.2 0-.2.2-.3.3-1.7 2.4-3.3 4.8-5.2 7.1-1 .8-1.7 1.5-2.3 2.3-.1-.1-.1-.1 0 0-.1-.1-.1-.1 0 0z"/><path fill="#FFF" d="M150.9 22.6c.2 0 .1-.3.4-.2.2.1.1.3.1.4 0 .8.1 1.6.1 2.4 0 2.1.4 4.2.7 6.3.3 1.7.8 3.4 1.5 5 .6 1.5 1.5 2.9 2.1 4.5.2.6.5 1.2.8 1.9.1.1.1.3.1.4-.1 1.3.5 2.4.6 3.6.1.7.1 1.5.1 2.3 0 .3-.1.5-.4.6-.3.1-.4-.2-.5-.4-.1-.2-.1-.3-.3-.6-.1 1.6-.5 2.9-1.1 4.2-.1.2-.1.4-.2.7-.1.2-.1.4-.4.4-.2 0-.3-.2-.3-.4 0-.4 0-.8-.2-1.2-.2.7-.7 1.2-1 1.8-.2.4-.7.4-.9.8-.1 0-.1-.1-.1-.2.7-1.7 1.2-3.4 1-5.3-.1-.8 0-1.6 0-2.4 0-.6-.2-1.2 0-1.8.1-.4-.3-.5-.4-.9-.1-1-.2-1.9-.3-2.8-.2-1.5-.3-3-.6-4.4-.5-2.3-.9-4.7-1.4-7-.2-.9-.4-1.9-.6-2.8-.1-.3.1-.7.2-1 .2-.8.4-1.7.7-2.4.2-.7.1-1.1.3-1.5z"/><path fill="#100D17" d="M160.9 86.5c-.2 1.1 0 2.1.1 3.2.2 1.9 0 3.8-.6 5.7-.5 1.5-1.5 2.5-2.6 3.5-2 1.7-4.2 3.4-6.6 4.6l-.6.3c-1.2.4-1.8-.1-2-1.4-.2-1.6 1.1-3.5 2.5-4.2.7-.3 1.4-.4 2.1-.3-.1.3-.5.4-.6.6-.1.1-.2.2-.1.4.1.1.2.1.4.1.3 0 .6-.2.9-.4.9-.5 1.6-1.1 2.4-1.8 1.1-1 1.8-2.2 1.7-3.7 0-1.4-.3-2.7-.8-4-.1-.5-.1-1-.6-1.3.6-.2 1.2-.4 1.9-.6.8-.3 1.6-.6 2.5-.7zM117.8 114.9c.4-1 1.1-1.9 1.6-2.8 1.2-2.1 2.1-4.4 3-6.7.1-.1.1-.3.2-.4-.3 1.9-.9 3.8-1.1 5.8-.3 2-.3 4.1-.3 6.1 0 .6.4.8.9.4.6.1 1.2.3 1.6.7.6.5.6 1.1.2 1.6-.7.8-1.6 1.3-2.6 1.3-.4 0-.7 0-1.1.1-.9.1-1.6-.3-1.8-1.2-.4-1.6-.5-3.2-.6-4.9z"/><path fill="#FFF" d="M163.8 24.9c.2 0 .4 0 .2.3-1 1.7-1.5 3.6-2.3 5.3-.3.7-.6 1.4-1 2-.4.8-.7 1.8-1.1 2.6-.4 1-.8 2-1.5 2.8l-.2.2c-.1.1-.3.2-.4.1-.1-.1 0-.3.1-.4 1.2-1.6 1.5-3.5 2.1-5.2.3-.9.5-1.8.8-2.8 0-.1.1-.3 0-.4-.5-.7-.9-1.4-1.6-2-1.6-1.1-3.2-2.2-4.4-3.7-.1-.1-.4-.3-.2-.5 1.3.2 2.1 1.1 3 1.9 1 .8 2.1 1.5 3 2.3.4.4.9.3 1.2-.2.6-.9 1.5-1.6 2.1-2.4.1.2.2.2.2.1zM183.2 25.4c.1.4 0 .7-.4.9-.5.3-.8.9-1.3 1.3-1.3 1.2-2.8 2.3-4.6 2.7-.7.2-1.4.6-2.1.9-1.1.5-2.2.9-3.3 1.3-.3.1-.3.2-.1.4.2.2.4.4.5.7-.2 0-.3-.1-.4-.2-.8-.8-1.8-1.4-2.8-1.8-.4-.2-.6-.6-.9-.9-.1-.1 0-.1.1-.1.6.3 1.4.3 2 .6.6.3 1.1.3 1.8.1 2.3-.8 4.5-1.8 6.6-3 .7-.4 1.4-.7 2-1.1.7-.4 1.3-.9 1.9-1.5.4-.4.7-.5 1-.3zM164.2 84.9c-.1.1-.2.2-.3.2-1 .5-1.9 1.2-3.1 1.4-.9 0-1.7.4-2.5.7-.6.2-1.2.4-1.9.6h-.3c-.2 0-.4 0-.6.2-.5-.3-1 0-1.5-.1-.1-.2-.3 0-.4-.1.8-1 2-1.4 3.2-1.7.6-.1 1.3-.2 1.9-.5 1-.6 2.1-.9 3.1-1.4.1-.1.3-.2.4-.3.4-1 1.5-1.2 2.1-2 .2 1.1.1 2-.1 3z"/><path fill="#2C2339" d="M156.2 87.8h.3c.5.3.5.9.6 1.3.4 1.3.7 2.6.8 4 0 1.5-.6 2.8-1.7 3.7-.8.6-1.5 1.3-2.4 1.8-.3.2-.6.4-.9.4-.1 0-.3 0-.4-.1-.1-.2 0-.3.1-.4.2-.2.5-.3.6-.6l.1-.1c.7-.1 1-.6 1.4-1.1l.1-.1c.3 0 .5-.2.5-.5l.1-.1c.1 0 .2-.1.2-.2.5-.3.8-.7.8-1.3.2-.2.2-.5.2-.8 0-1-.3-1.9-.1-2.9.2-1 0-2-.3-3zM136 93c0 .9-.3 1.8-.5 2.7-.2 1-.3 2-.7 2.9.1-1.3.5-2.5.7-3.8.2-.8.3-1.4.5-1.8z"/><path fill="#6765F0" d="M127 91.5"/><path fill="#2C2339" d="M134.9 85.7c-1.1.2-2.2.4-3.2 1-.2.1-.3.2-.5 0-.3-.3-.6-.2-.9 0-1 .9-2 1.9-2.5 3.2-.2.6-.5 1.1-.8 1.6v.2c-.2.6-.5 1.2-.7 1.8-.9 3.2-1.8 6.4-3 9.5-.3.7-.5 1.3-.6 2-.3 1.9-.9 3.8-1.1 5.8-.3 2-.3 4.1-.3 6.1 0 .6.4.8.9.4 0-.1-.1-.2-.1-.3v-2c0-.6.1-1.1.2-1.6.4-1.8.4-3.6.6-5.4.2-1.9.7-3.8 1.1-5.7.3-1.3.8-2.5 1.3-3.8 1.4-3.4 2.8-6.8 5.1-9.8.4-.6.8-1.2 1.4-1.6.6-.5 1.4-.8 2.3-.8.4 0 .9-.1 1.2-.5-.2-.2-.3-.2-.4-.1zM134.8 98.5c0 .1 0 .2-.1.3 0-.4.1-.2.1-.3z"/><path fill="#3567BA" d="M95.3 101.9c0 .1 0 .2-.1.2 0-.1 0-.2.1-.2z"/><path fill="#001B3A" d="M110.3 124.6c-.1-.1-.1-.1 0 0-.1-.1-.1-.1 0 0z"/><path fill="#3567BA" d="M92.8 105.5l-.1.1s0-.1.1-.1zM95.4 101.8l-.1.1c0-.1 0-.1.1-.1z"/><path fill="#6763F2" d="M95.3 101.9"/><path fill="#772B52" d="M166.9 54.9c-.4 0-.5.3-.7.5-.4.6-.8 1.3-1.4 1.7-1.1.8-2.1 1.7-3.5 2-1.3.3-2.5 1-3.9.9-.4 0-.7.2-1.1.2-2.2 0-4.3-.3-6.4-.6-2-.2-3.9-.6-5.9-.8-.8-.1-1.7-.1-2.5-.3-1.2 0-2.5 0-3.7.1-2.1.1-4.1.6-6 1.3-2.1.8-3.8 2.1-5.2 3.9-1.2 1.6-2.6 3.1-2.9 5.2 0 .2-.2.3-.4.3l-1.5.3c-2.1.4-4.1 1-6 2.1-1.9 1.2-3.3 2.8-4.8 4.4l-.1.1c-.1 0-.1 0-.1.1-.1 0-.1 0-.1.1-.1 0-.1 0-.1.1-.1.1-.3.1-.2.3-.2-.1-.3.2-.4.3-.7.8-1.4 1.5-1.9 2.4-.1.2-.3.3-.3.6-.1 0-.2.1-.2.2-.1.1-.2.2-.2.3-.3.3-.5.6-.6.9-.1.1-.2.2-.2.3-.1.1-.2.2-.2.4-.3.2-.4.4-.5.7-.1.1-.3.3-.3.5-.2.3-.4.5-.5.9-.1 0-.1 0-.1.1-.2.2-.3.4-.3.6-.1 0-.1 0-.1.1-.1 0-.1.1-.1.2-.4.6-.7 1.2-1.1 1.8-.2.3-.5.6-.5 1-.1 0-.1 0-.1.1-.1 0-.1.1-.1.1 0 .1-.1.1-.1.2-.1.2-.2.3-.3.5-1.1 1.7-1.8 3.6-2.8 5.4l-.3.6c-.1.1-.1.1-.1.2-.1 0-.1.1-.1.2-.1 0-.1.1-.1.2-.1 0-.1.1-.1.2-.2.2-.4.4-.4.7-.2.1-.3.3-.3.5-.1 0-.1 0-.1.1-.1.1-.2.2-.2.4-.1 0-.1 0-.1.1-.1.1-.2.2-.2.4-.1 0-.1.1-.1.2-.1 0-.1 0-.1.1-.1.1-.2.2-.2.4-.1.2-.1.3-.1.4 0 .1-.1.1-.1.2-.1 0-.1.1-.1.2-.1 0-.1.1-.1.2-.1 0-.1 0-.1.1-.1.1-.2.2-.2.4-.1 0-.1 0-.1.1-.1 0-.1.1-.1.2-.1 0-.1.1-.1.2-.1 0-.1 0-.1.1-.1 0-.1.1-.1.2-.1 0-.1 0-.1.1-.1.1-.1.1-.1.2-.1 0-.1.1-.1.2-.1 0-.1 0-.1.1-.1 0-.1.1-.1.2l-.1.1c0 .1 0 .2-.1.2s-.1.1-.1.2c-.1.1-.2.1-.2.3-.2 0-.2.1-.2.3-.3.8-.8 1.5-1.4 2-.1 0-.1 0-.1.1-.1 0-.2.1-.2.2-.1 0-.1.1-.1.2-.1 0-.1 0-.1.1l-.1.1c-.1.1-.2.2-.2.3-2.2 3-5.4 4.6-8.8 5.8-2.1.7-4.3.6-6.5 1 .3.1.7.2 1 .3.3.1.4.2.4.5 1.2.3 2.4.3 3.6 0 .9-.2 1.9-.4 2.8-.6-.3.4-.7.8-1.2 1-.3.1-.4.5-.3.8.1.3.4.2.6.2.2 0 .3-.1.5-.2 1.7-.9 3.5-1.9 5.1-3.1 1.6-1.2 2.8-2.7 4-4.2.4-.5.8-.9 1.4-1.1h.1v.1c0 .1-.1.2-.1.2-.5 1.2-1.5 2.2-1.7 3.6 0 .2-.2.3 0 .5.2.1.3 0 .5-.1.4-.3.7-.7 1.1-1.1.3-.3.5-.7.8-.9.9-.6 1.5-1.4 2.2-2.1 1.4-1.5 2.3-3.5 3.5-5.2 1-1.4 1.7-3 2.4-4.6v1.4c0 .2 0 .4.2.4.2.1.3-.1.4-.2.4-.9 1.1-1.5 1.5-2.3 1-1.9 1.8-3.9 2.5-5.9.5-1.3.8-2.7 1.5-3.9 1.2-2 2.5-4 4-5.8 1.3-1.5 2.5-3.2 4-4.5 2.4-2 5.3-3.1 8.2-4.2.6-.2 1.2-.3 1.8 0 .1.1.3 0 .4 0 .5-.1.9-.1 1.4-.2.7-.1 1.3-.2 2-.2.1 0 .3 0 .3-.2s-.2-.1-.3-.1c-.8-.2-1.6-.1-2.3-.7.6-.4 1.4-.4 2.1-.4.2 0 .5.1.5-.2 0-.3-.2-.3-.5-.4h-.9c-1.6-.4-3.1-.5-4.7-.2-.1 0-.3.1-.4 0 .8-.8 1.6-1.6 2.4-2.3 1.5-1.3 3.1-2.5 5-3.3.6-.2 1.1-.6 1.7-.5.9.1 1.9 0 2.8.1.9.1 1.8 0 2.7 0-.4-.4-.8-.5-1.3-.5-.5-.1-.9 0-1.4 0h-1.4v-.2c3.5-.4 6.9-.1 10.5.6-.2-.6-.7-.7-1.1-.9.8 0 1.6.5 2.4.6.8.2 1.6.2 2.4.5.8.2 1.5.5 2.3.5-.9-.6-1.9-.7-2.8-1.3 1 0 1.9 0 2.8.4 1.3.5 2.7.7 4.2.5-.2-.3-.5-.5-.7-.6-.2-.1-.5-.1-.8-.3 1.5-.2 6.4-1.7 7.9-2.4 1.7-.8 2.9-2.2 3.5-4 .2-.5.3-.8.2-1.1zm-64 33.5l.1-.1-.1.1z"/><path fill="#2C2339" d="M168 110.7c-.3-.6-.5-1.3-.6-1.9-.3-1.1-.6-2.1-.8-3.2-.1-.2-.1-.4-.2-.7 0 .2.1.4.2.7 0-.6-.1-1.2-.1-1.8-.1-.7-.2-1.3-.3-2-.1-1.9-.4-3.8-.3-5.7.1-1.4.1-2.9-.1-4.3-.1-.9-.2-1.7-.5-2.6-.5-1.4-1-2.8-1.2-4.3-.1.1-.2.2-.3.2.1.2.1.5.1.7-.1 1.3-.2 2.7 0 4 .4 1.9.7 3.7.8 5.6.1 2.7.5 5.3.8 8 .3 2.5 1.2 4.8 1.6 7.1.2.1.2.3.3.4.1.1.3.3.5.2.3-.1.2-.3.1-.4z"/><path fill="#064180" d="M134.8 98.5"/><path fill="#2C2339" d="M137.4 92.9c.4-1.4.7-2.9.4-4.4-.1-.7-.2-1.5-.7-2.2-.4-.6-.7-.7-1.3-.2.3.6.6 1.3.5 1.9-.2 1.7 0 3.4-.4 5 0 .9-.3 1.8-.5 2.7-.2 1-.3 2-.7 2.9 0 .1 0 .2-.1.3-.3 1.3-.6 2.7-.7 4.1-.3 2.4 0 4.7.4 7.1.2.9.7 1.7 1.2 2.5.2.3.4.4.6.3 0-.1 0-.2-.1-.2v-.2c-1.1-1.7-1.3-3.6-1.5-5.6-.2-1.9.2-3.8.6-5.7.8-3 1.6-5.6 2.3-8.3z"/><path fill="#001B3A" d="M95 106.3h0c.1 0 .1 0 0 0zM127 91.5v.2c-.1-.1-.1-.2 0-.2z"/><path fill="#2C2339" d="M156.5 90.7c.1-1-.1-2-.3-2.9-.2 0-.4 0-.6.2-.1.3.1.6 0 .9-.3 1.3-.1 2.7-.1 4.1 0 .1 0 .3.1.4.2.3.1.5 0 .7-.6 1.1-1.3 2.1-2 3.1-.1.2-.3.3-.3.6.7-.1 1-.6 1.4-1.1l.1-.1c.3 0 .4-.2.5-.5l.1-.1c.1 0 .2-.1.2-.2.5-.3.8-.7.8-1.3.2-.2.2-.5.2-.8.1-1-.2-2-.1-3z"/><path fill="#021D3C" d="M154.7 96.7l.1-.1c0 .1 0 .1-.1.1z"/></svg>