<svg xmlns="http://www.w3.org/2000/svg" viewBox="0 0 220 100"><path opacity=".5" fill="#100E16" d="M195.7 77.7c-20.9-8.5-44.8-8.8-67.1-9.1-23.4-.2-46.7 1.5-69.6 6.4-.9.2-1.1 1.1-.7 1.7L55.9 78h-.1c-.3-.4-.7-.7-1.4-.6-2.7.4-5 1.3-7.4 2.5-1.3.7-.4 2.6 1 2.3 10-2.1 20.1-3.9 30.3-5.3-3.9 1.7-7.7 3.8-11.2 6.4-1.1.8-.5 2.6 1 2.3 15.8-3.2 31.8-5.9 47.9-6.1 15.7-.2 30.8 3.7 46.4 4.2 1.4.1 1.7-2.1.3-2.5-3.8-1.1-7.5-2-11.4-2.8 14.7-.2 29.4.3 44.1 1.8 1.5.1 1.5-2 .3-2.5z"/><path fill="#100E16" d="M183.3 75.1c-.7-2.8-1.5-5.5-2.9-7.9-.5-.8-.5-1.6-.4-2.5.1-.9.3-1.8.4-2.7.2-2.5.3-4.9-1.1-7.1-.6-1-.6-2-.6-3.1.1-2.1-.2-4.2-.6-6.3-.3-1.7-.8-3.4-1.2-5-.3-1.4-1-2.7-1.5-4-.1-.2-.2-.4-.4-.6-.6-.7-1.1-.6-1.6.1-.1.1-.1.3-.2.4-1 2.4-2.1 4.7-3.1 7.1-1.5-.7-2.4-2-3.7-2.9-2.6-1.9-4.8-4.4-7.4-6.4-1.2-.9-2.3-2-3.2-3.3-.7-.8-1.3-1.6-2.5-1.9-.3 0-.5-.3-.7-.5-2.3-1.8-4.8-3.4-7.2-5-.9-.5-1.8-.9-2.7-1.2-3.7-1.3-7.5-2.2-11.4-2.2-3.1-.1-8.1 1.7-11.2 1.5-3.5-.2-6.9-.3-10.4-.4-1.7-.1-3.4-.2-5-.2-2.7-.1-8.4-.7-11-.4-1.3.2-2.1-.1-3.6.3-1.7 0-2-.2-2.9.1-1.4.5-2.9 1-4.4 1.5-1.5.4-2.9 1.2-4 2.1l-5.4 4.5c-2.6 2.1-4.6 3.7-7 6.1-2.5 2.5-5.1 4.8-8 6.8-2.5 1.7-4.8 3.5-7.5 4.8-2.6 1.2-5.1 2.4-7.9 3.1-.9.2-1.7.7-2.5 1.3-1.2.8-2.8 1.3-4.3 1.6-.8.1-1.6.3-2.4.6h-.1c0 .2-.1.4-.3.5-1.4.1-2.4.5-3.9.3-1.8-.2-3.5-.7-5.3-.7-.1.6.1 1.2.4 1.8.4.6.9 1.1 1.1 1.3.1.1.1.2.1.3 1 1.1 2.2 2 2.8 2.6 2.2 1.8 5 3.8 8 4.6.1-.2.3-.3.6-.3 1.4.2 3 .5 4.3 1.1.1 0 .1.1.2.1h.2c3.7.4 7.4 0 11-.8 4.5-.9 9.2-3.2 13.1-7.3.5-.5 1.3-.7 1.8-1.1 5.6-4.4 10.5-8.2 14-14.4 1.9-3.4 2.9-6.3 4-9 .4-1 1.4-.1 2.1-1 .3.3.2.6.2.8-.4 4 .2 7.9 1.1 11.9l.6 3c.2.7-.1 1-.7 1.3-1.9.7-3.6 1.7-5.5 2.4s-3.4 2.7-3.2 5c.1 1 .2 1.9.4 2.8.7 3.1 1.5 6.2 2.3 9.2.2.6.4 1.3.6 1.9.3.8.7 1.4 1.6 1.6.9.2 1.7.7 2.5 1 .3.1.6.4 1 .1.4-.3 1.2-.2 1.4-.9.1-.4-.9-2-1.4-2.1-.5-.1-.9-.5-1.5-.5-.3-.8-.6-1.6-.6-2.5 0-3.6-.5-7.2-.9-10.8 3.7-1.4 7.6-2.2 11.5-2.9h.6c1 1.5 2 2.9 3.2 4.2 2.3 2.3 6.3 7.8 8.2 10.4.6.8 1 1.6 1.5 2.5.4.7 1 1.1 1.9 1 1.1-.1 2.2 0 3.3 0 .5 0 1-.1 1.2-.6.2-.5 0-.9-.3-1.3-.9-1.2-1.9-2.3-3.7-2-.6-1-1.2-2.1-1.6-3.2-1-2.6-4.5-8.1-5.3-10.8-.5-1.6-.6-1.6 1.1-2 1.4-.4 2.8-.8 4.1-1.4 2.4-1.2 4.1-3.1 5-5.6 0-.2.1-.3.3-.4.4-.1.4-.1.9-.1h.1c5.3-.2 10.4 3.6 15.3 5.2h.3c.9.4 1.9.7 2.8 1.3.4.2.8.5 1.1.8.2.2.6.3.8.6.4.5.2 1.2.2 1.8 0 .6.1 1.2-.2 1.8v.2c-.1 1.7-.8 7.4-1.3 9-.1.5-.3.9-.4 1.4-.1.6-.4 1-1.1 1.2-2.1.5-3 2.3-4.1 3.8-.4.6-.2 1.3.2 1.7.4.5 1.1.5 1.7.2 2.7-1.5 5.3-3.2 6.5-6.2.5-1.2 2.3-6.3 2.7-7.6.4.1.5.5.7.8 1.6 2.3 6.2 8.5 7.8 10.8.9 1.4 2.2 2.5 3 4 .2.3.5.5.8.6 1.6.7 3.3 1.1 5 1 .9-.1 1.2-.5 1-1.3-.5-1.5-1.8-2.5-3.4-2.4-.8-.6-1.3-1.5-1.8-2.4-.9-2-5.1-7.9-6.4-9.7-1-1.4-1.8-2.9-2.6-4.5-.1-.1-.1-.2-.1-.3-.3-.2-.4-.6 0-.9 1.4-.8 3.6.4 5 .8 2.4.7 4.4 1.2 6.3 3 .1.1.1.1.1.2l3.6 3.3c1.2 1 2.5 2 3.3 3.4v.1c2.5 1.5 5.5 2.9 7.3 5.2.1.1.1.2.1.3.1 0 .2.1.3.2.7 1 1.4 1.7 2.5 2.3.8.5 1.7.7 2.4 1.4.1 0 .1 0 .2.1.7.6 1.4 1 2.2 1.4.3.2 1.1.7 1.5.8.2-.2.5-.2.7.1v.2c0-.1 0-.2-.1-.3 0 .1.1.2.1.3 1.7-.2 1.9-.5 1.5-2zM34.5 56.7c.2.5.5.9.9 1.3-.4-.4-.7-.8-.9-1.3zm-.2-.8c.4 0 .8-.1 1.2-.3-.4.2-.8.3-1.2.3zM65.6 41l-.3.3.3-.3c.5-.4.9-.8 1.3-1.2-.4.4-.8.8-1.3 1.2zm19.7 15.7c-.1.6 0 1.2-.1 1.7 0 .3 0 .6-.1 1 0-.3 0-.6.1-1 .1-.6 0-1.2.1-1.7 0-.2.1-.5.2-.7-.1.2-.1.4-.2.7zm9.4-35.2c-.4.1-.8.1-1.1.2.3 0 .7-.1 1.1-.2.5-.1 1.1-.2 1.7-.2-.6.1-1.2.1-1.7.2zm26.1 1.3c-3.5-.1-7-.5-10.5-.7 3.5.3 7 .6 10.5.7h1.7-1.7zM138 48.5c-.1.6-.2 1.1-.3 1.7.2-.6.2-1.1.3-1.7 0-.2.1-.4.2-.5-.1.1-.1.3-.2.5zm.9-1.5c.3-.2.6-.3 1-.4-.4.1-.7.2-1 .4zm3.7-21.4l-2.7-.3 2.7.3 1.5.3c-.5-.2-1-.3-1.5-.3zm2.9 28.8c-1.1.5-1.8 1.3-2.3 2.2.5-.9 1.2-1.7 2.3-2.2.3-.6.6-.9 1-1.2-.4.3-.7.6-1 1.2zm14.9 3.6c-.1.1-.1.1-.2.1.1 0 .2-.1.2-.1.3-.3.6-.3.8-.2-.2-.1-.5-.1-.8.2zm5.8 5.5c-.4-.2-.8-.5-1.2-.8.4.3.8.5 1.2.8 0-.1 0-.1 0 0 0-.1 0-.1 0 0zm3.2.3c-.4-.5-.9-.9-1.5-1.2.6.3 1.1.7 1.5 1.2.4.6.9 1.2 1.4 1.7-.5-.5-.9-1.1-1.4-1.7zm6.1 8c-.2-.1-.4-.3-.6-.5.2.2.4.3.6.5 2 1.5 3.9 3 5.9 4.6-2-1.6-3.9-3.1-5.9-4.6z"/><path fill="#100E16" d="M128.1 22.6c.9 0 1.7-.1 2.6-.1-.9 0-1.7.1-2.6.1zM136.7 23.5c-.1-.3-.3-.4-.5-.6.2.1.4.3.5.6.1.1.1.3.2.4-.1-.2-.1-.3-.2-.4zM118.2 42.9h-.6c.2-.1.4 0 .6 0 .2 0 .4.1.6.1-.2-.1-.4-.1-.6-.1zM86.1 68c-.1-.4-.1-.9-.2-1.3.1.4.1.8.2 1.3zM170.2 44.2c0 .1 0 .1 0 0 0 .1 0 .1 0 0zM167.2 45c-.3-.3-.7-.7-1.1-1 .4.3.8.6 1.1 1zM168.9 45.1zM157.3 35.7c-.3-.2-.6-.3-.9-.5 0 0-.1 0-.1-.1 0 0 .1 0 .1.1.3.2.6.3.9.5zM138.5 47.4zM116.6 43l-.1.1s0-.1.1-.1zM116.4 43.3v.1c-.1 0 0-.1 0-.1zM39.6 53.1c.1 0 .1-.1.2-.1-.1 0-.1.1-.2.1-.5.2-.9.4-1.4.6.5-.2 1-.4 1.4-.6zM36.7 59.2c0 .3-.1.6-.2 1.1.1-.4.2-.8.2-1.1zM37.7 62.2c.3.3.6.5.9.8-.3-.3-.6-.5-.9-.8zM41.5 53h.3-.3zM64.5 42.2c.2-.2.3-.4.5-.6-.1.2-.3.4-.5.6zM70.1 35.5c-.4.5-.7 1-1 1.5.3-.5.7-1 1-1.5.2-.3.4-.6.7-.9-.2.3-.4.6-.7.9zM98.3 52.2h-.1c0 .1.1.1.1 0 .5 0 1-.1 1.4-.2-.4.1-.9.2-1.4.2zM114.3 46l.1-.1s0-.1.1-.1c0 0 0 .1-.1.1 0 0 0 .1-.1.1zM116.7 42.9c.1 0 .2-.1.4-.1-.2 0-.3.1-.4.1zM138.4 54.4c.1-.2.1-.4.1-.5 0 .2 0 .3-.1.5zM147.7 53h.5c.2 0 .3.1.5.1-.2 0-.3-.1-.5-.1h-.5z"/><path fill="#772B52" d="M167.2 44.9c.6.1 1.1.2 1.7.2 1.1 0 1.4-.4 1.3-1.7-1.5-.7-2.4-2-3.7-2.9-2.6-1.9-4.8-4.4-7.4-6.4-1.2-.9-2.3-2-3.2-3.3-.7-.8-1.3-1.6-2.5-1.9-.3 0-.5-.3-.7-.5-2.3-1.8-4.8-3.4-7.2-5-.9-.5-1.8-.9-2.7-1.2-3.7-1.3-7.5-2.2-11.4-2.2-3.1-.1-8.1 1.7-11.2 1.5-3.5-.2-6.9-.3-10.4-.4-1.7-.1-3.4-.2-5-.2-2.7-.1-8.4-.7-11-.4-1.3.2-2.1-.1-3.6.3-1.7 0-2-.2-2.9.1-1.4.5-2.9 1-4.4 1.5-1.5.4-2.9 1.2-4 2.1L73.5 29c-2.6 2.1-4.6 3.7-7 6.1-2.5 2.5-5.1 4.8-8 6.8-2.5 1.7-4.8 3.5-7.5 4.8-2.6 1.2-5.1 2.4-7.9 3.1-.9.2-1.7.7-2.5 1.3-1.2.8-2.8 1.3-4.3 1.6-.8.1-1.6.3-2.4.6-.1.6.2 1.2.3 1.7 1.9-.4 3.8-1.2 5.6-2 .4-.2.9-.6 1.4-.3.8.5 1.3.1 2-.3.5-.3 1-.5 1.6-.6.8-.2 1.6-.4 2.3-.7 1.9-.7 3.8-1.6 5.8-2.1 1.4-.4 2.7-1 3.9-1.9 1.7-1.2 3.3-2.6 5.4-3.1 1-.2 1.8-1.1 2.5-1.8.4-.4.7-.9 1.1-1.2 2-1.5 3.1-3.6 4.5-5.5 1.7-2.4 3.4-4.9 6-6.5.6-.3 1.1.2 1.5-.4.8-1.1 1.7-2 3-2.6.5-.2 1-.6 1.4-1 1.4-1.1 2.9-1 4.6-1.6 1.3-.4 2.7.4 3.8-.4 1.3-1 2.7-1.3 4.2-1.6 4.2-.7 11.4.4 15.6.6 3.5.2 7 .5 10.5.7 4.4.1 10.5-.7 14.8-.1.5.1.9.2 1.1.8.5 1.3 1.6 1.7 2.9 1.8l3 .3c2.1.2 4 1.1 5.5 2.6.5.5 1.1 1 1.7 1.3.8.4 1.5 1 2.1 1.7 1 1 2 2 2.9 3 .4.4.9.9 1.5 1.1 1.3.5 2.2 1.5 3.1 2.5.9 1.1 1.7 2.3 2.9 3.2 1.5 1.4 3.3 2.5 4.8 4z"/><path fill="#F7D5CB" d="M181.9 77.1c0-.4-.2-.6-.5-.8-2-1.5-4-3-5.9-4.6-.3-.2-.6-.4-.8-.8-1.3-2.7-3.5-4.8-5.2-7.2-.5-.7-1.3-1.1-2.1-1.5-.9-.5-1.1-.2-1.1.8 0 .1.1.3-.1.4-1.1-.6-2-1.5-2.7-2.5-.6-.9-1.2-1.7-1.8-2.6-.3-.4-.7-.9-1.3-.4-.2.2-.4.1-.6-.1l-.4-.4c-1.9-2.4-4.5-3.4-7.5-3.9-1.3-.2-2.6-.4-3.8-.6-1.3-.2-2.1.2-2.6 1.4.6.9.7 2 1.1 3 1.2 2.8 5.9 9.4 7.7 11.9.7 1 1.4 1.9 2.2 2.9.3.4.6.5.8-.1-.8-.6-1.3-1.5-1.8-2.4-.9-2-5.1-7.9-6.4-9.7-1-1.4-1.8-2.9-2.6-4.5-.5-.9-.3-1.2.8-1.1 1 .1 2 .3 2.9.6 1.2.3 2.4.7 3.6 1 1.2.3 2.1.9 2.9 1.7 1.8 1.8 3.2 3.9 5 5.8 2.6 2.7 5.3 3.3 8.3 5.5 1.5 1.1 3.1 4.1 4.9 4.8 1.4.5 2.5 1.6 3.8 2.3 1 .6 2 1.3 3.2 1.1zM34.1 55c-.1-.6-.4-1.1-.3-1.7-.8-.1-1.5.2-2.3.4-2.7.2-5.3-.7-6.8-.7-1.3 0-1.4.1-1.2 1.5 1.4 2.2 3.6 4 4.7 5 2.4 2.3 5.3 4 8.6 4.7 1.7.4 3.4.5 5.1.8 0-.7-.6-.8-1.1-.9-1.7-.3-2.6-1.8-4-2.7-.4-.2-.4-.7-.3-1.2.4-1.1.3-1.7-.7-2.2-1-.5-1.3-1.3-1.5-2.2-.3-.1-.3-.5-.2-.8z"/><path fill="#2D253A" d="M157.2 72.1c-.2.5-.5.4-.8.1-.7-1-1.5-1.9-2.2-2.9-1.7-2.5-6.4-9.1-7.7-11.9-.4-1-.4-2.1-1.1-3-1.7.9-2.6 2.3-3.1 4.1.4.1.5.5.7.8 1.6 2.3 6.2 8.5 7.8 10.8.9 1.4 2.2 2.5 3 4 .2.3.5.5.8.6 1.6.7 3.3 1.1 5 1 .9-.1 1.2-.5 1-1.3-.4-1.5-1.8-2.4-3.4-2.3z"/><path fill="#F7D5CB" d="M137.8 50.2c-.8-.7-1.6-1.5-2.4-2.2-1.1-1.1-2.4-1.8-3.9-2-2.7-.4-10.5-2.7-13.2-3.1-.4 0-.8-.1-1.1 0-.6 0-.8.4-.8 1 1.4-.3 2.7 0 4 .3 2.1.6 9.3 3 11.2 4.2.5.3 1.1.5 1.7.7 1.3.4 2.6 1 3.7 1.9.3.3.7.3 1.1.4 0-.5-.1-.9-.3-1.2z"/><path fill="#2D253A" d="M113.1 66.9c-.6-1-1.2-2.1-1.6-3.2-1-2.6-4.5-8.1-5.3-10.8-.5-1.6-.6-1.6 1.1-2 1.4-.4 2.8-.8 4.1-1.4 2.4-1.2 4.1-3.1 5-5.6-.9.4-1.3 1.4-1.9 2.1-1.8 2.4-4.2 3.5-6.9 4.3-.9.3-1.9.4-2.7 1.1-.3-.1-.6-.3-.8-.2-1.9.4-3.8 1-5.7 1.2-.2 0-.4.3-.5.5 1 1.5 2 2.9 3.2 4.2 2.3 2.3 6.3 7.8 8.2 10.4.6.8 1 1.6 1.5 2.5.4.7 1 1.1 1.9 1 1.1-.1 2.2 0 3.3 0 .5 0 1-.1 1.2-.6.2-.5 0-.9-.3-1.3-1-1.5-2-2.6-3.8-2.2z"/><path fill="#100E16" d="M85.7 55.6c-.6.8-.4 1.8-.5 2.7-.2 2.6-.2 5.2.6 7.7.2.7.1 1.5.4 2.2.2.4.3 1 1 .6-.3-.8-.6-1.6-.6-2.5 0-3.5-.4-7.1-.9-10.7z"/><path fill="#F7D5CB" d="M137.8 50.2c.2.4.3.8.2 1.2.2 1.2-.1 2.4.2 3.6.4-.4.5-1 .4-1.5-.1-1.4.3-2.6.4-4 0-1 .3-1.8 1.1-2.4.2-.1.4-.3.4-.6-1.2 0-2.1.8-2.3 1.9-.3.6-.3 1.2-.4 1.8z"/><g fill="#100E16"><path d="M183.3 75.1c-.7-2.8-1.5-5.5-2.9-7.9-.5-.8-.5-1.6-.4-2.5.1-.9.3-1.8.4-2.7.2-2.5.3-4.9-1.1-7.1-.6-1-.6-2-.6-3.1.1-2.1-.2-4.2-.6-6.3-.3-1.7-.8-3.4-1.2-5-.3-1.4-1-2.7-1.5-4-.1-.2-.2-.4-.4-.6-.6-.7-1.1-.6-1.6.1-.1.1-.1.3-.2.4-1 2.4-2.1 4.7-3.1 7.1.1 1.2-.2 1.6-1.3 1.7-.6 0-1.1-.1-1.7-.2-1.5-1.5-3.3-2.7-4.9-4-1.1-.9-1.9-2.1-2.9-3.2-.9-1-1.8-2-3.1-2.5-.6-.2-1.1-.6-1.5-1.1-1-1-2-2-2.9-3-.6-.7-1.3-1.2-2.1-1.7-.6-.3-1.2-.8-1.7-1.3-1.5-1.5-3.3-2.4-5.5-2.6l-3-.3c-1.2-.1-2.4-.5-2.9-1.8-.2-.5-.6-.7-1.1-.8-4.3-.6-10.4.3-14.8.1-3.5-.1-7-.5-10.5-.7-4.2-.2-11.4-1.4-15.6-.6-1.6.3-2.9.6-4.2 1.6-1.1.8-2.5 0-3.8.4-1.7.5-3.2.4-4.6 1.6-.4.4-.9.8-1.4 1-1.3.5-2.2 1.5-3 2.6-.4.5-.9 0-1.5.4-2.6 1.6-4.3 4.1-6 6.5-1.4 1.9-2.6 4.1-4.5 5.5-.4.3-.7.8-1.1 1.2-.7.6-1.5 1.4-2.5 1.7-2.2.5-3.8 1.9-5.4 3.1-1.2.9-2.4 1.5-3.9 1.9-2 .5-3.9 1.4-5.8 2.1-.8.3-1.5.6-2.3.7-.6.1-1.1.3-1.6.6-.6.4-1.2.8-2 .3-.5-.3-.9.1-1.4.3-1.8.8-3.6 1.5-5.6 2-.1.3-.1.7.3.9.4 0 .8-.1 1.2-.3-.4.1-.8.3-1.2.3.2 1 .5 1.7 1.5 2.2.9.5 1.1 1 .7 2.2-.2.5-.1.9.3 1.2 1.4.9 2.3 2.3 4 2.7.5.1 1.1.2 1.1.9 3.7.4 7.4 0 11-.8 4.5-.9 9.2-3.2 13.1-7.3.5-.5 1.3-.7 1.8-1.1 5.6-4.4 10.5-8.2 14-14.4 1.9-3.4 2.9-6.3 4-9 .4-1 1.4-.1 2.1-1 .3.3.2.6.2.8-.4 4 .2 7.9 1.1 11.9l.6 3c.2.7-.1 1-.7 1.3-1.9.7-3.6 1.7-5.5 2.4s-3.4 2.7-3.2 5c.1 1 .2 1.9.4 2.8.7 3.1 1.5 6.2 2.3 9.2.2.6.4 1.3.6 1.9.3.8.7 1.4 1.6 1.6.9.2 1.7.7 2.5 1 .3.1.6.4 1 .1.4-.3 1.2-.2 1.4-.9.1-.4-.9-2-1.4-2.1-.5-.1-.9-.5-1.5-.5-.7.3-.8-.2-1-.6-.3-.7-.2-1.5-.4-2.2-.8-2.5-.8-5.1-.6-7.7.1-.9-.1-1.9.5-2.7 3.7-1.4 7.6-2.2 11.5-2.9h.6c.1-.2.3-.5.5-.5 2-.2 3.8-.8 5.7-1.2.2 0 .5.2.8.2.8-.7 1.8-.9 2.7-1.1 2.7-.8 5.2-1.9 6.9-4.3.5-.7 1-1.6 1.9-2.1-.1-.6.1-.9.8-1h1.1c2.7.4 10.5 2.7 13.2 3.1 1.5.2 2.8.9 3.9 2 .8.8 1.6 1.5 2.4 2.2.1-.6.2-1.1.3-1.7.2-1.1 1.1-1.9 2.3-1.9 0 .3-.2.4-.4.6-.8.6-1.1 1.4-1.1 2.4 0 1.3-.4 2.6-.4 4 0 .5-.1 1-.4 1.5-.1 1.7-.8 7.4-1.3 9-.1.5-.3.9-.4 1.4-.1.6-.4 1-1.1 1.2-2.1.5-3 2.3-4.1 3.8-.4.6-.2 1.3.2 1.7.4.5 1.1.5 1.7.2 2.7-1.5 5.3-3.2 6.5-6.2.5-1.2 2.3-6.3 2.7-7.6.5-1.8 1.4-3.2 3.1-4.1.6-1.2 1.3-1.6 2.6-1.4 1.3.2 2.6.4 3.8.6 2.9.4 5.5 1.5 7.5 3.9l.4.4c.2.2.3.3.6.1.6-.6 1 0 1.3.4.6.8 1.2 1.7 1.8 2.6.7 1 1.5 2 2.7 2.5.1-.1.1-.3.1-.4-.1-1 .2-1.3 1.1-.8.8.4 1.5.9 2.1 1.5 1.8 2.4 4 4.4 5.2 7.2.2.4.5.6.8.8 2 1.5 3.9 3 5.9 4.6.3.2.5.5.5.8 1.7-.5 1.9-.7 1.5-2.2zM35.8 55.5c.2-.1.4-.1.6-.2-.2.1-.4.2-.6.2z"/></g></svg>