<svg xmlns="http://www.w3.org/2000/svg" xmlns:xlink="http://www.w3.org/1999/xlink" viewBox="0 0 220 100"><path opacity=".5" fill="#100E16" d="M189.1 90.3c-20.9-8.5-44.8-8.8-67.1-9.1-23.3-.3-46.7 1.5-69.5 6.4-.9.2-1.1 1.1-.7 1.7l-2.4 1.2h-.1c-.3-.4-.7-.7-1.4-.6-2.7.4-5 1.3-7.4 2.5-1.3.7-.4 2.6 1 2.3 10-2.1 20.1-3.9 30.3-5.3-3.9 1.7-7.7 3.8-11.2 6.4-1.1.8-.5 2.6 1 2.3 15.8-3.2 31.8-5.9 47.9-6.1 15.7-.2 30.8 3.7 46.4 4.2 1.4.1 1.7-2.1.3-2.5-3.8-1.1-7.5-2-11.4-2.8 14.7-.2 29.4.3 44.1 1.8 1.4.2 1.4-2 .2-2.4z"/><path fill="#100E16" d="M211.2 34.2c-1.7-.7-3.3-1.5-5-2.1-2.1-.8-4.4-1.4-5.5-3.8-.1-.1-.2-.2-.3-.4-1.7-1.8-3.7-3.2-6.2-3.7-.9-.2-1.6-.6-2.1-1.5-.6-1.3-1.4-2.5-2.4-3.6-.2-.2-.4-.5-.6-.6-.7-.4-1-.2-1.1.6-.1.5.1 1.2-.2 1.7-2.3-1.7-4.4-3.3-7.2-3.9-.7-.2-.6.3-.6.7-.2 2.4 0 4.7.8 7-2.6 1-5.2 1.7-7.8 2.3-3.3.7-6.7 1.4-10 2.1-.6.1-1.1.3-1.3.8-.3.7-.8.7-1.3.7-.6 0-1.2 0-1.8-.1-3.5-.6-7.1-.8-10.7-.9-1.1-.1-2.2-.2-3.3-.5-1.5-.5-3.1-.7-4.8-.8-1.1-.1-2.2-.1-3.1-.5-3.7-1.4-7.6-2.3-11.4-3.6-3.5-1.2-7-2.1-10.8-2h-4.8c-1.5 0-2.9.2-4.2 1.1-.8.6-1.5.6-2.4.4-1.7-.5-3.5-1-5.2-1.5-5.1-1.3-10-3.3-15-5.2-4-1.5-7.9-3.5-12-5-3.2-1.2-6.2-2.8-9.6-3.6-4.1-1-8.3-1.6-12.5-1.9-.9 0-1.7 0-2.6.1-4.3.5-8.6 1.5-13 1.7-4 .2-7.9.2-11.8-1 .1.8-.3 1.3-1 1.7.9.7 1.7.7 2.6.7.3.4.4.7.3 1.2-1.7.2-3.3-.1-4.9-.4-.1.7.5 1 .8 1.4.6.6 1.3 1.2 2 1.9.3.3.4.6.2.9-.2.3-.6.3-.9.2-.9-.5-1.9-.9-2.8-1.4 0 .2-.1.4-.1.6.3.4.6.8.8 1.2.2.3.2.7 0 1-.3.3-.7.3-1 .1l-.9-.6c-.5-.4-.6.1-.8.3.7 1 1.5 1.9 2.4 2.7 2.7 2.6 5.8 4.6 9.1 6.4 4.4 2.4 9.1 3.6 14.1 4.3 4.9.7 9.8.3 14.6 0 4.1-.3 8.2-1 12.3-1.7 4.9-.7 9.9-1.2 14.8-1.7 4.2-.4 8.5-.2 12.6.6 1.8.4 3.7.8 5.6 1.5-.3.4-.5.8-.8 1.1-2.8 3.8-5 7.9-5.7 12.7-.2 1.1-.9 1.4-1.7 1.5-1.6.2-3.3.5-4.9.6-1.1.1-2-.1-2.8-.6-.3-.1-.5-.3-.8-.4-1.5-.9-3.1-1.1-4.8-.7-1.7.4-3.4.9-5 1.6-2.4 1.1-4.8 2-7.4 2.4-.7.1-1.4.2-2.1 0-.9-.2-1.8-.1-2.7.2-1 .4-1.1 1.3-.2 1.9.5.4 1.2.6 1.8.8.9.3 1.9 0 2.8.1 2.5.1 4.8-.4 7-1.6.6-.3 1.2-.5 1.9-.5 2 .1 4 .6 6 .8 2.3-.2 4.3.7 6.4 1.3.1 0 .1.2.2.2.5-.1 1.1-.4 1.6-.3 2.2.4 4.4.7 6.6 1.4 2.3.8 4.6 1.6 6.9 2 2.2.4 4.4.5 6.3-.7 2.5-1.4 5.1-2.7 7.5-4.5 2-1.4 4-2.7 6-4 .4-.3.8-.6 1.4-.2 1.5.8 3 1.6 4.6 2.3.8.9 1.8 1.5 2.9 1.9.3.3.7.4 1.2.3.8-.1 1.5.2 2.2.4 2.1.7 4.1 1.1 6.3 1.3 1.8.2 3.5.3 5.3.4 2.7.1 5.3.5 8 .2 1.1-.1 2.1.3 2.5 1.5.2.1.4.2.5.3 2.5 2.1 5.3 3.8 8.4 5 2.4.9 4.9 1.9 7.6 1.8 1.6-.1 3.1-.6 4.6-.9.6-.1 1.1-.2 1.6 0 4.5 1.5 9.1 1.9 13.8 2.4.9.1 1.7.4 2.3 1.1 1.2 1.4 2.6 2.5 4.3 3.3.7.3 1.4.5 2.2.3 1.2-.2 1.5-1.2.7-2.1-.3-.3-.7-.6-1-.9-2.8-2.5-6.1-4-9.5-5.5-.6-.1-1.2-.2-1.6-.6-2.5-1.2-5.4-1.4-7.8-2.9-1.5-.9-2.9-1.9-4.3-3-.3-.3-.6-.6-.5-1-.7-.1-.7-.7-1.1-1.1-.8-1-1.8-1.9-2.3-3.2-.8 0-1.2-.2-.8-1.1.1-.1.4-.3 0-.5-1.1-.5-.3-.8.1-1.1 2.1-1.4 4.3-1.8 6.8-1.7 2 0 4.1.3 6.1-.3.7-.2 1.4-.5 2-1 .4-.4.6-.8.5-1.3-.5-.2-1 .2-1.4-.2-.1-.4.2-.6.5-.7 3-1.4 6-2.2 9.3-1.2 2.8.8 5.7 1.6 8.7 1.6.7 0 1.3 0 1.9-.3.3-.1.6-.3.8.1.6-.2 1.1-.6 1.5-1 .5-.3.5-1.2-.4-1.6z"/><path fill="#100E16" d="M189 40.9c2.5-1 5-2.1 7.8-1.8 2.6.3 4.6 1.2 7.3.5.8-.2 4.2-.9 4.7-1.9 0-.1 0-.1.1-.2 0 0 0-.1.1-.1.2-.4.6-.4.9-.3l.1-.1c-.2-.4-.5-.3-.8-.1-.6.4-1.2.3-1.9.3-3 0-5.9-.8-8.7-1.6-3.3-1-6.3-.2-9.3 1.2-.3.1-.6.3-.5.7.4.4 1-.1 1.4.2 0-.1.1-.1.1-.2l.1.1c0 .1-.1.1-.2.1.1.5-.1.9-.5 1.3-.6.5-1.2.8-2 1-2 .5-4.1.3-6.1.3-2.5 0-4.8.3-6.8 1.7-.4.3-1.2.6-.1 1.1.3.1 0 .3 0 .5-.4.8 0 1.1.8 1.1-.2-.3-.2-.9.2-1.1 1-.6 1.9-.8 2.9-.9 1.7-.5 3.5-1 5.1-1.1 1.7-.2 3.3.1 5-.1-.1-.3 0-.5.3-.6zM23.2 9.6c-.9 0-1.8 0-2.6-.7.7-.4 1.1-.9 1-1.7-.1 0-.2-.1-.3-.1-.1.3-.4.5-.9.5-.8-.1-1.6-.3-2.5-.5-.3 0-.6 0-1 .1-.5.1-.8-.2-.9-.6-1.4-.5-2.8-1.1-4.1-1.9-.5-.3-2.8-2.3-3.2-1.7-.3.3.6 2 .7 2.3 1.5 3.6 3.7 7.2 6.1 10.3.1.1.1.3.2.4h.1c.2-.2.3-.7.8-.3.3.2.5.4.9.6.3.2.7.2 1-.1.3-.3.2-.7 0-1-.3-.4-.6-.8-.8-1.2-.4-.2-.7-.6-.8-1 .4-.1.7.1.9.3.9.4 1.9.9 2.8 1.4.4.2.7.2.9-.2.2-.3.1-.7-.2-.9-.7-.6-1.3-1.2-2-1.9-.4-.4-.9-.7-.8-1.4 1.6.2 3.3.6 4.9.4.2-.4 0-.8-.2-1.1zM16.7 13c0-.1 0-.1 0 0zM191.2 56c-2.5-1.2-5.4-1.4-7.8-2.9-1.5-.9-2.9-1.9-4.3-3-.3-.3-.6-.6-.5-1 2.2.6 4.4 1.1 6.5 1.8 5.7 1.8 11.5 3.1 17.4 3.7 1.8.2 3 1.4 4.1 2.6.5.5.3 1.1-.4 1.5-.4.3-.9.4-1.4.4-1.7-.1-3.4-.2-4.6-1.5-.6-.6-1.3-.6-1.9-.7-1.8-.3-3.6-.5-5.4-.7-.5-.4-1.1-.3-1.7-.2zM81.6 48c2.3-.2 4.3.7 6.4 1.3.1 0 .1.2.2.2-1.1.7-2.2 1.1-3.4 1.5-2 .8-3.8 2-5.7 3-3 1.5-6.2 2.6-9.5 3.2-.7.1-1.4.1-2.1.1-.9-.1-1.4-.5-1.5-1.4-.2-.8 0-1.5.7-2 .8-.5 1.7-.7 2.6-.8.6-.1 1.2-.2 1.8-.2 2 .1 3.5-1 5.1-1.9 1.7-.9 3.5-2 5.4-3zM145.6 50.6c1.9.2 3.8.3 5.6.5.1 0 1.4.2 2.6.3 1 0 2 0 3-.1.3 0 .5.1.6.3-.4-1.2-1.4-1.6-2.5-1.5-2.7.3-5.3-.2-8-.2-1.8-.1-3.5-.2-5.3-.4-2.2-.2-4.2-.7-6.3-1.3-.7-.2-1.4-.6-2.2-.4v.1h.4c.5.2.9.3 1.4.5.2.1.3.2.4.3 2.2.8 4.8 1.3 7 1.8l2.4.6c.3-.3.5-.5.9-.5zM181.9 26.7v-.1"/><path fill="#100E16" d="M16.7 13c.4-.1.7.1 1 .3 0 .2-.1.4-.1.6-.4-.1-.7-.4-.9-.9zM190.1 37.8c0-.1.1-.1.1-.2l.1.1c0 .1 0 .1-.2.1zM16.8 13l-.1-.1.1.1z"/><defs><path id="a" d="M211.2 34.2c-1.7-.7-3.3-1.5-5-2.1-2.1-.8-4.4-1.4-5.5-3.8-.1-.1-.2-.2-.3-.4-1.7-1.8-3.7-3.2-6.2-3.7-.9-.2-1.6-.6-2.1-1.5-.6-1.3-1.4-2.5-2.4-3.6-.2-.2-.4-.5-.6-.6-.7-.4-1-.2-1.1.6-.1.5.1 1.2-.2 1.7-2.3-1.7-4.4-3.3-7.2-3.9-.7-.2-.6.3-.6.7-.2 2.4 0 4.7.8 7-2.6 1-5.2 1.7-7.8 2.3-3.3.7-6.7 1.4-10 2.1-.6.1-1.1.3-1.3.8-.3.7-.8.7-1.3.7-.6 0-1.2 0-1.8-.1-3.5-.6-7.1-.8-10.7-.9-1.1-.1-2.2-.2-3.3-.5-1.5-.5-3.1-.7-4.8-.8-1.1-.1-2.2-.1-3.1-.5-3.7-1.4-7.6-2.3-11.4-3.6-3.5-1.2-7-2.1-10.8-2h-4.8c-1.5 0-2.9.2-4.2 1.1-.8.6-1.5.6-2.4.4-1.7-.5-3.5-1-5.2-1.5-5.1-1.3-10-3.3-15-5.2-4-1.5-7.9-3.5-12-5-3.2-1.2-6.2-2.8-9.6-3.6-4.1-1-8.3-1.6-12.5-1.9-.9 0-1.7 0-2.6.1-4.3.5-8.6 1.5-13 1.7-4 .2-7.9.2-11.8-1 .1.8-.3 1.3-1 1.7.9.7 1.7.7 2.6.7.3.4.4.7.3 1.2-1.7.2-3.3-.1-4.9-.4-.1.7.5 1 .8 1.4.6.6 1.3 1.2 2 1.9.3.3.4.6.2.9-.2.3-.6.3-.9.2-.9-.5-1.9-.9-2.8-1.4 0 .2-.1.4-.1.6.3.4.6.8.8 1.2.2.3.2.7 0 1-.3.3-.7.3-1 .1l-.9-.6c-.5-.4-.6.1-.8.3.7 1 1.5 1.9 2.4 2.7 2.7 2.6 5.8 4.6 9.1 6.4 4.4 2.4 9.1 3.6 14.1 4.3 4.9.7 9.8.3 14.6 0 4.1-.3 8.2-1 12.3-1.7 4.9-.7 9.9-1.2 14.8-1.7 4.2-.4 8.5-.2 12.6.6 1.8.4 3.7.8 5.6 1.5-.3.4-.5.8-.8 1.1-2.8 3.8-5 7.9-5.7 12.7-.2 1.1-.9 1.4-1.7 1.5-1.6.2-3.3.5-4.9.6-1.1.1-2-.1-2.8-.6-.3-.1-.5-.3-.8-.4-1.5-.9-3.1-1.1-4.8-.7-1.7.4-3.4.9-5 1.6-2.4 1.1-4.8 2-7.4 2.4-.7.1-1.4.2-2.1 0-.9-.2-1.8-.1-2.7.2-1 .4-1.1 1.3-.2 1.9.5.4 1.2.6 1.8.8.9.3 1.9 0 2.8.1 2.5.1 4.8-.4 7-1.6.6-.3 1.2-.5 1.9-.5 2 .1 4 .6 6 .8 2.3-.2 4.3.7 6.4 1.3.1 0 .1.2.2.2.5-.1 1.1-.4 1.6-.3 2.2.4 4.4.7 6.6 1.4 2.3.8 4.6 1.6 6.9 2 2.2.4 4.4.5 6.3-.7 2.5-1.4 5.1-2.7 7.5-4.5 2-1.4 4-2.7 6-4 .4-.3.8-.6 1.4-.2 1.5.8 3 1.6 4.6 2.3.8.9 1.8 1.5 2.9 1.9.3.3.7.4 1.2.3.8-.1 1.5.2 2.2.4 2.1.7 4.1 1.1 6.3 1.3 1.8.2 3.5.3 5.3.4 2.7.1 5.3.5 8 .2 1.1-.1 2.1.3 2.5 1.5.2.1.4.2.5.3 2.5 2.1 5.3 3.8 8.4 5 2.4.9 4.9 1.9 7.6 1.8 1.6-.1 3.1-.6 4.6-.9.6-.1 1.1-.2 1.6 0 4.5 1.5 9.1 1.9 13.8 2.4.9.1 1.7.4 2.3 1.1 1.2 1.4 2.6 2.5 4.3 3.3.7.3 1.4.5 2.2.3 1.2-.2 1.5-1.2.7-2.1-.3-.3-.7-.6-1-.9-2.8-2.5-6.1-4-9.5-5.5-.6-.1-1.2-.2-1.6-.6-2.5-1.2-5.4-1.4-7.8-2.9-1.5-.9-2.9-1.9-4.3-3-.3-.3-.6-.6-.5-1-.7-.1-.7-.7-1.1-1.1-.8-1-1.8-1.9-2.3-3.2-.8 0-1.2-.2-.8-1.1.1-.1.4-.3 0-.5-1.1-.5-.3-.8.1-1.1 2.1-1.4 4.3-1.8 6.8-1.7 2 0 4.1.3 6.1-.3.7-.2 1.4-.5 2-1 .4-.4.6-.8.5-1.3-.5-.2-1 .2-1.4-.2-.1-.4.2-.6.5-.7 3-1.4 6-2.2 9.3-1.2 2.8.8 5.7 1.6 8.7 1.6.7 0 1.3 0 1.9-.3.3-.1.6-.3.8.1.6-.2 1.1-.6 1.5-1 .5-.3.5-1.2-.4-1.6z"/></defs><use xlink:href="#a" overflow="visible" fill="#100E16"/><clipPath id="b"><use xlink:href="#a" overflow="visible"/></clipPath><path clip-path="url(#b)" fill="#100E16" d="M180.4 24.7c-1-2.8-3.5-2.3-5.9-1.4-1.2.5-2.4 1-3.6 1.6-3.6 1-7.1 2-10.7 3-.4.1-.7.3-.9.6-9.5-.7-18.8-1.3-27.6-5.6-3.8-1.8-7.2-3.5-11.5-4.2-2.1-.3-4.2-.7-6.3-.8-2.7-.1-5.5.7-8.1 0-2-.5-2.9 2.6-.9 3.1 2.3.5 4.3.2 6.6.1 2.8-.1 5.6.3 8.4.8 4.7.8 8.6 3.2 13 5.1 8.9 3.8 18.2 4.1 27.7 4.8.7.1 1.3-.5 1.5-1.2.2-.1.4-.1.5-.2.3.3.8.4 1.3.3 2.4-.4 4.5-1.1 6.7-2.1.3-.1 1.1-.5 2-1 1.4-.4 2.8-.8 4.1-1.2.2.1.4.1.7.1h1.2c1.3.2 2.2-.8 1.8-1.8z"/><g><path fill="#100E16" d="M211.2 34.2c-1.7-.7-3.3-1.5-5-2.1-2.1-.8-4.4-1.4-5.5-3.8-.1-.1-.2-.2-.3-.4-1.7-1.8-3.7-3.2-6.2-3.7-.9-.2-1.6-.6-2.1-1.5-.6-1.3-1.4-2.5-2.4-3.6-.2-.2-.4-.5-.6-.6-.7-.4-1-.2-1.1.6-.1.5.1 1.2-.2 1.7-2.3-1.7-4.4-3.3-7.2-3.9-.7-.2-.6.3-.6.7-.2 2.4 0 4.7.8 7-2.6 1-5.2 1.7-7.8 2.3-3.3.7-6.7 1.4-10 2.1-.6.1-1.1.3-1.3.8-.3.7-.8.7-1.3.7-.6 0-1.2 0-1.8-.1-3.5-.6-7.1-.8-10.7-.9-1.1-.1-2.2-.2-3.3-.5-1.5-.5-3.1-.7-4.8-.8-1.1-.1-2.2-.1-3.1-.5-3.7-1.4-7.6-2.3-11.4-3.6-3.5-1.2-7-2.1-10.8-2h-4.8c-1.5 0-2.9.2-4.2 1.1-.8.6-1.5.6-2.4.4-1.7-.5-3.5-1-5.2-1.5-5.1-1.3-10-3.3-15-5.2-4-1.5-7.9-3.5-12-5-3.2-1.2-6.2-2.8-9.6-3.6-4.1-1-8.3-1.6-12.5-1.9-.9 0-1.7 0-2.6.1-4.3.5-8.6 1.5-13 1.7-4 .2-7.9.2-11.8-1 .1.8-.3 1.3-1 1.7.9.7 1.7.7 2.6.7.3.4.4.7.3 1.2-1.7.2-3.3-.1-4.9-.4-.1.7.5 1 .8 1.4.6.6 1.3 1.2 2 1.9.3.3.4.6.2.9-.2.3-.6.3-.9.2-.9-.5-1.9-.9-2.8-1.4 0 .2-.1.4-.1.6.3.4.6.8.8 1.2.2.3.2.7 0 1-.3.3-.7.3-1 .1l-.9-.6c-.5-.4-.6.1-.8.3.7 1 1.5 1.9 2.4 2.7 2.7 2.6 5.8 4.6 9.1 6.4 4.4 2.4 9.1 3.6 14.1 4.3 4.9.7 9.8.3 14.6 0 4.1-.3 8.2-1 12.3-1.7 4.9-.7 9.9-1.2 14.8-1.7 4.2-.4 8.5-.2 12.6.6 1.8.4 3.7.8 5.6 1.5-.3.4-.5.8-.8 1.1-2.8 3.8-5 7.9-5.7 12.7-.2 1.1-.9 1.4-1.7 1.5-1.6.2-3.3.5-4.9.6-1.1.1-2-.1-2.8-.6-.3-.1-.5-.3-.8-.4-1.5-.9-3.1-1.1-4.8-.7-1.7.4-3.4.9-5 1.6-2.4 1.1-4.8 2-7.4 2.4-.7.1-1.4.2-2.1 0-.9-.2-1.8-.1-2.7.2-1 .4-1.1 1.3-.2 1.9.5.4 1.2.6 1.8.8.9.3 1.9 0 2.8.1 2.5.1 4.8-.4 7-1.6.6-.3 1.2-.5 1.9-.5 2 .1 4 .6 6 .8 2.3-.2 4.3.7 6.4 1.3.1 0 .1.2.2.2.5-.1 1.1-.4 1.6-.3 2.2.4 4.4.7 6.6 1.4 2.3.8 4.6 1.6 6.9 2 2.2.4 4.4.5 6.3-.7 2.5-1.4 5.1-2.7 7.5-4.5 2-1.4 4-2.7 6-4 .4-.3.8-.6 1.4-.2 1.5.8 3 1.6 4.6 2.3.8.9 1.8 1.5 2.9 1.9.3.3.7.4 1.2.3.8-.1 1.5.2 2.2.4 2.1.7 4.1 1.1 6.3 1.3 1.8.2 3.5.3 5.3.4 2.7.1 5.3.5 8 .2 1.1-.1 2.1.3 2.5 1.5.2.1.4.2.5.3 2.5 2.1 5.3 3.8 8.4 5 2.4.9 4.9 1.9 7.6 1.8 1.6-.1 3.1-.6 4.6-.9.6-.1 1.1-.2 1.6 0 4.5 1.5 9.1 1.9 13.8 2.4.9.1 1.7.4 2.3 1.1 1.2 1.4 2.6 2.5 4.3 3.3.7.3 1.4.5 2.2.3 1.2-.2 1.5-1.2.7-2.1-.3-.3-.7-.6-1-.9-2.8-2.5-6.1-4-9.5-5.5-.6-.1-1.2-.2-1.6-.6-2.5-1.2-5.4-1.4-7.8-2.9-1.5-.9-2.9-1.9-4.3-3-.3-.3-.6-.6-.5-1-.7-.1-.7-.7-1.1-1.1-.8-1-1.8-1.9-2.3-3.2-.8 0-1.2-.2-.8-1.1.1-.1.4-.3 0-.5-1.1-.5-.3-.8.1-1.1 2.1-1.4 4.3-1.8 6.8-1.7 2 0 4.1.3 6.1-.3.7-.2 1.4-.5 2-1 .4-.4.6-.8.5-1.3-.5-.2-1 .2-1.4-.2-.1-.4.2-.6.5-.7 3-1.4 6-2.2 9.3-1.2 2.8.8 5.7 1.6 8.7 1.6.7 0 1.3 0 1.9-.3.3-.1.6-.3.8.1.6-.2 1.1-.6 1.5-1 .5-.3.5-1.2-.4-1.6z"/><path fill="#FFF" d="M175.3 44.7c-.8 0-1.2-.2-.8-1.1.1-.1.4-.3 0-.5-1.1-.5-.3-.8.1-1.1 2.1-1.4 4.3-1.8 6.8-1.7 2 0 4.1.3 6.1-.3.7-.2 1.4-.5 2-1 .4-.4.6-.8.5-1.3.1 0 .2 0 .2-.1 0 0 0-.1-.1-.1 0 .1-.1.1-.1.2-.5-.2-1 .2-1.4-.2-.1-.4.2-.6.5-.7 3-1.4 6-2.2 9.3-1.2 2.8.8 5.7 1.6 8.7 1.6.7 0 1.3 0 1.9-.3.3-.1.6-.3.8.1-1.9 2.1-4.4 2.8-7.1 3-2.5.2-4.9-.1-7.4-.3-.2 0-.4-.1-.6 0-1.6.7-3.4.6-4.9 1.5-.8.4-1.7.7-2.5 1.1-.8.4-1.6.6-2.4-.1-.2-.2-.6-.2-.9-.1-1.9.8-4 .9-6 1.5-.8.4-1.8.7-2.7 1.1zM21.5 7.2c.1.8-.3 1.3-1 1.7.9.7 1.7.7 2.6.7.3.4.4.7.3 1.2-1.7.2-3.3-.1-4.9-.4-.1.7.5 1 .8 1.4.6.6 1.3 1.2 2 1.9.3.3.4.6.2.9-.2.3-.6.3-.9.2-.9-.5-1.9-.9-2.8-1.4-.3-.3-.5-.5-1-.3 0-.2 0-.2-.1-.1l.1.1c.2.4.4.8.8 1 .3.4.6.8.8 1.2.2.3.2.7 0 1-.3.3-.7.3-1 .1l-.9-.6c-.5-.4-.6.1-.8.3-.4 0-.6-.3-.9-.5-1.8-2.3-3.6-4.7-5-7.3-.6-1.4-1.1-2.7-1.5-4.1-.2-.7-.4-1.6.2-2.1.8-.6 1.5.1 2.1.6 2.1 1.5 4.2 3.2 6.9 3.6 1.3.3 2.7.4 4 .9z"/><path fill="#482B47" d="M191.2 56c-2.5-1.2-5.4-1.4-7.8-2.9-1.5-.9-2.9-1.9-4.3-3-.3-.3-.6-.6-.5-1 2.2.6 4.4 1.1 6.5 1.8 5.7 1.8 11.5 3.1 17.4 3.7 1.8.2 3 1.4 4.1 2.6.5.5.3 1.1-.4 1.5-.4.3-.9.4-1.4.4-1.7-.1-3.4-.2-4.6-1.5-.6-.6-1.3-.6-1.9-.7-1.8-.3-3.6-.5-5.4-.7-.5-.4-1.1-.3-1.7-.2zM81.6 48c2.3-.2 4.3.7 6.4 1.3.1 0 .1.2.2.2-1.1.7-2.2 1.1-3.4 1.5-2 .8-3.8 2-5.7 3-3 1.5-6.2 2.6-9.5 3.2-.7.1-1.4.1-2.1.1-.9-.1-1.4-.5-1.5-1.4-.2-.8 0-1.5.7-2 .8-.5 1.7-.7 2.6-.8.6-.1 1.2-.2 1.8-.2 2 .1 3.5-1 5.1-1.9 1.7-.9 3.5-2 5.4-3z"/><path fill="#FFF" d="M133.3 47.8c.8-.1 1.5.2 2.2.4 2.1.7 4.1 1.1 6.3 1.3 1.8.2 3.5.3 5.3.4 2.7.1 5.3.5 8 .2 1.1-.1 2.1.3 2.5 1.5-.4.5-.9.7-1.5.6-1.8-.5-3.7.1-5.5-.2-1.8-.4-3.7-.3-5.5-.7-2.5-.4-5-.6-7.3-1.8-.8-.4-1.8-.5-2.7-.9-.8-.1-1.5-.1-1.8-.8z"/><path fill="#100E16" d="M181.9 26.7v-.1"/><path fill="#0A4480" d="M16.7 13c.4-.1.7.1 1 .3 0 .2-.1.4-.1.6-.4-.1-.7-.4-.9-.9z"/><path fill="#021C3C" d="M190.1 37.8c0-.1.1-.1.1-.2l.1.1c0 .1 0 .1-.2.1z"/><path fill="#0A4480" d="M16.8 13l-.1-.1.1.1z"/><defs><path id="c" d="M211.2 34.2c-1.7-.7-3.3-1.5-5-2.1-2.1-.8-4.4-1.4-5.5-3.8-.1-.1-.2-.2-.3-.4-1.7-1.8-3.7-3.2-6.2-3.7-.9-.2-1.6-.6-2.1-1.5-.6-1.3-1.4-2.5-2.4-3.6-.2-.2-.4-.5-.6-.6-.7-.4-1-.2-1.1.6-.1.5.1 1.2-.2 1.7-2.3-1.7-4.4-3.3-7.2-3.9-.7-.2-.6.3-.6.7-.2 2.4 0 4.7.8 7-2.6 1-5.2 1.7-7.8 2.3-3.3.7-6.7 1.4-10 2.1-.6.1-1.1.3-1.3.8-.3.7-.8.7-1.3.7-.6 0-1.2 0-1.8-.1-3.5-.6-7.1-.8-10.7-.9-1.1-.1-2.2-.2-3.3-.5-1.5-.5-3.1-.7-4.8-.8-1.1-.1-2.2-.1-3.1-.5-3.7-1.4-7.6-2.3-11.4-3.6-3.5-1.2-7-2.1-10.8-2h-4.8c-1.5 0-2.9.2-4.2 1.1-.8.6-1.5.6-2.4.4-1.7-.5-3.5-1-5.2-1.5-5.1-1.3-10-3.3-15-5.2-4-1.5-7.9-3.5-12-5-3.2-1.2-6.2-2.8-9.6-3.6-4.1-1-8.3-1.6-12.5-1.9-.9 0-1.7 0-2.6.1-4.3.5-8.6 1.5-13 1.7-4 .2-7.9.2-11.8-1 .1.8-.3 1.3-1 1.7.9.7 1.7.7 2.6.7.3.4.4.7.3 1.2-1.7.2-3.3-.1-4.9-.4-.1.7.5 1 .8 1.4.6.6 1.3 1.2 2 1.9.3.3.4.6.2.9-.2.3-.6.3-.9.2-.9-.5-1.9-.9-2.8-1.4 0 .2-.1.4-.1.6.3.4.6.8.8 1.2.2.3.2.7 0 1-.3.3-.7.3-1 .1l-.9-.6c-.5-.4-.6.1-.8.3.7 1 1.5 1.9 2.4 2.7 2.7 2.6 5.8 4.6 9.1 6.4 4.4 2.4 9.1 3.6 14.1 4.3 4.9.7 9.8.3 14.6 0 4.1-.3 8.2-1 12.3-1.7 4.9-.7 9.9-1.2 14.8-1.7 4.2-.4 8.5-.2 12.6.6 1.8.4 3.7.8 5.6 1.5-.3.4-.5.8-.8 1.1-2.8 3.8-5 7.9-5.7 12.7-.2 1.1-.9 1.4-1.7 1.5-1.6.2-3.3.5-4.9.6-1.1.1-2-.1-2.8-.6-.3-.1-.5-.3-.8-.4-1.5-.9-3.1-1.1-4.8-.7-1.7.4-3.4.9-5 1.6-2.4 1.1-4.8 2-7.4 2.4-.7.1-1.4.2-2.1 0-.9-.2-1.8-.1-2.7.2-1 .4-1.1 1.3-.2 1.9.5.4 1.2.6 1.8.8.9.3 1.9 0 2.8.1 2.5.1 4.8-.4 7-1.6.6-.3 1.2-.5 1.9-.5 2 .1 4 .6 6 .8 2.3-.2 4.3.7 6.4 1.3.1 0 .1.2.2.2.5-.1 1.1-.4 1.6-.3 2.2.4 4.4.7 6.6 1.4 2.3.8 4.6 1.6 6.9 2 2.2.4 4.4.5 6.3-.7 2.5-1.4 5.1-2.7 7.5-4.5 2-1.4 4-2.7 6-4 .4-.3.8-.6 1.4-.2 1.5.8 3 1.6 4.6 2.3.8.9 1.8 1.5 2.9 1.9.3.3.7.4 1.2.3.8-.1 1.5.2 2.2.4 2.1.7 4.1 1.1 6.3 1.3 1.8.2 3.5.3 5.3.4 2.7.1 5.3.5 8 .2 1.1-.1 2.1.3 2.5 1.5.2.1.4.2.5.3 2.5 2.1 5.3 3.8 8.4 5 2.4.9 4.9 1.9 7.6 1.8 1.6-.1 3.1-.6 4.6-.9.6-.1 1.1-.2 1.6 0 4.5 1.5 9.1 1.9 13.8 2.4.9.1 1.7.4 2.3 1.1 1.2 1.4 2.6 2.5 4.3 3.3.7.3 1.4.5 2.2.3 1.2-.2 1.5-1.2.7-2.1-.3-.3-.7-.6-1-.9-2.8-2.5-6.1-4-9.5-5.5-.6-.1-1.2-.2-1.6-.6-2.5-1.2-5.4-1.4-7.8-2.9-1.5-.9-2.9-1.9-4.3-3-.3-.3-.6-.6-.5-1-.7-.1-.7-.7-1.1-1.1-.8-1-1.8-1.9-2.3-3.2-.8 0-1.2-.2-.8-1.1.1-.1.4-.3 0-.5-1.1-.5-.3-.8.1-1.1 2.1-1.4 4.3-1.8 6.8-1.7 2 0 4.1.3 6.1-.3.7-.2 1.4-.5 2-1 .4-.4.6-.8.5-1.3-.5-.2-1 .2-1.4-.2-.1-.4.2-.6.5-.7 3-1.4 6-2.2 9.3-1.2 2.8.8 5.7 1.6 8.7 1.6.7 0 1.3 0 1.9-.3.3-.1.6-.3.8.1.6-.2 1.1-.6 1.5-1 .5-.3.5-1.2-.4-1.6z"/></defs><clipPath id="d"><use xlink:href="#c" overflow="visible"/></clipPath><path clip-path="url(#d)" fill="#772B52" d="M180.4 24.7c-1-2.8-3.5-2.3-5.9-1.4-1.2.5-2.4 1-3.6 1.6-3.6 1-7.1 2-10.7 3-.4.1-.7.3-.9.6-9.5-.7-18.8-1.3-27.6-5.6-3.8-1.8-7.2-3.5-11.5-4.2-2.1-.3-4.2-.7-6.3-.8-2.7-.1-5.5.7-8.1 0-2-.5-2.9 2.6-.9 3.1 2.3.5 4.3.2 6.6.1 2.8-.1 5.6.3 8.4.8 4.7.8 8.6 3.2 13 5.1 8.9 3.8 18.2 4.1 27.7 4.8.7.1 1.3-.5 1.5-1.2.2-.1.4-.1.5-.2.3.3.8.4 1.3.3 2.4-.4 4.5-1.1 6.7-2.1.3-.1 1.1-.5 2-1 1.4-.4 2.8-.8 4.1-1.2.2.1.4.1.7.1h1.2c1.3.2 2.2-.8 1.8-1.8z"/></g></svg>