<svg xmlns="http://www.w3.org/2000/svg" xmlns:xlink="http://www.w3.org/1999/xlink" viewBox="0 0 220 100"><path opacity=".5" fill="#100E16" d="M192.6 89.5c-20.9-8.5-44.8-8.8-67.1-9.1-23.3-.3-46.7 1.5-69.5 6.4-.9.2-1.1 1.1-.7 1.7l-2.4 1.2h-.1c-.3-.4-.7-.7-1.4-.6-2.7.4-5 1.3-7.4 2.5-1.3.7-.4 2.6 1 2.3 10-2.1 20.1-3.9 30.3-5.3-3.9 1.7-7.7 3.8-11.2 6.4-1.1.8-.5 2.6 1 2.3 15.8-3.2 31.8-5.9 47.9-6.1 15.7-.2 30.8 3.7 46.4 4.2 1.4.1 1.7-2.1.3-2.5-3.8-1.1-7.5-2-11.4-2.8 14.7-.2 29.4.3 44.1 1.8 1.4.2 1.4-1.9.2-2.4z"/><path fill="#100E16" d="M176.5 78.2c-.3-.5-.7-1-1-1.5-2.1-3.9-4.4-7.5-8.4-9.9-2.4-1.4-4.5-3.5-6.4-5.5-2.4-2.4-3.8-5.1-2.4-8.6.3-.5.4-1.2.9-1.7.7-.6 1.4-1.2 2-1.8v-.1c0-.1.1-.2.1-.3.4-.4.9-.8 1.3-1.3-.2-.2-.2-.5 0-.7.3-.3 1-.6 1.3-1-.2-.1-.3-.2-.4-.4-.1-.3 0-.6.1-.9.5-.9 1-1.9 1.7-2.7.2-.3.5-.2.7.1.2-.3.4-.6.7-.9 2-2.5 2.6-5.5 2.7-8.6.2-5-.9-9.7-2.8-14.3-.3-.8-.6-1.8-1.3-2.3-.7-.5-1-1.2-1.5-1.9-.3-.5-.6-1-1-1.5-1.6-2.2-3.4-4.2-5.5-6-1.6-1.5-3.1-3.1-5-4.2-.5-.3-.9-.1-1.1.4-.2.6-.2 1.3-.1 1.9.2 1 .2 2 .4 2.9.1.4.3.9-.3 1.1-1.6-1.2-3.3-2.1-5.3-2.3-1-.1-1.1-.1-.8.8.4 1 .8 2 1.4 2.8.3.5.3.8-.1 1.3-.8.4-1.4 1.1-1.7 1.9-.3.6-.3.6-.5 1.2s.1.7-2 1.8c-2 1-3.9 1.9-6 2.8-.9.4-1.2 1.5-.5 2.2.9 1-.1 2 1.4 2.1.2.2.4.2.6.2 1 .1 1.7.3 2.4.4.1-.2.2-.3.4-.3.8.1 1.7.1 2.5.3.1 0 .2.1.3.2.5-.1.8-.4 1.4-.6.5-.2 1.5-.6 1.9-.2.1.2.2.4.1.6 0 .1-.1.1-.1.2l-.1.1c0 .7.1 1.5-.2 2.2-.6 1.5-1.5 2.6-3.1 3-.9.2-1.7.7-2.6.8-1.4.2-2.7.5-4 .9-1.6.5-3.3.7-5 .8-3 0-5.9.1-8.9.5-1.7.2-3.4 0-5 .3-2.5.4-4.9.9-7.3 1.7-1.5.5-3 1.2-4.4 1.9-2.6 1.4-4.7 3.6-7 5.4-1.1.9-2.3 1.6-3.7 2.1-2.1.7-4.1 1.2-6.2 1.6-5.1 1.1-9.8 0-14.3-2.6-3.1-1.8-6-3.8-9-5.8-2.7-1.8-5.7-2.6-8.7-3.5-1-.3-2-.3-2.9-.3-2.5.1-4.9.4-7.3 1.1-3.9 1.1-7.4 2.8-10.4 5.5.1.2.1.4-.1.6l-.4.7c-.2.2-.4.1-.6 0-1.3.6-2.5 1.7-3.4 2.9.2.2.3.5.1.7-.2.2-.3.4-.5.7.1.2.2.5-.1.7-1.6 1.1-2.6 3.7-3.5 5.5-.3.7-.6 1.4-1 2.1.6.3 1.1.2 1.5-.5.5-.4.8-1 1.3-1.4 2.3-2.4 5.8-3.9 9.1-3.7.3 0 .4.2.5.4h.5l2.4.3c1.1.1 2.1.4 3.1.8 1.8.7 3.5 1.5 5.1 2.5 2.9 1.8 6 3.3 9.3 4.4 4.7 1.7 9.5 2.6 14.4 2.4 2.7-.1 5.4-.3 8.1-.8 4.5-.7 8.6-2.5 12.2-5.2 2.1-1.6 4.1-3.4 5.9-5.4.2-.2.4-.5.7-.7.1.5.1 1.1 0 1.7-.6 1.6-.6 3.3-.6 5.1.1 2.8-1.6 4.7-3.6 6-1.8 1.2-2.9 3.5-5.4 3.6-.2 0-.4.3-.5.5-1 1.7-2 3.5-2.9 5.2-1.6 2.9-1.9 6.3-3.3 9.3-.1.6-.3 1.3-.3 1.9.1 1-.2 2.3.9 2.9 1.1.6 2.2.2 3.2-.4 1.1-.7 1.2-2.2.2-2.8-.8-.5-.9-1-.8-1.7.6-5.3 3.8-8.8 8.4-11 3.8-1.8 7.3-4.3 11.4-5.6-.1 1.1-1.1 1.5-1.7 2.2-1.6 2-1.6 2.8-.1 4.8 2.4 3.3 5.7 5.6 8.6 8.3.2.2.3.4.5.6 1 .6 1.4 1.8 2.6 2.3 2.2.9 3 .7 3.9-1.6-.2-1-.9-1.6-1.8-1.9-.2.2-.4.4-.6.5.2-.1.4-.2.6-.5-.8-.6-1.7-.7-2.5-1.4-2.1-1.7-4-3.6-5.7-5.7-.9-1.1-1.5-2.1-.8-3.5 1.9-2.1 4.3-3.6 6.7-5.1 1.2-.7 2.4-1.5 3.5-2.2 1.7-1 2.9-2.4 3.5-4.2.2.1.3.1.5.1.8-.2 1.8.3 2.6.3h.2c.9 0 1.8-.1 2.7.3.1 0 .1.1.1.1 3.1.4 6.2.3 9.2.9.2 0 .3.2.3.4h.2c-.1 2.3-.4 4.6-.3 6.9.3 5.3-.9 10.4-1.5 15.6v.9c.1 1.7 1.1 2.6 3 2.3 1.4-.2 1.7-1.3 1.4-2.6-.1-.2-.1-.5-.1-.7-.9-1.1-1.3-2.3-.9-3.7 1.6-6.5 2.6-13.2 4.9-19.5 0-.2.2-.4.5-.4.7 0 1.3-.1 1.9-.2.2 0 .4.1.5.2.1.1.2.3.2.5.5 2.1 1.9 3.8 3.1 5.6 1.8 2.8 4.4 4.5 7.5 5.5.1.3.4.5.7.6 2.5 1.5 4.8 3.3 7.1 5.1.5.4.6.9.7 1.4.4 1.3 1.1 2.5 1.7 3.7 1 1 1.8 2.1 3.2 2.7 2.1.8 2.8.2 2.6-1.7z"/><defs><path id="a" d="M101 48.4c-.6 1.6-.6 3.3-.6 5.1.1 2.8-1.6 4.7-3.6 6-1.8 1.2-2.9 3.5-5.4 3.6-.2 0-.4.3-.5.5-1 1.7-2 3.5-2.9 5.2-1.6 2.9-1.9 6.3-3.3 9.3-.1.6-.3 1.3-.3 1.9.1 1-.2 2.3.9 2.9 1.1.6 2.2.2 3.2-.4 1.1-.7 1.2-2.2.2-2.8-.8-.5-.9-1-.8-1.7.6-5.3 3.8-8.8 8.4-11 3.8-1.8 7.3-4.3 11.4-5.6-.1 1.1-1.1 1.5-1.7 2.2-1.6 2-1.6 2.8-.1 4.8 2.4 3.3 5.7 5.6 8.6 8.3.2.2.3.4.5.6 1 .6 1.4 1.8 2.6 2.3 2.2.9 3 .7 3.9-1.6-.2-1-.9-1.6-1.8-1.9-.4.4-.7.6-1.1.6.4 0 .8-.1 1.1-.6-.8-.6-1.7-.7-2.5-1.4-2.1-1.7-4-3.6-5.7-5.7-.9-1.1-1.5-2.1-.8-3.5 1.9-2.1 4.3-3.6 6.7-5.1 1.2-.7 2.4-1.5 3.5-2.2 1.7-1 2.9-2.4 3.5-4.2 3.5 1.1 7.2 1.4 10.8 1.8 1.5.2 2.9.1 4.4.4.3 0 .5.1.7.1-.1 2.3-.4 4.6-.3 6.9.3 5.3-.9 10.4-1.5 15.6v.9c.1 1.7 1.1 2.6 3 2.3 1.4-.2 1.7-1.3 1.4-2.6-.1-.2-.1-.5-.1-.7-.9-1.1-1.3-2.3-.9-3.7 1.6-6.6 2.6-13.2 4.9-19.6.6-.1 1.3-.1 1.9-.1.3-.1.7-.2 1-.3.1.1.2.3.2.5.5 2.1 1.9 3.8 3.1 5.6 1.8 2.8 4.4 4.5 7.5 5.5.1.3.4.5.7.6 2.5 1.5 4.8 3.3 7.1 5.1.5.4.6.9.7 1.4.4 1.3 1.1 2.5 1.7 3.7 1 1 1.8 2.1 3.2 2.7 1.8.7 2.5.1 2.3-1.8-.3-.5-.7-1-1-1.5-2.1-3.9-4.4-7.5-8.4-9.9-2.4-1.4-4.5-3.5-6.4-5.5-2.4-2.4-3.8-5.1-2.4-8.6.3-.5.4-1.2.9-1.7.7-.6 1.4-1.2 2-1.8v-.1c0-.1.1-.2.1-.3 1-1 2.1-2 3.1-3-.1-.2-.2-.3-.4-.5.1-.8.9-1.3 1.1-2 .5-.7 1-1.5 1.6-2.2 2-2.5 2.6-5.5 2.7-8.6.2-5-.9-9.7-2.8-14.3-.3-.8-.6-1.8-1.3-2.3-.7-.5-1-1.2-1.5-1.9-.3-.5-.6-1-1-1.5-1.6-2.2-3.4-4.2-5.5-6-1.6-1.5-3.1-3.1-5-4.2-.5-.3-.9-.1-1.1.4-.2.6-.2 1.3-.1 1.9.2 1 .2 2 .4 2.9.1.4.3.9-.3 1.1-1.6-1.2-3.3-2.1-5.3-2.3-1-.1-1.1-.1-.8.8.4 1 .8 2 1.4 2.8.3.5.3.8-.1 1.3-.8.4-1.4 1.1-1.7 1.9-.3.6-.1.7-.5 1.2-.6.8-.7 1.1-2 1.8-2 1-3.9 1.9-6 2.8-.9.4-1.2 1.5-.5 2.2.9 1-.1 2 1.4 2.1.2.2.4.2.6.2 1.7.2 2.4.5 4.1.8 1.2.2 2.4 0 3.5-.3.4-.1.7-.3 1.1-.2-.1.9.1 1.8-.3 2.7-.6 1.5-1.5 2.6-3.1 3-.9.2-1.7.7-2.6.8-1.4.2-2.7.5-4 .9-1.6.5-3.3.7-5 .8-3 0-5.9.1-8.9.5-1.7.2-3.4 0-5 .3-2.5.4-4.9.9-7.3 1.7-1.5.5-3 1.2-4.4 1.9-2.6 1.4-4.7 3.6-7 5.4-1.1.9-2.3 1.6-3.7 2.1-2.1.7-4.1 1.2-6.2 1.6-5.1 1.1-9.8 0-14.3-2.6-3.1-1.8-6-3.8-9-5.8-2.7-1.8-5.7-2.6-8.7-3.5-1-.3-2-.3-2.9-.3-2.5.1-4.9.4-7.3 1.1-4.2 1.2-8.1 3.2-11.3 6.3-.8.2-1.5.7-2.1 1.3-2.4 2.3-3.8 5.2-5.4 7.9-.5.9-1 1.9-1.4 2.9-.1.3-.3.6-.3 1 0 .7.4.9 1 .6.3-.2.6-.4.8-.6 1.7-1.6 3.6-3 5.6-4.1 1.8-1 3.7-1.4 5.8-1.1l2.4.3c1.1.1 2.1.4 3.1.8 1.8.7 3.5 1.5 5.1 2.5 2.9 1.8 6 3.3 9.3 4.4 4.7 1.7 9.5 2.6 14.4 2.4 2.7-.1 5.4-.3 8.1-.8 4.5-.7 8.6-2.5 12.2-5.2 2.1-1.6 4.1-3.4 5.9-5.4.2-.2.4-.5.7-.7.8.4.8.9.7 1.5"/></defs><use xlink:href="#a" overflow="visible" fill="#100E16"/><clipPath id="b"><use xlink:href="#a" overflow="visible"/></clipPath><path clip-path="url(#b)" fill="#100E16" d="M101 47.7c.1 4.2 3.4 7.4 6.1 10.6.4.5.9 1.1 1 1.8.2 1-.6 2-1.5 2.5s-1.9.8-2.9 1.1c-2.6 1-4.7 3.1-6.1 5.5-1.4 2.4-2.3 5.1-3 7.8-.7 2.8-1.5 5.9-3.6 7.8-1.4 1.2-3.2 1.9-5 2.2-.7.1-1.5.2-2.2-.2-.5-.3-.9-.8-1.2-1.3-2.8-4.5-2.1-10.3-.4-15.3.8-2.6 1.9-5.1 3.8-7 3.4-3.5 9.2-4.5 11.6-8.8 1.1-1.9 1-3.2 1.5-5.3.1-.6.4-.4.8-.7s1.1-1.8 1.1-1.3M149.2 23.3c.2-.6-1-.3-1.1-.2-.4.1-.8.3-1.1.6 0 .1 0 .1-.1.2 0 .1-.1.1-.1.2-.1.1-.1.2-.2.2-.9 2-2.1 4.1-3.9 5.4-2.1.7-4.6.4-6.7.3-4.9-.2-9.8 0-14.7.6-1.1.1-2.3.3-3.4.5-.2 0-.5.1-.7.1-1.9.3-3.8.8-5.7 1.3-1.8.5-3.6 1-5.2 1.9-1.4.8-2.3 2-3.3 3.2-.9.8-1.8 1.6-2.6 2.5-1 .8-2 1.5-3.1 2-.3.1-1 .6-.7.9.3.3 1.5-.3 1.7-.4 1.3-.7 2.5-1.6 3.6-2.5.3-.2.5-.3.7-.6l.3-.3c.3-.3.6-.6 1-.9 2.7-2.3 6.1-3.4 9.6-4.2 3.3-.8 6.6-1.4 9.9-1.6 2.8.6 5.6 1.5 8.4 1.6 3.7.1 7.3-.7 10.5-2.6 1.3-.8 2.5-1.7 3.5-2.7 1.8-1.3 3.3-3.2 3.9-5.5.1 0-.1-.1-.5 0zm-16.6 8c.8 0 1.5 0 2.3.1h1.1c-1.1.1-2.2 0-3.4-.1zm1.9 1.5c1.3 0 2.5-.2 3.7-.4-1.2.3-2.4.4-3.7.4z"/><path clip-path="url(#b)" fill="#100E16" d="M167.1 32.4c0-.5-.7-1-1.2-1.3 0 0-.1-.1-.2-.1l-1-3.8c-.1-.3-1.1-1.1-1.8-1.5-.3-.4-.7-.7-1.1-1.1-.3-.3-1-.9-1.5-.9s-.5.2-.3.5c.5.8 1 1.6 1.4 2.4-.2-.1-.4-.2-.6-.2l-4.5-3.6c-.2-.1-.7-.4-1.1-.5-1.3-1-2.8-1.8-4.6-2-1.8-.2-3.4.4-4.9 1-1.7.7-4 1.9-6.1 1.1-.6-.2-.7 0-.6.4.2.4.7.8 1.2 1.1.1-.2.2-.3.4-.3.8.1 1.7.1 2.5.3.1 0 .2.1.3.2.5-.1.8-.4 1.4-.6.5-.2 1.5-.6 1.9-.2.1.2.2.4.1.6 0 .1-.1.1-.1.2l-.1.1h.1c1-.2 1.9-.3 2.9-.3h.4c.9 0 1.9.2 2.8.4.1.3.6.8.7 1 1 .7 2 1.3 3.2 1.7.3.2.6.4.9.7l.9 2.7v.2c.2.4.3.9.5 1.3.1.2.2.4.4.6 1.1 2.6 1.7 5.3 1.8 8-.3 1.4-.8 2.8-1.4 4.2-.1.2.4.7.9 1.1 0 .1 0 .2-.1.3-.1.4 1.2 1.4 1.9 1.7-.2-.2-.3-.5-.1-.7.3-.3 1-.6 1.3-1-.2-.1-.3-.2-.4-.4-.1-.3 0-.6.1-.9.5-.9 1-1.9 1.7-2.7.2-.3.6-.2.7.1.7-2.2 1-4.4.7-6.7.6-1 .7-2.1.6-3.1zm-6-4.4l-.5-.5-.2-.2c.2.2.5.4.7.6v.1zM29.3 53.6c-.3.3-.6.6-1 .9 0 .1-.1.1-.2.2-.1 0-.2.1-.3.1-.7.4-1.4.4-2.1-.1-.2-.1-.3-.3-.3-.5-.2-.3 0-.7.4-.7.3-.8.7-1.6 1.2-2.4.3-.8.7-1.6 1.1-2.4.6-1.2 1.3-2.2 2.1-3.2v-.3c.3-.8.8-1.6 1.4-2.4-1.8 1.5-3.4 3.3-4.5 5.4l.5-2.5c-2 .7-2.7 3.1-3.2 5.1-.3 1.1-.6 2.2-.4 3.3.1 1.1.7 2.3 1.7 2.8 1.3.6 2.9 0 4-.9 1.1-1 1.8-2.2 2.8-3.3 1.4-1.6 3.2-2.6 5.2-3.5-3.4.1-6 2-8.4 4.4z"/><path clip-path="url(#b)" fill="#100E16" d="M37.1 44.7c1.2-.5 2.4-1.1 3.4-1.9-1.3-.9-3.2.9-4.4-.1l2.7-3.5-2.1.6c.1.2.1.4-.1.6l-.6.5c-.2.2-.4.1-.6 0-1.3.6-2.5 1.7-3.4 2.9.2.2.3.5.1.7-.2.2-.3.4-.5.7.1.2.2.5-.1.7-1.6 1.1-2.6 3.7-3.5 5.5-.3.7-.6 1.4-1 2.1.6.3 1.1.2 1.5-.5.5-.4.8-1 1.3-1.4 2.3-2.4 5.8-3.9 9.1-3.7.3 0 .4.2.5.4.5-.2 1-.4 1.6-.6-1.2-1.2-2.4-2.4-3.9-3zM152.9 5.4c-.2-.8-.4-1.5-.5-2.3-.1-.7-.1-1.5-.5-2.1-.4-.7-2.9.5-2.6.9.5 1 .5 2.4.7 3.5.2.9 1.3 2.9.7 3.8-.4.5.4.5.7.4.5-.1 1.4-.3 1.7-.8.9-1.1.2-2.2-.2-3.4zM149.9 55.3c0 .2 0 .4-.2.5h-.1c-.2 0-.3.1-.5.1H148.8c-.4 0-.8.1-1.2.1-.6 0-.6-1 0-1 .7 0 1.3-.1 1.9-.2.3-.1.5.1.6.3.2-.2.2-.3-.1-.4.1-.2.1-.4-.5-.3-.6 0-1.1.1-1.7.1 0-.1-.2-.2-.6-.2-2.4.1-4.7.4-7.1.7-.1 0-.3.1-.5.2-1.6 0-3.2-.1-4.8-.3-2.9-.3-5.8-1-8.8-1.1-.5 0-1.5.5-1.2.7 0-.2.1-.4.4-.4.8-.2 1.8.3 2.6.3h.2c.9 0 1.8-.1 2.7.3.1 0 .1.1.2.1 3.1.4 6.2.3 9.2.8.2 0 .4.2.4.5 2.9 0 5.8-.1 8.7-.3.2.2 1.4-.3.7-.5z"/><g opacity=".4" clip-path="url(#b)"><path fill="#100E16" d="M145.3 6.1s0-.1 0 0c-.4-.1-.9-.1-1.4-.1h.1c-.4-.2-.7-.4-1.1-.6.7.6 1.2 1.7 1.6 2.6.2.4.5.9.6 1.4.2.7.1.8-.6 1-.6.2.1.6.3.7.5.3 1.3.5 1.9.4.4-.1.9-.2 1.3-.4l.1-.1c-.1-1.5-1.4-3.3-2.2-4.6-.4-.6-.8-1-1.5-1.2-.5-.2-1.3-.5-1.8-.1-.3.4 2.1 1.5 2.7 1z"/></g><path clip-path="url(#b)" fill="#100E16" d="M147.7 56.1c0-.1 0-.1 0 0h-.3c-.2 0-.4-.1-.4-.2h-.3c-2.1.1-4.1.3-6.2.4h-.2c0 .2-.1.5-.3.6h-.1c-.2 0-.3 0-.4-.1h-.3c-.7 1.6-1.1 3.3-1.4 5-.8 4.2-1.3 8.5-1.5 12.8-.1 2.3-.2 4.5.1 6.8.2 1.1.5 2.2 1.4 2.9.6.5 1.3.6 2.1.7 3 .3 6-1.5 7.3-4.2.9-1.9.9-4 1-6.1l.3-13.6c0-1.5.1-3-.3-4.5-.3-.2-.4-.4-.5-.5z"/><g><path fill="#100E16" d="M101 48.4c-.6 1.6-.6 3.3-.6 5.1.1 2.8-1.6 4.7-3.6 6-1.8 1.2-2.9 3.5-5.4 3.6-.2 0-.4.3-.5.5-1 1.7-2 3.5-2.9 5.2-1.6 2.9-1.9 6.3-3.3 9.3-.1.6-.3 1.3-.3 1.9.1 1-.2 2.3.9 2.9 1.1.6 2.2.2 3.2-.4 1.1-.7 1.2-2.2.2-2.8-.8-.5-.9-1-.8-1.7.6-5.3 3.8-8.8 8.4-11 3.8-1.8 7.3-4.3 11.4-5.6-.1 1.1-1.1 1.5-1.7 2.2-1.6 2-1.6 2.8-.1 4.8 2.4 3.3 5.7 5.6 8.6 8.3.2.2.3.4.5.6 1 .6 1.4 1.8 2.6 2.3 2.2.9 3 .7 3.9-1.6-.2-1-.9-1.6-1.8-1.9-.4.4-.7.6-1.1.6.4 0 .8-.1 1.1-.6-.8-.6-1.7-.7-2.5-1.4-2.1-1.7-4-3.6-5.7-5.7-.9-1.1-1.5-2.1-.8-3.5 1.9-2.1 4.3-3.6 6.7-5.1 1.2-.7 2.4-1.5 3.5-2.2 1.7-1 2.9-2.4 3.5-4.2 3.5 1.1 7.2 1.4 10.8 1.8 1.5.2 2.9.1 4.4.4.3 0 .5.1.7.1-.1 2.3-.4 4.6-.3 6.9.3 5.3-.9 10.4-1.5 15.6v.9c.1 1.7 1.1 2.6 3 2.3 1.4-.2 1.7-1.3 1.4-2.6-.1-.2-.1-.5-.1-.7-.9-1.1-1.3-2.3-.9-3.7 1.6-6.6 2.6-13.2 4.9-19.6.6-.1 1.3-.1 1.9-.1.3-.1.7-.2 1-.3.1.1.2.3.2.5.5 2.1 1.9 3.8 3.1 5.6 1.8 2.8 4.4 4.5 7.5 5.5.1.3.4.5.7.6 2.5 1.5 4.8 3.3 7.1 5.1.5.4.6.9.7 1.4.4 1.3 1.1 2.5 1.7 3.7 1 1 1.8 2.1 3.2 2.7 1.8.7 2.5.1 2.3-1.8-.3-.5-.7-1-1-1.5-2.1-3.9-4.4-7.5-8.4-9.9-2.4-1.4-4.5-3.5-6.4-5.5-2.4-2.4-3.8-5.1-2.4-8.6.3-.5.4-1.2.9-1.7.7-.6 1.4-1.2 2-1.8v-.1c0-.1.1-.2.1-.3 1-1 2.1-2 3.1-3-.1-.2-.2-.3-.4-.5.1-.8.9-1.3 1.1-2 .5-.7 1-1.5 1.6-2.2 2-2.5 2.6-5.5 2.7-8.6.2-5-.9-9.7-2.8-14.3-.3-.8-.6-1.8-1.3-2.3-.7-.5-1-1.2-1.5-1.9-.3-.5-.6-1-1-1.5-1.6-2.2-3.4-4.2-5.5-6-1.6-1.5-3.1-3.1-5-4.2-.5-.3-.9-.1-1.1.4-.2.6-.2 1.3-.1 1.9.2 1 .2 2 .4 2.9.1.4.3.9-.3 1.1-1.6-1.2-3.3-2.1-5.3-2.3-1-.1-1.1-.1-.8.8.4 1 .8 2 1.4 2.8.3.5.3.8-.1 1.3-.8.4-1.4 1.1-1.7 1.9-.3.6-.3.6-.5 1.2s.1.7-2 1.8c-2 1-3.9 1.9-6 2.8-.9.4-1.2 1.5-.5 2.2.9 1-.1 2 1.4 2.1.2.2.4.2.6.2 1.7.2 2.4.5 4.1.8 1.2.2 2.4 0 3.5-.3.4-.1.7-.3 1.1-.2-.1.9.1 1.8-.3 2.7-.6 1.5-1.5 2.6-3.1 3-.9.2-1.7.7-2.6.8-1.4.2-2.7.5-4 .9-1.6.5-3.3.7-5 .8-3 0-5.9.1-8.9.5-1.7.2-3.4 0-5 .3-2.5.4-4.9.9-7.3 1.7-1.5.5-3 1.2-4.4 1.9-2.6 1.4-4.7 3.6-7 5.4-1.1.9-2.3 1.6-3.7 2.1-2.1.7-4.1 1.2-6.2 1.6-5.1 1.1-9.8 0-14.3-2.6-3.1-1.8-6-3.8-9-5.8-2.7-1.8-5.7-2.6-8.7-3.5-1-.3-2-.3-2.9-.3-2.5.1-4.9.4-7.3 1.1-4.2 1.2-8.1 3.2-11.3 6.3-.8.2-1.5.7-2.1 1.3-2.4 2.3-3.8 5.2-5.4 7.9-.5.9-1 1.9-1.4 2.9-.1.3-.3.6-.3 1 0 .7.4.9 1 .6.3-.2.6-.4.8-.6 1.7-1.6 3.6-3 5.6-4.1 1.8-1 3.7-1.4 5.8-1.1l2.4.3c1.1.1 2.1.4 3.1.8 1.8.7 3.5 1.5 5.1 2.5 2.9 1.8 6 3.3 9.3 4.4 4.7 1.7 9.5 2.6 14.4 2.4 2.7-.1 5.4-.3 8.1-.8 4.5-.7 8.6-2.5 12.2-5.2 2.1-1.6 4.1-3.4 5.9-5.4.2-.2.4-.5.7-.7.8.4.8.9.7 1.5"/><defs><path id="c" d="M101 48.4c-.6 1.6-.6 3.3-.6 5.1.1 2.8-1.6 4.7-3.6 6-1.8 1.2-2.9 3.5-5.4 3.6-.2 0-.4.3-.5.5-1 1.7-2 3.5-2.9 5.2-1.6 2.9-1.9 6.3-3.3 9.3-.1.6-.3 1.3-.3 1.9.1 1-.2 2.3.9 2.9 1.1.6 2.2.2 3.2-.4 1.1-.7 1.2-2.2.2-2.8-.8-.5-.9-1-.8-1.7.6-5.3 3.8-8.8 8.4-11 3.8-1.8 7.3-4.3 11.4-5.6-.1 1.1-1.1 1.5-1.7 2.2-1.6 2-1.6 2.8-.1 4.8 2.4 3.3 5.7 5.6 8.6 8.3.2.2.3.4.5.6 1 .6 1.4 1.8 2.6 2.3 2.2.9 3 .7 3.9-1.6-.2-1-.9-1.6-1.8-1.9-.4.4-.7.6-1.1.6.4 0 .8-.1 1.1-.6-.8-.6-1.7-.7-2.5-1.4-2.1-1.7-4-3.6-5.7-5.7-.9-1.1-1.5-2.1-.8-3.5 1.9-2.1 4.3-3.6 6.7-5.1 1.2-.7 2.4-1.5 3.5-2.2 1.7-1 2.9-2.4 3.5-4.2 3.5 1.1 7.2 1.4 10.8 1.8 1.5.2 2.9.1 4.4.4.3 0 .5.1.7.1-.1 2.3-.4 4.6-.3 6.9.3 5.3-.9 10.4-1.5 15.6v.9c.1 1.7 1.1 2.6 3 2.3 1.4-.2 1.7-1.3 1.4-2.6-.1-.2-.1-.5-.1-.7-.9-1.1-1.3-2.3-.9-3.7 1.6-6.6 2.6-13.2 4.9-19.6.6-.1 1.3-.1 1.9-.1.3-.1.7-.2 1-.3.1.1.2.3.2.5.5 2.1 1.9 3.8 3.1 5.6 1.8 2.8 4.4 4.5 7.5 5.5.1.3.4.5.7.6 2.5 1.5 4.8 3.3 7.1 5.1.5.4.6.9.7 1.4.4 1.3 1.1 2.5 1.7 3.7 1 1 1.8 2.1 3.2 2.7 1.8.7 2.5.1 2.3-1.8-.3-.5-.7-1-1-1.5-2.1-3.9-4.4-7.5-8.4-9.9-2.4-1.4-4.5-3.5-6.4-5.5-2.4-2.4-3.8-5.1-2.4-8.6.3-.5.4-1.2.9-1.7.7-.6 1.4-1.2 2-1.8v-.1c0-.1.1-.2.1-.3 1-1 2.1-2 3.1-3-.1-.2-.2-.3-.4-.5.1-.8.9-1.3 1.1-2 .5-.7 1-1.5 1.6-2.2 2-2.5 2.6-5.5 2.7-8.6.2-5-.9-9.7-2.8-14.3-.3-.8-.6-1.8-1.3-2.3-.7-.5-1-1.2-1.5-1.9-.3-.5-.6-1-1-1.5-1.6-2.2-3.4-4.2-5.5-6-1.6-1.5-3.1-3.1-5-4.2-.5-.3-.9-.1-1.1.4-.2.6-.2 1.3-.1 1.9.2 1 .2 2 .4 2.9.1.4.3.9-.3 1.1-1.6-1.2-3.3-2.1-5.3-2.3-1-.1-1.1-.1-.8.8.4 1 .8 2 1.4 2.8.3.5.3.8-.1 1.3-.8.4-1.4 1.1-1.7 1.9-.3.6-.1.7-.5 1.2-.6.8-.7 1.1-2 1.8-2 1-3.9 1.9-6 2.8-.9.4-1.2 1.5-.5 2.2.9 1-.1 2 1.4 2.1.2.2.4.2.6.2 1.7.2 2.4.5 4.1.8 1.2.2 2.4 0 3.5-.3.4-.1.7-.3 1.1-.2-.1.9.1 1.8-.3 2.7-.6 1.5-1.5 2.6-3.1 3-.9.2-1.7.7-2.6.8-1.4.2-2.7.5-4 .9-1.6.5-3.3.7-5 .8-3 0-5.9.1-8.9.5-1.7.2-3.4 0-5 .3-2.5.4-4.9.9-7.3 1.7-1.5.5-3 1.2-4.4 1.9-2.6 1.4-4.7 3.6-7 5.4-1.1.9-2.3 1.6-3.7 2.1-2.1.7-4.1 1.2-6.2 1.6-5.1 1.1-9.8 0-14.3-2.6-3.1-1.8-6-3.8-9-5.8-2.7-1.8-5.7-2.6-8.7-3.5-1-.3-2-.3-2.9-.3-2.5.1-4.9.4-7.3 1.1-4.2 1.2-8.1 3.2-11.3 6.3-.8.2-1.5.7-2.1 1.3-2.4 2.3-3.8 5.2-5.4 7.9-.5.9-1 1.9-1.4 2.9-.1.3-.3.6-.3 1 0 .7.4.9 1 .6.3-.2.6-.4.8-.6 1.7-1.6 3.6-3 5.6-4.1 1.8-1 3.7-1.4 5.8-1.1l2.4.3c1.1.1 2.1.4 3.1.8 1.8.7 3.5 1.5 5.1 2.5 2.9 1.8 6 3.3 9.3 4.4 4.7 1.7 9.5 2.6 14.4 2.4 2.7-.1 5.4-.3 8.1-.8 4.5-.7 8.6-2.5 12.2-5.2 2.1-1.6 4.1-3.4 5.9-5.4.2-.2.4-.5.7-.7.8.4.8.9.7 1.5"/></defs><clipPath id="d"><use xlink:href="#c" overflow="visible"/></clipPath><path clip-path="url(#d)" fill="#2D253A" d="M101 47.7c.1 4.2 3.4 7.4 6.1 10.6.4.5.9 1.1 1 1.8.2 1-.6 2-1.5 2.5s-1.9.8-2.9 1.1c-2.6 1-4.7 3.1-6.1 5.5-1.4 2.4-2.3 5.1-3 7.8-.7 2.8-1.5 5.9-3.6 7.8-1.4 1.2-3.2 1.9-5 2.2-.7.1-1.5.2-2.2-.2-.5-.3-.9-.8-1.2-1.3-2.8-4.5-2.1-10.3-.4-15.3.8-2.6 1.9-5.1 3.8-7 3.4-3.5 9.2-4.5 11.6-8.8 1.1-1.9 1-3.2 1.5-5.3.1-.6.4-.4.8-.7s1.1-1.8 1.1-1.3"/><path clip-path="url(#d)" fill="#772B52" d="M149.2 23.3c.2-.6-1-.3-1.1-.2-.5.2-1.2.5-1.4 1-.9 2.1-2.1 4.2-4 5.5-2.1.7-4.6.4-6.7.3-4.9-.2-9.8 0-14.7.6-1.1.1-2.3.3-3.4.5-.2 0-.5.1-.7.1-1.9.3-3.8.8-5.7 1.3-1.8.5-3.6 1-5.2 1.9-1.4.8-2.3 2-3.3 3.2-.9.8-1.8 1.6-2.6 2.5-1 .8-2 1.5-3.1 2-.3.1-1 .6-.7.9.3.3 1.5-.3 1.7-.4 1.3-.7 2.5-1.6 3.6-2.5.3-.2.5-.3.7-.6l.3-.3c.3-.3.6-.6 1-.9 2.7-2.3 6.1-3.4 9.6-4.2 3.3-.8 6.6-1.4 9.9-1.6 2.8.6 5.6 1.5 8.4 1.6 3.7.1 7.3-.7 10.5-2.6 1.3-.8 2.5-1.7 3.5-2.7 1.8-1.3 3.3-3.2 3.9-5.5.1.1-.1 0-.5.1zm-13.1 8.1c-1.1 0-2.3 0-3.4-.1.8 0 1.5 0 2.3.1h1.1zm-1.6 1.4c1.3 0 2.5-.2 3.7-.4-1.2.3-2.4.4-3.7.4z"/><path clip-path="url(#d)" fill="#9896FC" d="M167 35.5c.2-1 .2-2.1.2-3.1 0-.5-.7-1-1.2-1.3 0 0-.1-.1-.2-.1-.3-1.3-.6-2.6-1-3.8-.1-.3-1.1-1.1-1.8-1.5-.3-.4-.7-.7-1.1-1.1-.3-.3-1-.9-1.5-.9s-.5.2-.3.5c.5.8 1 1.6 1.4 2.4-.2-.1-.4-.2-.6-.2l-4.5-3.6c-.2-.1-.7-.4-1.1-.5-1.3-1-2.8-1.8-4.6-2-1.8-.2-3.4.4-4.9 1-1.7.7-4 1.9-6.1 1.1-.6-.2-.7 0-.6.4.2.5 1.1 1.1 1.7 1.3 1.9.7 3.6.4 5.3-.2.3.2.6.3.8.2 1-.2 1.9-.3 2.9-.3h.4c.9 0 1.9.2 2.8.4.1.3.6.8.7 1 1 .7 2 1.3 3.2 1.7.3.2.6.4.9.7l.9 2.7v.2c.2.4.3.9.5 1.3.1.2.2.4.4.6 1.1 2.6 1.7 5.3 1.8 8-.3 1.4-.8 2.8-1.4 4.2-.1.2.4.7.9 1.1 0 .1 0 .2-.1.3-.1.5 2.1 2.1 2.4 1.7.3-.5.7-.9 1-1.4 0 0 .1 0 .1-.1 2.1-3.3 3-7 2.7-10.7zm-5.9-7.6v.1l-.5-.5-.2-.2c.2.2.5.4.7.6zM27.2 48.1c2.3-4.5 6.6-7.8 11.5-8.8-.9 1.2-1.8 2.3-2.7 3.5 1.2 1 3.2-.8 4.4.1-1.1.8-2.2 1.4-3.4 1.9 1.5.6 2.8 1.8 3.7 3.1-3 1.1-6.2 2.3-8.3 4.7-1 1.1-1.7 2.4-2.8 3.3-1.1 1-2.7 1.6-4 .9-1-.5-1.6-1.7-1.7-2.8s.2-2.2.4-3.3c.5-2 1.3-4.3 3.2-5.1"/><path clip-path="url(#d)" fill="#772B52" d="M152.9 5.4c-.2-.8-.4-1.5-.5-2.3-.1-.7-.1-1.5-.5-2.1-.4-.7-2.9.5-2.6.9.5 1 .5 2.4.7 3.5.2.9 1.3 2.9.7 3.8-.4.5.4.5.7.4.5-.1 1.4-.3 1.7-.8.9-1.1.2-2.2-.2-3.4z"/><path clip-path="url(#d)" fill="#9896FC" d="M149.8 55.3c.2-.2.3-.4-.1-.4.1-.2.1-.4-.5-.3-.6 0-1.1.1-1.7.1 0-.1-.2-.2-.6-.2-2.4.1-4.7.4-7.1.7-.1 0-.3.1-.5.2-1.6 0-3.2-.1-4.8-.3-2.9-.3-5.8-1-8.8-1.1-.6 0-1.9.8-.9.8.6 0 1.1.1 1.7.1 0 .1.1.2.3.2.6.1 1 .3 1.5.2.9.1 1.9.3 2.8.4.1.1.2.2.4.2.8.3 2.1.1 2.9.2h.2c-.1.1 0 .3.4.3 4.6.1 9.3 0 13.9-.3.5-.1 1.8-.6.9-.8z"/><g opacity=".4" clip-path="url(#d)"><path fill="#772B52" d="M145.3 6.1s0-.1 0 0c-.4-.1-.9-.1-1.4-.1h.1c-.4-.2-.7-.4-1.1-.6.7.6 1.2 1.7 1.6 2.6.2.4.5.9.6 1.4.2.7.1.8-.6 1-.6.2.1.6.3.7.5.3 1.3.5 1.9.4.4-.1.9-.2 1.3-.4l.1-.1c-.1-1.5-1.4-3.3-2.2-4.6-.4-.6-.8-1-1.5-1.2-.5-.2-1.3-.5-1.8-.1-.3.4 2.1 1.5 2.7 1z"/></g><path clip-path="url(#d)" fill="#2D253A" d="M139 56.9c.3-.5.9-.6 1.5-.6 2.1-.1 4.1-.3 6.2-.4.4 0 .8 0 1 .2.1.1.2.4.3.6.3 1.5.3 3 .3 4.5l-.3 13.6c0 2.1-.1 4.2-1 6.1-1.3 2.7-4.3 4.4-7.3 4.2-.7-.1-1.5-.2-2.1-.7-.9-.7-1.2-1.8-1.4-2.9-.4-2.2-.3-4.5-.1-6.8.3-4.3.8-8.5 1.5-12.8.3-1.7.7-3.5 1.4-5"/></g></svg>