<svg xmlns="http://www.w3.org/2000/svg" xmlns:xlink="http://www.w3.org/1999/xlink" viewBox="0 0 440 440"><style>.st0{fill:#FBB40C;} .st1{fill:#666D9E;} .st2{clip-path:url(#SVGID_2_);} .st3{fill:#687BBB;} .st4{font-family:&apos;Ayuthaya&apos;;} .st5{font-size:89.44px;} .st6{fill:#FFFFFF;}</style><path class="st0" d="M366.4 219.8l39.3-54.1c1.3-2 1.5-4.2.9-6.4-.7-2.2-2.4-3.7-4.4-4.4L338.5 134V67.5c0-2.2-1.1-4.4-2.9-5.7-2-1.3-4.2-1.8-6.4-.9l-63.6 20.5-39.3-54.1c-2.6-3.5-8.8-3.5-11.3 0l-39.3 54.1L112 60.9c-2.2-.9-4.4-.4-6.4.9-1.6 1.3-2.7 3.5-2.7 5.7v66.7l-63.6 20.9c-2 .7-3.7 2.2-4.4 4.4-.7 2.2-.4 4.4.9 6.4L75.1 220 36 273.9c-1.3 1.8-1.5 4.2-.9 6.4s2.4 3.7 4.4 4.4l63.6 20.9v66.7c0 2.2 1.1 4.4 2.9 5.7 2 1.3 4.2 1.8 6.4.9l63.6-20.5 39.3 54.1c1.3 1.8 3.5 2.9 5.7 2.9s4.4-1.1 5.7-2.9l39.3-54.1 63.6 20.5c2.2.9 4.4.4 6.4-.9 1.8-1.3 2.9-3.5 2.9-5.7v-66.9l63.6-20.9c2-.7 3.7-2.2 4.4-4.4.7-2.2.4-4.6-.9-6.4l-39.6-53.9z" id="Layer_2"/><g id="Layer_1"><circle class="st1" cx="220.4" cy="220.4" r="195.6"/><defs><circle id="SVGID_1_" cx="220.4" cy="220.4" r="195.6"/></defs><clipPath id="SVGID_2_"><use xlink:href="#SVGID_1_" overflow="visible"/></clipPath><g class="st2"><text transform="translate(-52.97 97.82)" class="st3 st4 st5">10101011010100110101</text><text transform="translate(-235.202 179.435)" class="st3 st4 st5">10101011010100110101</text><text transform="translate(-156.942 263.285)" class="st3 st4 st5">10101011010100110101</text><text transform="translate(-279.922 344.98)" class="st3 st4 st5">10101011010100110101</text><text transform="translate(-335.822 427.712)" class="st3 st4 st5">10101011010100110101</text></g><path class="st6" d="M292.5 194h-4.8v-28.8c0-37-30.3-67.3-67.3-67.3S153 128.1 153 165.1V194h-4.8c-7.9 0-14.4 6.5-14.4 14.4v86.5c0 7.9 6.5 14.4 14.4 14.4h144.2c7.9 0 14.4-6.5 14.4-14.4v-86.5c.1-8-6.4-14.4-14.3-14.4zm-71 76c-10.5 0-19-8.5-19-19s8.5-19 19-19 19 8.5 19 19-8.5 19-19 19zm37.3-76h-76.9v-28.8c0-21.1 17.3-38.5 38.5-38.5s38.5 17.3 38.5 38.5V194z"/></g></svg>