<?xml version="1.0" encoding="utf-8"?>
<!-- Generator: Adobe Illustrator 18.1.1, SVG Export Plug-In . SVG Version: 6.00 Build 0)  -->
<svg version="1.1" xmlns="http://www.w3.org/2000/svg" xmlns:xlink="http://www.w3.org/1999/xlink" x="0px" y="0px"
	 viewBox="0 0 400 400" enable-background="new 0 0 400 400" xml:space="preserve">
<g id="FIREFOX">
	<rect x="-1302.9" y="-805.7" fill="#FFFFFF" width="2182" height="1268"/>
</g>
<g id="MOZILLA">
	<g>
		<circle fill="#666D9E" cx="200" cy="200" r="175"/>
		<g>
			<defs>
				<circle id="SVGID_61_" cx="200" cy="200" r="175"/>
			</defs>
			<clipPath id="SVGID_2_">
				<use xlink:href="#SVGID_61_"  overflow="visible"/>
			</clipPath>
			<g clip-path="url(#SVGID_2_)">
				<text transform="matrix(1 0 0 1 -44.4688 90.4041)" fill="#687BBB" font-family="'Ayuthaya'" font-size="80">10101011010100110101</text>
				<text transform="matrix(1 0 0 1 -207.4688 163.4041)" fill="#687BBB" font-family="'Ayuthaya'" font-size="80">10101011010100110101</text>
				<text transform="matrix(1 0 0 1 -137.4688 238.4041)" fill="#687BBB" font-family="'Ayuthaya'" font-size="80">10101011010100110101</text>
				<text transform="matrix(1 0 0 1 -247.4688 311.4762)" fill="#687BBB" font-family="'Ayuthaya'" font-size="80">10101011010100110101</text>
				<text transform="matrix(1 0 0 1 -297.4688 385.4762)" fill="#687BBB" font-family="'Ayuthaya'" font-size="80">10101011010100110101</text>
			</g>
		</g>
		<path fill="#FFFFFF" d="M264.5,176.4h-4.3v-25.8c0-33.1-27.1-60.2-60.2-60.2c-33.1,0-60.2,27.1-60.2,60.2v25.8h-4.3
			c-7.1,0-12.9,5.8-12.9,12.9v77.4c0,7.1,5.8,12.9,12.9,12.9h129c7.1,0,12.9-5.8,12.9-12.9v-77.4
			C277.4,182.2,271.6,176.4,264.5,176.4z M201,244.4c-9.4,0-17-7.6-17-17s7.6-17,17-17s17,7.6,17,17S210.4,244.4,201,244.4z
			 M234.4,176.4h-68.8v-25.8c0-18.9,15.5-34.4,34.4-34.4c18.9,0,34.4,15.5,34.4,34.4V176.4z"/>
	</g>
</g>
</svg>
