<?xml version="1.0" encoding="utf-8"?>
<!-- Generator: Adobe Illustrator 18.1.1, SVG Export Plug-In . SVG Version: 6.00 Build 0)  -->
<svg version="1.1" xmlns="http://www.w3.org/2000/svg" xmlns:xlink="http://www.w3.org/1999/xlink" x="0px" y="0px"
	 viewBox="0 0 400 400" enable-background="new 0 0 400 400" xml:space="preserve">
<g id="FIREFOX">
	<rect x="-479.5" y="-805.7" fill="#FFFFFF" width="2182" height="1268"/>
</g>
<g id="MOZILLA">
	<path fill="#FBB40C" d="M332.8,199.9l35.8-49.3c1.2-1.8,1.4-3.8,0.8-5.8c-0.6-2-2.2-3.4-4-4l-58-19.1V61c0-2-1-4-2.6-5.2
		c-1.8-1.2-3.8-1.6-5.8-0.8l-58,18.7l-35.8-49.3c-2.4-3.2-8-3.2-10.3,0l-35.8,49.3L101,55c-2-0.8-4-0.4-5.8,0.8
		C93.7,57,92.7,59,92.7,61v60.8l-58,19.1c-1.8,0.6-3.4,2-4,4c-0.6,2-0.4,4,0.8,5.8l35.8,49.3l-35.8,49.3c-1.2,1.6-1.4,3.8-0.8,5.8
		c0.6,2,2.2,3.4,4,4l58,19.1v60.8c0,2,1,4,2.6,5.2c1.8,1.2,3.8,1.6,5.8,0.8l58-18.7l35.8,49.3c1.2,1.6,3.2,2.6,5.2,2.6s4-1,5.2-2.6
		l35.8-49.3l58,18.7c2,0.8,4,0.4,5.8-0.8c1.6-1.2,2.6-3.2,2.6-5.2V278l58-19.1c1.8-0.6,3.4-2,4-4c0.6-2,0.4-4.2-0.8-5.8L332.8,199.9
		z"/>
</g>
</svg>
