<?xml version="1.0" encoding="utf-8"?>
<!-- Generator: Adobe Illustrator 18.1.1, SVG Export Plug-In . SVG Version: 6.00 Build 0)  -->
<svg version="1.1" id="Layer_1" xmlns="http://www.w3.org/2000/svg" xmlns:xlink="http://www.w3.org/1999/xlink" x="0px" y="0px"
	 viewBox="0 0 640 440" enable-background="new 0 0 640 440" xml:space="preserve">
<g>
	<circle fill="#23336B" cx="320" cy="220" r="192.3"/>
	<g>
		<circle fill="#007EC9" cx="320" cy="220" r="137.6"/>
		<g>
			<g>
				<defs>
					<circle id="SVGID_1_" cx="320" cy="220" r="137.6"/>
				</defs>
				<clipPath id="SVGID_2_">
					<use xlink:href="#SVGID_1_"  overflow="visible"/>
				</clipPath>
				<g clip-path="url(#SVGID_2_)">
					<g>
						<path fill="#25B685" d="M313.4,69.1c-17.2-7.5-37.2-4-54.7,2.8c-32,12.1-59.7,34.2-80.5,61.3c-11.2,14.6-20.9,32.3-18.4,50.7
							c3.1,22.9,24.6,39.4,46.9,45.5c7.3,2,15.4,3.5,20,9.5c4.4,5.6,4.2,13.8,1.5,20.5c-2.5,6.7-7,12.4-10.7,18.6
							c-1.1,1.8-2.1,3.6-2.3,5.6c-0.3,2.8,0.6,5.5,2,7.8c7.8,12.9,28.6,16.4,31.2,31.1c1.7,9.2-4.6,20.7,2,27.4
							c4.4,4.5,12.5,3.4,17.3-0.8c4.7-4.2,7-10.5,9-16.5c2-6.1,4-12.3,8.4-16.9c6.6-6.9,17.8-8.7,23-16.7c4.4-6.8,2.9-16.2-1.6-22.9
							c-4.5-6.7-11.3-11.6-18-16.1c-7-4.8-14.1-9.7-21.1-14.5c-5.7-3.8-12-9.1-11.3-15.9c0.5-5.5,5.8-10,5.2-15.5
							c-0.7-5.7-7.3-8.7-13-9.7s-12.3-1.5-15.9-6.2c-3.3-4.2-2.8-10.4,0.3-14.8c3.1-4.3,8-6.9,13.2-8.2c6.8-1.9,14.5-1.7,20.2,2.3
							c4.3,3,7.1,7.8,11.9,9.9c7.8,3.5,18.1-3.5,17.6-12.1c-0.3-5.6-4.5-10.9-3.3-16.4c0.5-2.6,2.3-4.8,4.2-6.7
							c4-4.1,8.7-7.3,12.5-11.3c3.9-4.1,6.9-9.6,6.2-15.2c-0.9-7.4-7.7-12.4-14.5-15.4c-6.8-3-14.3-4.8-19.8-9.7
							c-2.2-2-4.2-4.7-4.1-7.7c0.2-5.2,5.9-8,11-9.4c7.9-2.2,16.2-3.3,24.4-3.4l2.8-1.9c2.2,1.1,4.6-2,3.9-4.3
							C317.9,71.5,315.6,70.1,313.4,69.1z M476.1,177.4c-9.2-35-32.7-56.2-56.3-83.6l-5.8-3.8c-8.9,4.5-13,6.9-19.4,14.6
							c-4.1,4.8-7.6,10.7-7.5,16.9c0.1,6.3,5.2,12.9,11.4,12.5c4.1-0.2,7.5-3,11.3-4.6c3.7-1.5,9.2-1.3,10.7,2.5
							c0.7,1.7,0.3,3.5-0.2,5.2c-2.1,6.4-7.1,11.7-13.3,14.1c-10.9,4.2-23.8-0.4-34.3,4.4c-7,3.2-11.9,10.6-12.4,18.3
							c-0.5,7.7,3.2,15.5,9.4,20.1c3.1,2.3,7.3,5.2,6.2,8.9c-0.4,1.4-1.6,2.5-2.6,3.7c-5.5,5.8-7.3,15.9-1.7,21.6
							c9,9,26.2-0.8,36.5,6.7c2,1.4,3.5,3.7,3,6c-0.7,2.9-4.1,4-6.9,4.5c-12.4,2.1-27.3,2.2-34.8,12.3c-5.4,7.3-4.7,17.6-0.7,25.6
							c4.1,8,11.1,14.2,18.3,19.7c6.9,5.4,14.6,11.4,15.9,20c0.7,4.2-0.3,8.4-0.4,12.5c-0.1,4.2,1.1,8.9,4.6,11.1
							c4,2.5,9.2,1,13.5-1c14.1-6.7,25.5-18.3,33.8-31.5c8.2-13.2,13.6-27.9,17.8-43C480.6,240.9,484.2,208.1,476.1,177.4z"/>
					</g>
				</g>
			</g>
		</g>
	</g>
</g>
</svg>
