<svg id="Layer_1" xmlns="http://www.w3.org/2000/svg" viewBox="0 0 440 440"><style>.st0{fill:#DB5527;} .st1{fill:#FBB40C;} .st2{fill:#FFFFFF;} .st3{fill:#652562;} .st4{fill:none;}</style><circle class="st0" cx="220" cy="220" r="192.5"/><path class="st1" d="M324 133.2c0 6.5-2.5 12.8-5.5 18.6-9.6 18.1-41.7 78.2-57.1 92.3-7.5 7-16.3 11.2-26.7 11.2-20.8 0-37.7-17.7-37.7-38.3 0-9.8 4.1-19.4 11.3-26.1l78.3-71.1c4.3-4 9.9-6.6 15.9-6.6 11.1 0 21.5 8.4 21.5 20z"/><path class="st2" d="M222.5 274.1l-.1-8.7c-13.5-3.5-25.2-12.9-31.6-25.3-24.8 1.1-40.5 5.2-50.9 25.7 15.6 2.9 27.5 16.5 27.5 33 0 2.9-.3 5.5-1 8.1 6.6 4.4 11 11.9 11 20.5 0 1.5-.1 3.1-.4 4.5 27.8-5.2 46.2-27.3 45.5-57.8z"/><path class="st3" d="M166.4 307c.7-2.6 1-5.3 1-8.1 0-16.5-11.9-30.1-27.5-33-1.2 2.3-2.3 4.8-3.4 7.7-1.1 2.9-3.6 4.5-6.7 4.5-5.2 0-21-12.6-25.5-15.7 0 37.7 18 70.8 59.6 70.8 4.5 0 8.9-.4 13.1-1.2.2-1.4.4-3 .4-4.5 0-8.6-4.4-16.1-11-20.5z"/><path class="st4" d="M222.4 265.4l.1 8.7c.8 35-23.5 59.1-58.6 59.1-41.6 0-59.6-33.1-59.6-70.8 4.5 3.1 20.4 15.7 25.5 15.7 3.1 0 5.6-1.8 6.7-4.5 10.5-27.3 26.7-32.1 54.3-33.4 6.4 12.3 18.1 21.6 31.6 25.2z"/><path class="st3" d="M129.8 209.7c.1-.9.2-1.8.2-2.6 0-8.2-6.7-14.9-14.9-14.9s-14.9 6.7-14.9 14.9c0 4.7 2.2 8.9 5.6 11.7 11.8 11 9.2 20.5 9.2 20.5 12.6-15.4 14.5-27.1 14.8-29.6z"/></svg>