<svg xmlns="http://www.w3.org/2000/svg" xmlns:xlink="http://www.w3.org/1999/xlink" viewBox="0 0 640 440"><circle fill="#23336B" cx="320" cy="220" r="192.3"/><defs><circle id="a" cx="320" cy="220" r="192.3"/></defs><clipPath id="b"><use xlink:href="#a" overflow="visible"/></clipPath><g clip-path="url(#b)"><path fill="#6573A7" d="M118.9 133.5h202.6v22H118.9z"/></g><defs><circle id="c" cx="320" cy="220" r="192.3"/></defs><clipPath id="d"><use xlink:href="#c" overflow="visible"/></clipPath><g clip-path="url(#d)"><path fill="#6573A7" d="M118.9 177.8h202.6v22H118.9z"/></g><defs><circle id="e" cx="320" cy="220" r="192.3"/></defs><clipPath id="f"><use xlink:href="#e" overflow="visible"/></clipPath><g clip-path="url(#f)"><path fill="#6573A7" d="M118.9 222.1h202.6v22H118.9z"/></g><g><defs><circle id="g" cx="320" cy="220" r="192.3"/></defs><clipPath id="h"><use xlink:href="#g" overflow="visible"/></clipPath><g clip-path="url(#h)"><path fill="#6573A7" d="M118.9 266.2h215.6v22H118.9z"/></g></g><path fill="#FFF" d="M224.7 330.4c-3.9 7.9-.6 17.5 7.4 21.3s17.5.5 21.3-7.4l93.7-197.9c3.8-7.9.5-17.5-7.4-21.3-7.9-3.8-17.5-.5-21.3 7.4l-93.7 197.9zM298 285.7c-7.3 5-9.2 15-4.3 22.2 4.9 7.3 15 9.2 22.2 4.3l55-36.2c7.3-4.9 9.2-15 4.3-22.2s-15-9.2-22.2-4.3l-55 36.2z"/><path fill="#FFF" d="M353.6 276.2c7.5 4.7 17.4 2.4 22-5.1 4.7-7.5 2.4-17.4-5.1-22l-44.1-27.3c-7.5-4.7-17.4-2.4-22 5.1-4.7 7.5-2.4 17.4 5.1 22l44.1 27.3z"/><path fill="#FFF" d="M324.7 257.8l-51.9-28.1 46.8-96.6 54 26.1"/><circle fill="#FFF" cx="369.7" cy="109.2" r="25.7"/><g><path fill="#FFF" d="M382.5 186.7c-19.5 0-37.8-10.7-57.6-33.4-7.5-8.6-15.2-13-23.5-13.5-14.3-.9-27 9.8-27.1 9.9-6.5 5.8-16.5 5.2-22.2-1.3-5.8-6.5-5.2-16.5 1.3-22.2 2.2-2 22.8-19.5 50-17.8 17.1 1.1 32.2 9.2 45.3 24.3 13.2 15.2 24.3 22.7 33.9 22.7 8.5 0 18.7-5.5 32.9-17.9 6.6-5.7 16.5-5.1 22.2 1.5 5.7 6.6 5.1 16.5-1.5 22.2-14.7 12.5-32.4 25.5-53.7 25.5.1 0 .1 0 0 0z"/></g></svg>