<svg xmlns="http://www.w3.org/2000/svg" viewBox="0 0 400 400"><path fill="#FFF" d="M-479.5-805.7h2182v1268h-2182z"/><path fill="#FBB40C" d="M332.8 199.9l35.8-49.3c1.2-1.8 1.4-3.8.8-5.8-.6-2-2.2-3.4-4-4l-58-19.1V61c0-2-1-4-2.6-5.2-1.8-1.2-3.8-1.6-5.8-.8l-58 18.7-35.8-49.3c-2.4-3.2-8-3.2-10.3 0l-35.8 49.3L101 55c-2-.8-4-.4-5.8.8-1.5 1.2-2.5 3.2-2.5 5.2v60.8l-58 19.1c-1.8.6-3.4 2-4 4-.6 2-.4 4 .8 5.8L67.3 200l-35.8 49.3c-1.2 1.6-1.4 3.8-.8 5.8.6 2 2.2 3.4 4 4l58 19.1V339c0 2 1 4 2.6 5.2 1.8 1.2 3.8 1.6 5.8.8l58-18.7 35.8 49.3c1.2 1.6 3.2 2.6 5.2 2.6s4-1 5.2-2.6l35.8-49.3 58 18.7c2 .8 4 .4 5.8-.8 1.6-1.2 2.6-3.2 2.6-5.2v-61l58-19.1c1.8-.6 3.4-2 4-4 .6-2 .4-4.2-.8-5.8l-35.9-49.2z"/></svg>