<svg id="Layer_1" xmlns="http://www.w3.org/2000/svg" viewBox="0 0 440 440"><style>.st0{fill:#007EC9;} .st1{fill:#FBB40C;}</style><circle class="st0" cx="220.9" cy="212.5" r="184.8"/><path class="st1" d="M402.8 277.9c.3-.6.6-1.2.9-1.9 10.6-20.8 22-56.7 17.1-91.1-.9-6.5-2.3-13-4.6-19.2.1.3.2.8.2 1.1-.1-.4-.2-.7-.2-.7s-3.2 10-7.7 24.7c2.3-21.6.7-44-6.8-64.8-3.4-9.2-7.4-16.9-11.3-23.2-5.9-10-12.5-17.7-17.8-21.3.6.4 1.2 1 1.8 1.6-1.1-1-1.8-1.6-1.8-1.6.3.3.6.7.8.9-.7-.7-1.1-1-1.1-1s.4 2.2 1.1 6.2c-10.9-17.1-27.5-25.2-27.5-25.2s.8 4.7 2.1 14.5c-15.8-12.6-34.9-22.9-57.5-29.2 37 24.4 50.9 45.2 59.6 63.7-10-10.2-26.9-20.7-38.4-21.6 17.1 12.8 45.5 50.2 43 107.1-7.7-19.7-18.2-27.9-18.2-27.9 1.6 18.5 4.5 43.6.9 67.6-1 5.7-2.3 10.3-3.6 14.9-2.1-9.2-4.9-14.2-4.9-14.2s-.8 8.4-3.6 19.2c-1.6 5.9-3.9 13-7.4 20.8-4.3 9.5-8.4 16.1-12 20.4-4.6 5.1-8.5 6.9-10.7 6.6-.3 0-.7-.1-1-.2l-.7-.3c.3-2.5.6-5-.1-6.7 0 0-3.7 1.2-6 4.6-1 1.3-2.2 2.7-3.8 3.9-.2.2 2.6-3.7 2.3-3.5-1.5 1.1-2.9 2.5-4.5 4.1-5.6 5.8-10.6 12.3-13.3 10.5 2.5-.8 4.4-3.9 4.9-6.9-2.2 1.6-7.8 5.7-20.4 7.6-5.1.8-27 4.7-56.1-9.8 4.3-.4 10.6-2 15.4.9-4.8-5.3-16.6-4.1-24.8-6.8-7.3-2.3-16.8-12.5-22.3-17.7.1 0 .3.1.4.1 2.5.6 4.9 1 7.4 1.3.2 0 .4.1.7.1h.1c14 1.9 28 .4 39.2-3.6 4.5-1.6 8.6-3.6 12-5.9 9.3-6.4 22.6-15.9 28.6-14.9h-.1c.3 0 .6.1.9.1 7.4 1.7 12.3-5.7 6.5-12.3-5.7-6.6-19.6-15.4-38.5-10.6-14.4 3.6-26.7 15.2-47.1 7.2-1.2-.4-2.5-1-3.8-1.7-1.3-.7 4.3.8 2.9 0-3.9-1.5-11-4.7-12.8-5.9-.3-.2 2.9.6 2.6.3-17.2-10.2-18-18.6-18-24.3.1-2.6.8-4.7 1.2-6.4 1-3.7 3.9-7.2 5.8-8.5l.6-.3c.1 0 .2-.1.2-.1 2.8 1 4.5 1.9 4.5 1.9s-1.2-2-2.1-2.9c.2-.1.3-.1.6-.2 2.2.8 7.4 2.7 10 3.9 3.5 1.8 4.7 3.6 4.7 3.6s.8-.6 0-2.3c-.3-.8-1.6-2.9-5-5h.1c1.8.7 3.8 1.7 5.9 2.8.7-3.1 2-6.3 1.1-11.9-.7-3.9-.6-4.9-1.6-6.4-.9-1.2.2-1.8 1.6-.7-.2-.9-.7-1.7-1.1-2.5 0 0 .1-.1.1-.2 6-7.3 30-18.4 35.4-24.1.7-.7 1.1-1.2 1.6-1.8 0 .1-.1.2-.1.2 3.1-2.3 4.5-4.7 5.8-8.1 1.3-3.5 3-11.4-1.6-13.1-3.8-.9-6.9-1.6-13.1-1.5-.7 0-1.5-.1-2.2-.1-4.4-.2-10-.3-17.1-.2-12.8.1-18.7-11-20.6-15.7 0 0 0-.1-.1-.1 3.6-13.2 11-24.8 22.5-34.2.7-.6-2.8.4-2.1-.2.8-.8 5.7-3 6.6-3.6 1.2-.7-5.4-2.5-10.9-1.2-5.5 1.1-6.6 1.8-9.5 3.2h-.1c1.2-1.2 4.9-3.1 4-2.9-6 1.3-13.2 5.4-19.2 9.6 0-.6 0-1 .1-1.9-2.9 1.5-9.8 6.8-11.5 10.9 0-.9 0-1.3-.1-2.3-2 1.8-3.9 3.9-5.6 6.3 0 0 0 .1-.1.1-18-4.5-33.3-3.4-46.2.7h-.1c-4.3-3.5-10.7-9.6-15.7-17.6 0-.1-.1-.1-.1-.1-.3-.3-.4 1.3-.8 1.1 0 0 0-.1-.1-.1-3-5.5-5.6-14.9-5.9-21.5 0 0-4.9 2.9-8.3 13.1-.6 1.8-1 2.9-1.3 3.9 0-.2.2-3.1.1-3-.7 1.2-2.3 3.4-3 5.6-.4 1.7-1.1 2.8-1.5 4.9 0 0 0 .1-.1.1 0-.3 0-1.1-.1-1.7V83c0-.1 0-.2-.1-.2h-.1c-.2.6-.4 1.2-.7 1.9-.7 1.7-1.1 3.5-1.7 5.3-.4 1.5-.8 2.9-1.1 4.5-.1.2-.1.4-.2.8 0 .2-.1.4-.1.7 0 .1 0 .2-.1.3-.8 3.6-1.3 7.4-1.8 11.5-1.3 11.6-1 21.5-.6 23v.1c0 .1.1.1.1.1-3 4.3-5.4 8.1-7 11-6.6 11.3-13.7 30-19.1 61.2 0 0 0-.1.1-.2v.2s.1-.4.3-1.1c0 .3-.1.6-.1.9 0 0 0-.1.1-.2v.2s.4-1.3 1.2-3.5v-.2c1.5-3.9 4.1-10.5 8.2-17.8 0 .1 0 .1-.1.2 0 .1-.1.1-.1.2 0-.1.1-.1.1-.2-4.7 14.9-8.3 37.8-6.2 71.7v-.1.1c0-.2.1-.7.1-1.3 0 .3 0 .8.1 1.1v-.1.1c0-.4.2-2.5.7-5.4v-.1c.6-3.9 1.6-9.6 3-16.2.4 7.6 1.3 15.9 2.9 24.6v.1c.1.7.2 1.3.4 2 0 .1.1.3.1.4.1.6.2 1.1.3 1.8.1.2.1.6.2.8.1.4.2 1 .3 1.5.1.3.2.8.2 1.1l.3 1.2c.1.4.2.9.3 1.5.1.3.1.7.2 1 .1.6.3 1.1.4 1.7.1.2.1.4.2.8.2.7.3 1.3.6 2 0 .1.1.3.1.4.2.8.4 1.6.7 2.2 0 .1 0 .1.1.2 3.8 12.3 9.2 25.2 17 38.6 13.7 23.4 49.7 77.8 140 98.1-.2-.1-.6-.1-.8-.2.2.1.6.1.8.2-10-2.9-16.1-8.6-16.1-8.6s1.9.6 5.1 1.6l.1.1c10.4 3 34.4 9.1 53 8.4h-.3.2c-7.7-1.3-9.3-5-9.3-5s.8 0 2.3.1l.1.1c12.5.3 71.7.8 104.2-25 8.1-6 13.4-13.1 15.1-19.5 3.7-1.9 7.5-4.1 11.4-6.8 9.6-6.5 21.3-15.6 30.5-27 3.8-4.6 6.7-9 8.8-13.2-.2.3-.3.7-.6 1 .3-.6.7-1.2.9-1.8 4.1-7.8 6.8-16.6 7.4-26.1-.1 1.2-.3 2.3-.6 3.6.2-1.2.3-2.3.6-3.6l-.3 1.7c2.5-4.9 1.8-9.9-.3-13.6z"/></svg>