<svg xmlns="http://www.w3.org/2000/svg" viewBox="0 0 400 400"><circle fill="#007EC9" cx="200" cy="192.6" r="165.2"/><path fill="#FBB40C" d="M362.6 251c.3-.5.5-1.1.8-1.7 9.5-18.6 19.7-50.7 15.3-81.4-.8-5.8-2.1-11.6-4.1-17.2.1.3.2.7.2 1-.1-.4-.2-.6-.2-.6s-2.9 8.9-6.9 22.1c2.1-19.3.6-39.3-6.1-57.9-3-8.2-6.6-15.1-10.1-20.7-5.3-8.9-11.2-15.8-15.9-19 .5.4 1.1.9 1.6 1.4-1-.9-1.6-1.4-1.6-1.4.3.3.5.6.7.8-.6-.6-1-.9-1-.9s.4 2 1 5.5c-9.7-15.3-24.6-22.5-24.6-22.5s.7 4.2 1.9 13c-14.1-11.3-31.2-20.5-51.4-26.1 33.1 21.8 45.5 40.4 53.3 56.9-8.9-9.1-24-18.5-34.3-19.3 15.3 11.4 40.7 44.9 38.4 95.7-6.9-17.6-16.3-24.9-16.3-24.9 1.4 16.5 4 39 .8 60.4-.9 5.1-2.1 9.2-3.2 13.3-1.9-8.2-4.4-12.7-4.4-12.7s-.7 7.5-3.2 17.2c-1.4 5.3-3.5 11.6-6.6 18.6-3.8 8.5-7.5 14.4-10.7 18.2-4.1 4.6-7.6 6.2-9.6 5.9-.3 0-.6-.1-.9-.2l-.6-.3c.3-2.2.5-4.5-.1-6 0 0-3.3 1.1-5.4 4.1-.9 1.2-2 2.4-3.4 3.5-.2.2 2.3-3.3 2.1-3.1-1.3 1-2.6 2.2-4 3.7-5 5.2-9.5 11-11.9 9.4 2.2-.7 3.9-3.5 4.4-6.2-2 1.4-7 5.1-18.2 6.8-4.6.7-24.1 4.2-50.1-8.8 3.8-.4 9.5-1.8 13.8.8-4.3-4.7-14.8-3.7-22.2-6.1-6.5-2.1-15-11.2-19.9-15.8.1 0 .3.1.4.1 2.2.5 4.4.9 6.6 1.2.2 0 .4.1.6.1h.1c12.5 1.7 25 .4 35-3.2 4-1.4 7.7-3.2 10.7-5.3 8.3-5.7 20.2-14.2 25.6-13.3h-.1c.3 0 .5.1.8.1 6.6 1.5 11-5.1 5.8-11-5.1-5.9-17.5-13.8-34.4-9.5-12.9 3.2-23.9 13.6-42.1 6.4-1.1-.4-2.2-.9-3.4-1.5-1.2-.6 3.8.7 2.6 0-3.5-1.3-9.8-4.2-11.4-5.3-.3-.2 2.6.5 2.3.3-15.4-9.1-16.1-16.6-16.1-21.7.1-2.3.7-4.2 1.1-5.7.9-3.3 3.5-6.4 5.2-7.6.2-.1.4-.2.5-.3.1 0 .2-.1.2-.1 2.5.9 4 1.7 4 1.7s-1.1-1.8-1.9-2.6c.2-.1.3-.1.5-.2 2 .7 6.6 2.4 8.9 3.5 3.1 1.6 4.2 3.2 4.2 3.2s.7-.5 0-2.1c-.3-.7-1.4-2.6-4.5-4.5h.1c1.6.6 3.4 1.5 5.3 2.5.6-2.8 1.8-5.6 1-10.6-.6-3.5-.5-4.4-1.4-5.7-.8-1.1.2-1.6 1.4-.6-.2-.8-.6-1.5-1-2.2 0 0 .1-.1.1-.2 5.4-6.5 26.8-16.4 31.6-21.5.6-.6 1-1.1 1.4-1.6 0 .1-.1.2-.1.2 2.8-2.1 4-4.2 5.2-7.2 1.2-3.1 2.7-10.2-1.4-11.7-3.4-.8-6.2-1.4-11.7-1.3-.6 0-1.3-.1-2-.1-3.9-.2-8.9-.3-15.3-.2-11.4.1-16.7-9.8-18.4-14 0 0 0-.1-.1-.1 3.3-12 9.9-22.4 20.2-30.8.6-.5-2.5.4-1.9-.2.7-.7 5.1-2.7 5.9-3.2 1.1-.6-4.8-2.2-9.7-1.1-4.9 1-5.9 1.6-8.5 2.9h-.1c1.1-1.1 4.4-2.8 3.6-2.6-5.4 1.2-11.8 4.8-17.2 8.6 0-.5 0-.9.1-1.7-2.6 1.3-8.8 6.1-10.3 9.7 0-.8 0-1.2-.1-2.1-1.8 1.6-3.5 3.5-5 5.6 0 0 0 .1-.1.1-16.1-4-29.8-3-41.3.6h-.1c-3.8-3.1-9.6-8.6-14-15.7 0-.1-.1-.1-.1-.1-.3-.3-.4 1.2-.7 1 0 0 0-.1-.1-.1-2.7-4.9-5-13.3-5.3-19.2 0 0-4.4 2.6-7.4 11.7-.5 1.6-.9 2.6-1.2 3.5 0-.2.2-2.8.1-2.7-.6 1.1-2.1 3-2.7 5-.4 1.5-1 2.5-1.3 4.4 0 0 0 .1-.1.1 0-.3 0-1-.1-1.5v-.3c0-.1 0-.2-.1-.2h-.1c-.2.5-.4 1.1-.6 1.7-.6 1.5-1 3.1-1.5 4.7-.4 1.3-.7 2.6-1 4-.1.2-.1.4-.2.7 0 .2-.1.4-.1.6 0 .1 0 .2-.1.3-.7 3.2-1.2 6.6-1.6 10.3-1.2 10.4-.9 19.2-.5 20.6v.1c0 .1.1.1.1.1-2.7 3.8-4.8 7.2-6.3 9.8-5.9 10.1-12.2 26.8-17.1 54.7 0 0 0-.1.1-.2v.2s.1-.4.3-1c0 .3-.1.5-.1.8 0 0 0-.1.1-.2v.2s.4-1.2 1.1-3.1v-.2c1.3-3.5 3.7-9.4 7.3-15.9 0 .1 0 .1-.1.2 0 .1-.1.1-.1.2 0-.1.1-.1.1-.2-4.2 13.3-7.4 33.8-5.5 64.1v-.1.1c0-.2.1-.6.1-1.2 0 .3 0 .7.1 1v-.1.1c0-.4.2-2.2.6-4.8v-.1c.5-3.5 1.4-8.6 2.7-14.5.4 6.8 1.2 14.2 2.6 22v.1c.1.6.2 1.2.4 1.8 0 .1.1.3.1.4.1.5.2 1 .3 1.6.1.2.1.5.2.7.1.4.2.9.3 1.3.1.3.2.7.2 1 .1.4.2.7.3 1.1.1.4.2.8.3 1.3.1.3.1.6.2.9.1.5.3 1 .4 1.5.1.2.1.4.2.7.2.6.3 1.2.5 1.8 0 .1.1.3.1.4.2.7.4 1.4.6 2 0 .1 0 .1.1.2 3.4 11 8.2 22.5 15.2 34.5 12.2 20.9 44.4 69.5 125.1 87.7-.2-.1-.5-.1-.7-.2.2.1.5.1.7.2-8.9-2.6-14.4-7.7-14.4-7.7s1.7.5 4.6 1.4l.1.1c9.3 2.7 30.7 8.1 47.4 7.5h-.3.2c-6.9-1.2-8.3-4.5-8.3-4.5s.7 0 2.1.1l.1.1c11.2.3 64.1.7 93.1-22.3 7.2-5.4 12-11.7 13.5-17.4 3.3-1.7 6.7-3.7 10.2-6.1 8.6-5.8 19-13.9 27.3-24.1 3.4-4.1 6-8 7.9-11.8-.2.3-.3.6-.5.9.3-.5.6-1.1.8-1.6 3.7-7 6.1-14.8 6.6-23.3-.1 1.1-.3 2.1-.5 3.2.2-1.1.3-2.1.5-3.2l-.3 1.5c1.8-4.5 1.2-9-.7-12.3zm-222.3-70.7z"/></svg>