<svg xmlns="http://www.w3.org/2000/svg" xmlns:xlink="http://www.w3.org/1999/xlink" viewBox="0 0 400 400"><path fill="#FFF" d="M-1302.9-805.7h2182v1268h-2182z"/><circle fill="#666D9E" cx="200" cy="200" r="175"/><defs><circle id="a" cx="200" cy="200" r="175"/></defs><clipPath id="b"><use xlink:href="#a" overflow="visible"/></clipPath><g clip-path="url(#b)" fill="#687BBB" font-family="'Ayuthaya'" font-size="80"><text transform="translate(-44.47 90.404)">10101011010100110101</text><text transform="translate(-207.47 163.404)">10101011010100110101</text><text transform="translate(-137.47 238.404)">10101011010100110101</text><text transform="translate(-247.47 311.476)">10101011010100110101</text><text transform="translate(-297.47 385.476)">10101011010100110101</text></g><path fill="#FFF" d="M264.5 176.4h-4.3v-25.8c0-33.1-27.1-60.2-60.2-60.2s-60.2 27.1-60.2 60.2v25.8h-4.3c-7.1 0-12.9 5.8-12.9 12.9v77.4c0 7.1 5.8 12.9 12.9 12.9h129c7.1 0 12.9-5.8 12.9-12.9v-77.4c0-7.1-5.8-12.9-12.9-12.9zm-63.5 68c-9.4 0-17-7.6-17-17s7.6-17 17-17 17 7.6 17 17-7.6 17-17 17zm33.4-68h-68.8v-25.8c0-18.9 15.5-34.4 34.4-34.4s34.4 15.5 34.4 34.4v25.8z"/></svg>