<svg id="Layer_1" xmlns="http://www.w3.org/2000/svg" viewBox="0 0 440 440"><style>.st0{fill:#FBB40C;}</style><path class="st0" d="M367.4 221.8l39.3-54.1c1.3-2 1.5-4.2.9-6.4-.7-2.2-2.4-3.7-4.4-4.4L339.5 136V69.5c0-2.2-1.1-4.4-2.9-5.7-2-1.3-4.2-1.8-6.4-.9l-63.6 20.5-39.3-54.1c-2.6-3.5-8.8-3.5-11.3 0l-39.3 54.1L113 62.9c-2.2-.9-4.4-.4-6.4.9-1.6 1.3-2.7 3.5-2.7 5.7v66.7l-63.6 20.9c-2 .7-3.7 2.2-4.4 4.4-.7 2.2-.4 4.4.9 6.4L76.1 222 37 275.9c-1.3 1.8-1.5 4.2-.9 6.4s2.4 3.7 4.4 4.4l63.6 20.9v66.7c0 2.2 1.1 4.4 2.9 5.7 2 1.3 4.2 1.8 6.4.9l63.6-20.5 39.3 54.1c1.3 1.8 3.5 2.9 5.7 2.9s4.4-1.1 5.7-2.9l39.3-54.1 63.6 20.5c2.2.9 4.4.4 6.4-.9 1.8-1.3 2.9-3.5 2.9-5.7v-66.9l63.6-20.9c2-.7 3.7-2.2 4.4-4.4.7-2.2.4-4.6-.9-6.4l-39.6-53.9z"/></svg>