<svg xmlns="http://www.w3.org/2000/svg" xmlns:xlink="http://www.w3.org/1999/xlink" viewBox="0 0 640 440"><circle fill="#23336B" cx="320" cy="220" r="192.3"/><circle fill="#007EC9" cx="320" cy="220" r="137.6"/><defs><circle id="a" cx="320" cy="220" r="137.6"/></defs><clipPath id="b"><use xlink:href="#a" overflow="visible"/></clipPath><g clip-path="url(#b)"><path fill="#25B685" d="M313.4 69.1c-17.2-7.5-37.2-4-54.7 2.8-32 12.1-59.7 34.2-80.5 61.3-11.2 14.6-20.9 32.3-18.4 50.7 3.1 22.9 24.6 39.4 46.9 45.5 7.3 2 15.4 3.5 20 9.5 4.4 5.6 4.2 13.8 1.5 20.5-2.5 6.7-7 12.4-10.7 18.6-1.1 1.8-2.1 3.6-2.3 5.6-.3 2.8.6 5.5 2 7.8 7.8 12.9 28.6 16.4 31.2 31.1 1.7 9.2-4.6 20.7 2 27.4 4.4 4.5 12.5 3.4 17.3-.8 4.7-4.2 7-10.5 9-16.5 2-6.1 4-12.3 8.4-16.9 6.6-6.9 17.8-8.7 23-16.7 4.4-6.8 2.9-16.2-1.6-22.9-4.5-6.7-11.3-11.6-18-16.1-7-4.8-14.1-9.7-21.1-14.5-5.7-3.8-12-9.1-11.3-15.9.5-5.5 5.8-10 5.2-15.5-.7-5.7-7.3-8.7-13-9.7s-12.3-1.5-15.9-6.2c-3.3-4.2-2.8-10.4.3-14.8 3.1-4.3 8-6.9 13.2-8.2 6.8-1.9 14.5-1.7 20.2 2.3 4.3 3 7.1 7.8 11.9 9.9 7.8 3.5 18.1-3.5 17.6-12.1-.3-5.6-4.5-10.9-3.3-16.4.5-2.6 2.3-4.8 4.2-6.7 4-4.1 8.7-7.3 12.5-11.3 3.9-4.1 6.9-9.6 6.2-15.2-.9-7.4-7.7-12.4-14.5-15.4s-14.3-4.8-19.8-9.7c-2.2-2-4.2-4.7-4.1-7.7.2-5.2 5.9-8 11-9.4 7.9-2.2 16.2-3.3 24.4-3.4l2.8-1.9c2.2 1.1 4.6-2 3.9-4.3-1-2.4-3.3-3.8-5.5-4.8zm162.7 108.3c-9.2-35-32.7-56.2-56.3-83.6L414 90c-8.9 4.5-13 6.9-19.4 14.6-4.1 4.8-7.6 10.7-7.5 16.9.1 6.3 5.2 12.9 11.4 12.5 4.1-.2 7.5-3 11.3-4.6 3.7-1.5 9.2-1.3 10.7 2.5.7 1.7.3 3.5-.2 5.2-2.1 6.4-7.1 11.7-13.3 14.1-10.9 4.2-23.8-.4-34.3 4.4-7 3.2-11.9 10.6-12.4 18.3-.5 7.7 3.2 15.5 9.4 20.1 3.1 2.3 7.3 5.2 6.2 8.9-.4 1.4-1.6 2.5-2.6 3.7-5.5 5.8-7.3 15.9-1.7 21.6 9 9 26.2-.8 36.5 6.7 2 1.4 3.5 3.7 3 6-.7 2.9-4.1 4-6.9 4.5-12.4 2.1-27.3 2.2-34.8 12.3-5.4 7.3-4.7 17.6-.7 25.6 4.1 8 11.1 14.2 18.3 19.7 6.9 5.4 14.6 11.4 15.9 20 .7 4.2-.3 8.4-.4 12.5-.1 4.2 1.1 8.9 4.6 11.1 4 2.5 9.2 1 13.5-1 14.1-6.7 25.5-18.3 33.8-31.5 8.2-13.2 13.6-27.9 17.8-43 8.4-30.2 12-63 3.9-93.7z"/></g></svg>