<?xml version="1.0" encoding="utf-8"?>
<!-- Generator: Adobe Illustrator 18.1.1, SVG Export Plug-In . SVG Version: 6.00 Build 0)  -->
<svg version="1.1" xmlns="http://www.w3.org/2000/svg" xmlns:xlink="http://www.w3.org/1999/xlink" x="0px" y="0px"
	 viewBox="0 0 400 400" enable-background="new 0 0 400 400" xml:space="preserve">
<g id="FIREFOX">
	<rect x="-479.5" y="-155" fill="#FFFFFF" width="2182" height="1268"/>
	<g>
		<circle fill="#652562" cx="200" cy="200" r="175"/>
		<path fill="#FFFFFF" d="M319.6,182.1c-1,17.6,1.3,34.7-21.7,65c-24.6,32.3-44.3,32-48.9,32.5c-27.6,2.9-32.8-21.7-48.9-21.7
			c-14.1,0-22.7,24.4-43.5,21.7c-4.6-0.6-29.8-0.2-54.3-32.5c-23-30.3-20.7-47.4-21.7-65c-1-17.6-5.4-37.9-5.4-37.9
			s12.9,9.9,27.2,10.8c14.3,1,13.3-7.6,43.5-16.3c32.7-9.4,54.3,32.5,54.3,32.5s24.2-41.3,54.3-32.5c30.2,8.8,29.2,17.2,43.5,16.3
			c14.3-1,27.2-10.8,27.2-10.8S320.6,164.5,319.6,182.1z M151.4,185.7c-16-3.3-22.1-1.4-32.9,1.8c-11.2,3.3-6.6,2-16.3,5.4
			c0,0,3.8,12.9,21.7,21.7c17.9,8.8,54.3,5.4,54.3,5.4S183.2,192.3,151.4,185.7z M281.5,187.5c-12.1-2.9-14.4-4.1-32.6,0
			c-31.6,7.2-27.2,32.5-27.2,32.5s36.4,3.4,54.3-5.4c17.9-8.8,21.7-21.7,21.7-21.7S289.3,189.4,281.5,187.5z"/>
	</g>
</g>
<g id="MOZILLA">
</g>
</svg>
