<?xml version="1.0" encoding="utf-8"?>
<!-- Generator: Adobe Illustrator 18.1.1, SVG Export Plug-In . SVG Version: 6.00 Build 0)  -->
<svg version="1.1" xmlns="http://www.w3.org/2000/svg" xmlns:xlink="http://www.w3.org/1999/xlink" x="0px" y="0px"
	 viewBox="0 0 400 400" enable-background="new 0 0 400 400" xml:space="preserve">
<g id="FIREFOX">
	<rect x="-892" y="-155" fill="#FFFFFF" width="2182" height="1268"/>
	<circle fill="#DB5527" cx="200" cy="200" r="175"/>
	<path fill="#FBB40C" d="M294.5,121.1c0,5.9-2.3,11.6-5,16.9c-8.7,16.5-37.9,71.1-51.9,83.9c-6.8,6.4-14.8,10.2-24.3,10.2
		c-18.9,0-34.3-16.1-34.3-34.8c0-8.9,3.7-17.6,10.3-23.7l71.2-64.6c3.9-3.6,9-6,14.5-6C285.1,102.9,294.5,110.5,294.5,121.1z"/>
	<g>
		<path fill="#FFFFFF" d="M202.3,249.2l-0.1-7.9c-12.3-3.2-22.9-11.7-28.7-23c-22.5,1-36.8,4.7-46.3,23.4c14.2,2.6,25,15,25,30
			c0,2.6-0.3,5-0.9,7.4c6,4,10,10.8,10,18.6c0,1.4-0.1,2.8-0.4,4.1C186.2,297,202.9,276.9,202.3,249.2z"/>
		<path fill="#652562" d="M151.3,279.1c0.6-2.4,0.9-4.8,0.9-7.4c0-15-10.8-27.4-25-30c-1.1,2.1-2.1,4.4-3.1,7
			c-1,2.6-3.3,4.1-6.1,4.1c-4.7,0-19.1-11.5-23.2-14.3c0,34.3,16.4,64.4,54.2,64.4c4.1,0,8.1-0.4,11.9-1.1c0.2-1.3,0.4-2.7,0.4-4.1
			C161.3,289.9,157.3,283.1,151.3,279.1z"/>
	</g>
	<path fill="none" d="M202.2,241.3l0.1,7.9c0.7,31.8-21.4,53.7-53.3,53.7c-37.8,0-54.2-30.1-54.2-64.4c4.1,2.8,18.5,14.3,23.2,14.3
		c2.8,0,5.1-1.6,6.1-4.1c9.5-24.8,24.3-29.2,49.4-30.4C179.3,229.5,189.9,238,202.2,241.3z"/>
	<path fill="#652562" d="M118,190.6c0.1-0.8,0.2-1.6,0.2-2.4c0-7.5-6.1-13.5-13.5-13.5c-7.5,0-13.5,6.1-13.5,13.5
		c0,4.3,2,8.1,5.1,10.6c10.7,10,8.4,18.6,8.4,18.6C116,203.5,117.7,192.9,118,190.6z"/>
</g>
<g id="MOZILLA">
</g>
</svg>
