<?xml version="1.0" encoding="utf-8"?>
<!-- Generator: Adobe Illustrator 18.1.1, SVG Export Plug-In . SVG Version: 6.00 Build 0)  -->
<svg version="1.1" xmlns="http://www.w3.org/2000/svg" xmlns:xlink="http://www.w3.org/1999/xlink" x="0px" y="0px"
	 viewBox="0 0 400 400" enable-background="new 0 0 400 400" xml:space="preserve">
<g id="FIREFOX">
	<rect x="-1712.4" y="-155" fill="#FFFFFF" width="2182" height="1268"/>
	<circle fill="#23336B" cx="200" cy="200" r="174.8"/>
	<g>
		<defs>
			<circle id="SVGID_33_" cx="200" cy="200" r="174.8"/>
		</defs>
		<clipPath id="SVGID_2_">
			<use xlink:href="#SVGID_33_"  overflow="visible"/>
		</clipPath>
		<g clip-path="url(#SVGID_2_)">
			<rect x="17.2" y="121.4" fill="#6573A7" width="184.2" height="20"/>
		</g>
		<g clip-path="url(#SVGID_2_)">
			<rect x="17.2" y="161.6" fill="#6573A7" width="184.2" height="20"/>
		</g>
		<g clip-path="url(#SVGID_2_)">
			<rect x="17.2" y="201.9" fill="#6573A7" width="184.2" height="20"/>
		</g>
		<g clip-path="url(#SVGID_2_)">
			<rect x="17.2" y="242" fill="#6573A7" width="196" height="20"/>
		</g>
	</g>
	<path fill="#FFFFFF" d="M113.4,300.4c-3.5,7.2-0.5,15.9,6.7,19.4c7.2,3.5,15.9,0.5,19.4-6.7l85.2-179.9c3.5-7.2,0.5-15.9-6.7-19.4
		c-7.2-3.5-15.9-0.5-19.4,6.7L113.4,300.4z"/>
	<path fill="#FFFFFF" d="M180,259.7c-6.6,4.5-8.4,13.6-3.9,20.2s13.6,8.4,20.2,3.9l50-32.9c6.6-4.5,8.4-13.6,3.9-20.2
		s-13.6-8.4-20.2-3.9L180,259.7z"/>
	<path fill="#FFFFFF" d="M230.5,251.1c6.8,4.3,15.8,2.2,20-4.6c4.3-6.8,2.2-15.8-4.6-20l-40.1-24.8c-6.8-4.3-15.8-2.2-20,4.6
		c-4.3,6.8-2.2,15.8,4.6,20L230.5,251.1z"/>
	<polygon fill="#FFFFFF" points="204.3,234.4 157.1,208.8 199.6,121 248.7,144.7 	"/>
	<circle fill="#FFFFFF" cx="245.2" cy="99.3" r="23.4"/>
	<g>
		<path fill="#FFFFFF" d="M256.8,169.7c-17.7,0-34.4-9.7-52.4-30.4c-6.8-7.8-13.8-11.8-21.4-12.3c-13-0.8-24.5,8.9-24.6,9
			c-5.9,5.3-15,4.7-20.2-1.2c-5.3-5.9-4.7-15,1.2-20.2c2-1.8,20.7-17.7,45.5-16.2c15.5,1,29.3,8.4,41.2,22.1
			c12,13.8,22.1,20.6,30.8,20.6c0,0,0,0,0,0c7.7,0,17-5,29.9-16.3c6-5.2,15-4.6,20.2,1.4c5.2,6,4.6,15-1.4,20.2
			C292.3,157.9,276.2,169.7,256.8,169.7C256.9,169.7,256.9,169.7,256.8,169.7z"/>
	</g>
</g>
<g id="MOZILLA">
</g>
</svg>
