<?xml version="1.0" encoding="utf-8"?>
<!-- Generator: Adobe Illustrator 18.1.1, SVG Export Plug-In . SVG Version: 6.00 Build 0)  -->
<svg version="1.1" xmlns="http://www.w3.org/2000/svg" xmlns:xlink="http://www.w3.org/1999/xlink" x="0px" y="0px"
	 viewBox="0 0 400 400" enable-background="new 0 0 400 400" xml:space="preserve">
<g id="FIREFOX">
	<rect x="-67" y="-155" fill="#FFFFFF" width="2182" height="1268"/>
	<g>
		<circle fill="#25B685" cx="200" cy="200" r="175"/>
		<g>
			<path fill="#FFFFFF" d="M285.7,303.9c-3.8,0-7.5-1.6-10-4.2l-38.3-38.2c-13.1,9-28.7,13.8-44.5,13.8c-43.4,0-78.6-35.2-78.6-78.6
				s35.2-78.6,78.6-78.6s78.6,35.2,78.6,78.6c0,15.8-4.8,31.5-13.8,44.5l38.3,38.3c2.6,2.6,4.1,6.2,4.1,10
				C300,297.4,293.5,303.9,285.7,303.9z M192.9,146.7c-27.6,0-50,22.4-50,50s22.4,50,50,50s50-22.4,50-50S220.4,146.7,192.9,146.7z"
				/>
		</g>
	</g>
</g>
<g id="MOZILLA">
</g>
</svg>
