<?xml version="1.0" encoding="utf-8"?>
<!-- Generator: Adobe Illustrator 18.1.1, SVG Export Plug-In . SVG Version: 6.00 Build 0)  -->
<svg version="1.1" xmlns="http://www.w3.org/2000/svg" xmlns:xlink="http://www.w3.org/1999/xlink" x="0px" y="0px"
	 viewBox="0 0 400 400" enable-background="new 0 0 400 400" xml:space="preserve">
<g id="FIREFOX">
	<rect x="-1302.9" y="-155" fill="#FFFFFF" width="2182" height="1268"/>
	<g>
		<circle fill="#007EC9" cx="200" cy="200" r="175"/>
		<g>
			<defs>
				<circle id="SVGID_29_" cx="200" cy="200" r="175"/>
			</defs>
			<clipPath id="SVGID_2_">
				<use xlink:href="#SVGID_29_"  overflow="visible"/>
			</clipPath>
		</g>
		<g>
			<defs>
				<circle id="SVGID_31_" cx="200" cy="200" r="175"/>
			</defs>
			<clipPath id="SVGID_4_">
				<use xlink:href="#SVGID_31_"  overflow="visible"/>
			</clipPath>
			<path clip-path="url(#SVGID_4_)" fill="#7BB7DE" d="M228.6,173.9C228.6,173.9,228.6,173.9,228.6,173.9c-0.1,0-0.1,0.1-0.4,0.1
				c-0.2,0.1-0.4,0.2-0.7,0.3c-0.2,0.1-0.3,0.1-0.4,0.1c-0.1,0-0.2,0.1-0.4,0.1c-1,0.4-2.3,1-4,1.7c-3.2,1.5-7.7,3.6-13.1,6.4
				c-8.2,4.3-18.6,10.2-30.4,17.8l-12.9-47.3c0,0,0,0-0.1,0c0,0-0.1,0-0.3,0.1c-0.2,0.1-0.4,0.1-0.7,0.2c-0.1,0.1-0.2,0.1-0.3,0.1
				c-0.1,0-0.2,0.1-0.3,0.1c-0.9,0.4-2,0.9-3.4,1.6c-2.8,1.3-6.5,3.2-11,5.7c-9,5-21.1,12.4-34.7,22.4c-6.8,5-14,10.6-21.3,17
				c-7.3,6.3-14.7,13.3-21.9,21c-7.3,7.6-14.3,16-20.9,24.9c-6.6,8.9-12.6,18.4-17.9,28.3c-5.3,9.9-9.7,20.2-13.2,30.5
				c-3.5,10.3-5.9,20.7-7.4,30.7c-1.5,10-2,19.6-1.9,28.6c0.2,9,0.9,17.3,2.1,24.8c1.2,7.5,2.6,14.2,4.2,20.1
				c0.4,1.5,0.8,2.9,1.1,4.2c0.4,1.3,0.8,2.6,1.2,3.9c0.4,1.2,0.7,2.4,1.1,3.5c0.4,1.1,0.8,2.2,1.1,3.2c0.7,2,1.3,3.8,1.9,5.4
				c0.6,1.5,1.1,2.8,1.5,3.9c0.8,2.1,1.3,3.2,1.3,3.2l1-0.2c0,0,0-1.2,0.1-3.5c0-1.1,0-2.5,0.1-4.1c0-1.6,0.2-3.5,0.3-5.6
				c0.1-1,0.1-2.1,0.2-3.3c0.1-1.1,0.2-2.3,0.3-3.6c0.1-1.2,0.2-2.5,0.4-3.9c0.2-1.3,0.4-2.7,0.5-4.1c0.7-5.6,1.9-11.9,3.5-18.6
				c1.6-6.7,3.8-13.7,6.6-20.7c2.8-7,6.3-14.1,10.4-20.9c0.9-1.5,1.8-2.9,2.8-4.3c-0.8,2-1.6,4.1-2.4,6.1
				c-4.5,12.2-7.7,24.5-9.8,36.4c-2.1,11.9-3.1,23.5-3.3,34.3c-0.1,10.8,0.4,20.9,1.6,30c1.2,9.1,2.6,17.3,4.3,24.5
				c0.4,1.8,0.8,3.5,1.2,5.2c0.4,1.6,0.9,3.2,1.3,4.8c0.4,1.5,0.8,3,1.2,4.4c0.4,1.4,0.8,2.7,1.2,3.9c0.8,2.5,1.4,4.7,2.1,6.6
				c0.7,1.9,1.2,3.5,1.7,4.8c0.9,2.6,1.4,4,1.4,4l1-0.2c0,0,0-1.5-0.1-4.2c0-1.4-0.1-3.1-0.1-5c0-2,0.1-4.3,0.1-6.8
				c0-1.3,0.1-2.6,0.1-4c0.1-1.4,0.2-2.9,0.2-4.4c0.1-1.5,0.2-3.1,0.3-4.7c0.2-1.6,0.3-3.3,0.5-5.1c0.6-7,1.8-14.7,3.4-23
				c1.6-8.3,4-17,7.1-25.9c3.1-8.9,7-17.9,11.8-26.6c4.8-8.7,10.4-17.2,16.8-25.2c6.4-7.9,13.5-15.4,21.1-22.1
				c7.7-6.8,15.7-12.9,24.1-18.4c8.4-5.5,16.9-10.3,25.5-14.5c4.2-2.1,8.5-4,12.7-5.9c4.2-1.8,8.4-3.5,12.5-5
				c8.2-3.1,16.1-5.6,23.4-7.7c14.6-4.2,27-6.6,35.3-7.8c4.2-0.6,7.3-1,9.3-1.1c0.9-0.1,1.7-0.1,2-0.1c0,0,0.1,0,0.1,0
				c0,0,0.1,0,0,0c0,0-0.1,0.1-0.1,0.1c-0.1,0,0,0,0.1,0c0,0,0.1,0,0.1,0L228.6,173.9z"/>
		</g>
		<g>
			<path fill="#FFFFFF" d="M309,174.1L259.9,222l11.6,67.6c0.1,0.9,0.1,1.8,0.1,2.7c0,3.5-1.6,6.8-5.5,6.8c-1.9,0-3.8-0.7-5.4-1.6
				L200,265.6l-60.7,31.9c-1.8,0.9-3.5,1.6-5.4,1.6c-3.9,0-5.7-3.2-5.7-6.8c0-0.9,0.1-1.8,0.3-2.7l11.6-67.6l-49.2-47.9
				c-1.6-1.8-3.4-4.1-3.4-6.5c0-4.1,4.2-5.7,7.6-6.2l67.9-9.9L193.4,90c1.2-2.6,3.5-5.5,6.6-5.5s5.4,3,6.6,5.5l30.4,61.6l67.9,9.9
				c3.2,0.5,7.6,2.2,7.6,6.2C312.6,170.1,310.8,172.4,309,174.1z"/>
		</g>
	</g>
</g>
<g id="MOZILLA">
</g>
</svg>
