<svg xmlns="http://www.w3.org/2000/svg" viewBox="0 0 34.21 34.21"><defs><style>.cls-1{fill:#fffedb;fill-rule:evenodd;}</style></defs><title>star</title><g id="Layer_2" data-name="Layer 2"><g id="_2" data-name="2"><path class="cls-1" d="M33.67,14.29l-7.46,7.63L28,32.7a3,3,0,0,1,0,.43c0,.56-.25,1.08-.84,1.08a1.62,1.62,0,0,1-.82-.26L17.1,28.86,7.87,34a1.68,1.68,0,0,1-.82.26c-.6,0-.86-.52-.86-1.08a3.06,3.06,0,0,1,0-.43L8,21.92.51,14.29a1.7,1.7,0,0,1-.51-1c0-.65.64-.91,1.15-1l10.32-1.57L16.1.88c.18-.41.53-.88,1-.88s.82.47,1,.88l4.63,9.81,10.32,1.57c.49.09,1.15.34,1.15,1a1.63,1.63,0,0,1-.53,1"/></g></g></svg>
